  0
SECTION
  2
HEADER
  9
$ACADVER
  1
AC1018
  9
$ACADMAINTVER
 70
     0
  9
$DWGCODEPAGE
  3
ANSI_1252
  9
$INSBASE
 10
0.0
 20
0.0
 30
0.0
  9
$EXTMIN
 10
1.000000000000000E+20
 20
1.000000000000000E+20
 30
1.000000000000000E+20
  9
$EXTMAX
 10
-1.000000000000000E+20
 20
-1.000000000000000E+20
 30
-1.000000000000000E+20
  9
$LIMMIN
 10
0.0
 20
0.0
  9
$LIMMAX
 10
12.0
 20
9.0
  9
$ORTHOMODE
 70
     0
  9
$REGENMODE
 70
     1
  9
$FILLMODE
 70
     1
  9
$QTEXTMODE
 70
     0
  9
$MIRRTEXT
 70
     1
  9
$LTSCALE
 40
1.0
  9
$ATTMODE
 70
     1
  9
$TEXTSIZE
 40
0.2
  9
$TRACEWID
 40
0.05
  9
$TEXTSTYLE
  7
Standard
  9
$CLAYER
  8
0
  9
$CELTYPE
  6
ByLayer
  9
$CECOLOR
 62
   256
  9
$CELTSCALE
 40
1.0
  9
$DISPSILH
 70
     0
  9
$DIMSCALE
 40
1.0
  9
$DIMASZ
 40
0.18
  9
$DIMEXO
 40
0.0625
  9
$DIMDLI
 40
0.38
  9
$DIMRND
 40
0.0
  9
$DIMDLE
 40
0.0
  9
$DIMEXE
 40
0.18
  9
$DIMTP
 40
0.0
  9
$DIMTM
 40
0.0
  9
$DIMTXT
 40
0.18
  9
$DIMCEN
 40
0.09
  9
$DIMTSZ
 40
0.0
  9
$DIMTOL
 70
     0
  9
$DIMLIM
 70
     0
  9
$DIMTIH
 70
     1
  9
$DIMTOH
 70
     1
  9
$DIMSE1
 70
     0
  9
$DIMSE2
 70
     0
  9
$DIMTAD
 70
     0
  9
$DIMZIN
 70
     0
  9
$DIMBLK
  1

  9
$DIMASO
 70
     1
  9
$DIMSHO
 70
     1
  9
$DIMPOST
  1

  9
$DIMAPOST
  1

  9
$DIMALT
 70
     0
  9
$DIMALTD
 70
     2
  9
$DIMALTF
 40
25.4
  9
$DIMLFAC
 40
1.0
  9
$DIMTOFL
 70
     0
  9
$DIMTVP
 40
0.0
  9
$DIMTIX
 70
     0
  9
$DIMSOXD
 70
     0
  9
$DIMSAH
 70
     0
  9
$DIMBLK1
  1

  9
$DIMBLK2
  1

  9
$DIMSTYLE
  2
Standard
  9
$DIMCLRD
 70
     0
  9
$DIMCLRE
 70
     0
  9
$DIMCLRT
 70
     0
  9
$DIMTFAC
 40
1.0
  9
$DIMGAP
 40
0.09
  9
$DIMJUST
 70
     0
  9
$DIMSD1
 70
     0
  9
$DIMSD2
 70
     0
  9
$DIMTOLJ
 70
     1
  9
$DIMTZIN
 70
     0
  9
$DIMALTZ
 70
     0
  9
$DIMALTTZ
 70
     0
  9
$DIMUPT
 70
     0
  9
$DIMDEC
 70
     4
  9
$DIMTDEC
 70
     4
  9
$DIMALTU
 70
     2
  9
$DIMALTTD
 70
     2
  9
$DIMTXSTY
  7
Standard
  9
$DIMAUNIT
 70
     0
  9
$DIMADEC
 70
     0
  9
$DIMALTRND
 40
0.0
  9
$DIMAZIN
 70
     0
  9
$DIMDSEP
 70
    46
  9
$DIMATFIT
 70
     3
  9
$DIMFRAC
 70
     0
  9
$DIMLDRBLK
  1

  9
$DIMLUNIT
 70
     2
  9
$DIMLWD
 70
    -2
  9
$DIMLWE
 70
    -2
  9
$DIMTMOVE
 70
     0
  9
$LUNITS
 70
     2
  9
$LUPREC
 70
     4
  9
$SKETCHINC
 40
0.1
  9
$FILLETRAD
 40
0.5
  9
$AUNITS
 70
     0
  9
$AUPREC
 70
     0
  9
$MENU
  1
.
  9
$ELEVATION
 40
0.0
  9
$PELEVATION
 40
0.0
  9
$THICKNESS
 40
0.0
  9
$LIMCHECK
 70
     0
  9
$CHAMFERA
 40
0.5
  9
$CHAMFERB
 40
0.5
  9
$CHAMFERC
 40
1.0
  9
$CHAMFERD
 40
0.0
  9
$SKPOLY
 70
     0
  9
$TDCREATE
 40
2458334.894412396
  9
$TDUCREATE
 40
2458334.811079063
  9
$TDUPDATE
 40
2458334.894412407
  9
$TDUUPDATE
 40
2458334.811079074
  9
$TDINDWG
 40
0.0000000116
  9
$TDUSRTIMER
 40
0.0000000116
  9
$USRTIMER
 70
     1
  9
$ANGBASE
 50
0.0
  9
$ANGDIR
 70
     0
  9
$PDMODE
 70
     0
  9
$PDSIZE
 40
0.0
  9
$PLINEWID
 40
0.0
  9
$SPLFRAME
 70
     0
  9
$SPLINETYPE
 70
     6
  9
$SPLINESEGS
 70
     8
  9
$HANDSEED
  5
45
  9
$SURFTAB1
 70
     6
  9
$SURFTAB2
 70
     6
  9
$SURFTYPE
 70
     6
  9
$SURFU
 70
     6
  9
$SURFV
 70
     6
  9
$UCSBASE
  2

  9
$UCSNAME
  2

  9
$UCSORG
 10
0.0
 20
0.0
 30
0.0
  9
$UCSXDIR
 10
1.0
 20
0.0
 30
0.0
  9
$UCSYDIR
 10
0.0
 20
1.0
 30
0.0
  9
$UCSORTHOREF
  2

  9
$UCSORTHOVIEW
 70
     0
  9
$UCSORGTOP
 10
0.0
 20
0.0
 30
0.0
  9
$UCSORGBOTTOM
 10
0.0
 20
0.0
 30
0.0
  9
$UCSORGLEFT
 10
0.0
 20
0.0
 30
0.0
  9
$UCSORGRIGHT
 10
0.0
 20
0.0
 30
0.0
  9
$UCSORGFRONT
 10
0.0
 20
0.0
 30
0.0
  9
$UCSORGBACK
 10
0.0
 20
0.0
 30
0.0
  9
$PUCSBASE
  2

  9
$PUCSNAME
  2

  9
$PUCSORG
 10
0.0
 20
0.0
 30
0.0
  9
$PUCSXDIR
 10
1.0
 20
0.0
 30
0.0
  9
$PUCSYDIR
 10
0.0
 20
1.0
 30
0.0
  9
$PUCSORTHOREF
  2

  9
$PUCSORTHOVIEW
 70
     0
  9
$PUCSORGTOP
 10
0.0
 20
0.0
 30
0.0
  9
$PUCSORGBOTTOM
 10
0.0
 20
0.0
 30
0.0
  9
$PUCSORGLEFT
 10
0.0
 20
0.0
 30
0.0
  9
$PUCSORGRIGHT
 10
0.0
 20
0.0
 30
0.0
  9
$PUCSORGFRONT
 10
0.0
 20
0.0
 30
0.0
  9
$PUCSORGBACK
 10
0.0
 20
0.0
 30
0.0
  9
$USERI1
 70
     0
  9
$USERI2
 70
     0
  9
$USERI3
 70
     0
  9
$USERI4
 70
     0
  9
$USERI5
 70
     0
  9
$USERR1
 40
0.0
  9
$USERR2
 40
0.0
  9
$USERR3
 40
0.0
  9
$USERR4
 40
0.0
  9
$USERR5
 40
0.0
  9
$WORLDVIEW
 70
     1
  9
$SHADEDGE
 70
     3
  9
$SHADEDIF
 70
    70
  9
$TILEMODE
 70
     1
  9
$MAXACTVP
 70
    64
  9
$PINSBASE
 10
0.0
 20
0.0
 30
0.0
  9
$PLIMCHECK
 70
     0
  9
$PEXTMIN
 10
1.000000000000000E+20
 20
1.000000000000000E+20
 30
1.000000000000000E+20
  9
$PEXTMAX
 10
-1.000000000000000E+20
 20
-1.000000000000000E+20
 30
-1.000000000000000E+20
  9
$PLIMMIN
 10
0.0
 20
0.0
  9
$PLIMMAX
 10
12.0
 20
9.0
  9
$UNITMODE
 70
     0
  9
$VISRETAIN
 70
     1
  9
$PLINEGEN
 70
     0
  9
$PSLTSCALE
 70
     1
  9
$TREEDEPTH
 70
  3020
  9
$CMLSTYLE
  2
Standard
  9
$CMLJUST
 70
     0
  9
$CMLSCALE
 40
1.0
  9
$PROXYGRAPHICS
 70
     1
  9
$MEASUREMENT
 70
     0
  9
$CELWEIGHT
370
    -1
  9
$ENDCAPS
280
     0
  9
$JOINSTYLE
280
     0
  9
$LWDISPLAY
290
     1
  9
$INSUNITS
 70
     1
  9
$HYPERLINKBASE
  1

  9
$STYLESHEET
  1

  9
$XEDIT
290
     1
  9
$CEPSNTYPE
380
     0
  9
$PSTYLEMODE
290
     1
  9
$FINGERPRINTGUID
  2
{7D644A45-A068-48ED-8393-BDDAC6FF17B0}
  9
$VERSIONGUID
  2
{FAEB1C32-E019-11D5-929B-00C0DF256EC4}
  9
$EXTNAMES
290
     1
  9
$PSVPSCALE
 40
0.0
  9
$OLESTARTUP
290
     0
  9
$SORTENTS
280
   127
  9
$INDEXCTL
280
     0
  9
$HIDETEXT
280
     1
  9
$XCLIPFRAME
290
     0
  9
$HALOGAP
280
     0
  9
$OBSCOLOR
 70
   257
  9
$OBSLTYPE
280
     0
  9
$INTERSECTIONDISPLAY
280
     0
  9
$INTERSECTIONCOLOR
 70
   257
  9
$DIMASSOC
280
     2
  9
$PROJECTNAME
  1

  0
ENDSEC
  0
SECTION
  2
CLASSES
  0
CLASS
  1
ACDBDICTIONARYWDFLT
  2
AcDbDictionaryWithDefault
  3
ObjectDBX Classes
 90
        0
 91
        3
280
     0
281
     0
  0
CLASS
  1
VISUALSTYLE
  2
AcDbVisualStyle
  3
ObjectDBX Classes
 90
     4095
 91
        3
280
     0
281
     0
  0
ENDSEC
  0
SECTION
  2
TABLES
  0
TABLE
  2
VPORT
  5
8
330
0
100
AcDbSymbolTable
 70
     1
  0
VPORT
  5
29
330
8
100
AcDbSymbolTableRecord
100
AcDbViewportTableRecord
  2
*Active
 70
     0
 10
0.0
 20
0.0
 11
1.0
 21
1.0
 12
0.0
 22
0.0
 13
0.0
 23
0.0
 14
0.5
 24
0.5
 15
0.5
 25
0.5
 16
0.0
 26
0.0
 36
1.0
 17
319.5
 27
240.5
 37
0.0
 40
135.0
 41
1.0
 42
50.0
 43
0.0
 44
0.0
 50
0.0
 51
0.0
 71
     0
 72
   100
 73
     1
 74
     3
 75
     0
 76
     0
 77
     0
 78
     0
281
     0
 65
     1
110
0.0
120
0.0
130
0.0
111
1.0
121
0.0
131
0.0
112
0.0
122
1.0
132
0.0
 79
     0
146
0.0
  0
ENDTAB
  0
TABLE
  2
LTYPE
  5
5
330
0
100
AcDbSymbolTable
 70
     1
  0
LTYPE
  5
14
330
5
100
AcDbSymbolTableRecord
100
AcDbLinetypeTableRecord
  2
ByBlock
 70
     0
  3

 72
    65
 73
     0
 40
0.0
  0
LTYPE
  5
15
330
5
100
AcDbSymbolTableRecord
100
AcDbLinetypeTableRecord
  2
ByLayer
 70
     0
  3

 72
    65
 73
     0
 40
0.0
  0
LTYPE
  5
16
330
5
100
AcDbSymbolTableRecord
100
AcDbLinetypeTableRecord
  2
Continuous
 70
     0
  3
Solid line
 72
    65
 73
     0
 40
0.0
  0
ENDTAB
  0
TABLE
  2
LAYER
  5
2
330
0
100
AcDbSymbolTable
 70
     2
  0
LAYER
  5
10
330
2
100
AcDbSymbolTableRecord
100
AcDbLayerTableRecord
  2
0
 70
     0
 62
     7
  6
Continuous
370
    -3
390
F
  0
LAYER
  5
3B
330
2
100
AcDbSymbolTableRecord
100
AcDbLayerTableRecord
  2
Layer 1
 70
     0
 62
     7
  6
Continuous
370
    -3
390
F
  0
ENDTAB
  0
TABLE
  2
STYLE
  5
3
330
0
100
AcDbSymbolTable
 70
     1
  0
STYLE
  5
11
330
3
100
AcDbSymbolTableRecord
100
AcDbTextStyleTableRecord
  2
Standard
 70
     0
 40
0.0
 41
1.0
 50
0.0
 71
     0
 42
0.2
  3
txt
  4

  0
ENDTAB
  0
TABLE
  2
VIEW
  5
6
330
0
100
AcDbSymbolTable
 70
     0
  0
ENDTAB
  0
TABLE
  2
UCS
  5
7
330
0
100
AcDbSymbolTable
 70
     0
  0
ENDTAB
  0
TABLE
  2
APPID
  5
9
330
0
100
AcDbSymbolTable
 70
     1
  0
APPID
  5
12
330
9
100
AcDbSymbolTableRecord
100
AcDbRegAppTableRecord
  2
ACAD
 70
     0
  0
ENDTAB
  0
TABLE
  2
DIMSTYLE
  5
A
330
0
100
AcDbSymbolTable
 70
     1
100
AcDbDimStyleTable
  0
DIMSTYLE
105
27
330
A
100
AcDbSymbolTableRecord
100
AcDbDimStyleTableRecord
  2
Standard
 70
     0
340
11
  0
ENDTAB
  0
TABLE
  2
BLOCK_RECORD
  5
1
330
0
100
AcDbSymbolTable
 70
     1
  0
BLOCK_RECORD
  5
1F
330
1
100
AcDbSymbolTableRecord
100
AcDbBlockTableRecord
  2
*Model_Space
340
22
  0
BLOCK_RECORD
  5
1B
330
1
100
AcDbSymbolTableRecord
100
AcDbBlockTableRecord
  2
*Paper_Space
340
1E
  0
BLOCK_RECORD
  5
23
330
1
100
AcDbSymbolTableRecord
100
AcDbBlockTableRecord
  2
*Paper_Space0
340
26
  0
ENDTAB
  0
ENDSEC
  0
SECTION
  2
BLOCKS
  0
BLOCK
  5
20
330
1F
100
AcDbEntity
  8
0
100
AcDbBlockBegin
  2
*Model_Space
 70
     0
 71
     0
 10
0.0
 20
0.0
 30
0.0
  3
*Model_Space
  1

  0
ENDBLK
  5
21
330
1F
100
AcDbEntity
  8
0
100
AcDbBlockEnd
  0
BLOCK
  5
1C
330
1B
100
AcDbEntity
 67
     1
  8
0
100
AcDbBlockBegin
  2
*Paper_Space
 70
     0
 71
     0
 10
0.0
 20
0.0
 30
0.0
  3
*Paper_Space
  1

  0
ENDBLK
  5
1D
330
1B
100
AcDbEntity
 67
     1
  8
0
100
AcDbBlockEnd
  0
BLOCK
  5
24
330
23
100
AcDbEntity
  8
0
100
AcDbBlockBegin
  2
*Paper_Space0
 70
     0
 71
     0
 10
0.0
 20
0.0
 30
0.0
  3
*Paper_Space0
  1

  0
ENDBLK
  5
25
330
23
100
AcDbEntity
  8
0
100
AcDbBlockEnd
  0
ENDSEC
  0
SECTION
  2
ENTITIES
  0
SPLINE
  5
3C
330
1F
100
AcDbEntity
  8
Layer 1
370
     0
100
AcDbSpline
210
0.0
220
0.0
230
1.0
 70
    11
 71
     3
 72
   116
 73
   112
 74
     0
 42
0.0000000001
 43
0.0000000001
 40
0.0
 40
0.0
 40
0.0
 40
0.0
 40
1.0
 40
1.0
 40
1.0
 40
2.0
 40
2.0
 40
2.0
 40
3.0
 40
3.0
 40
3.0
 40
4.0
 40
4.0
 40
4.0
 40
5.0
 40
5.0
 40
5.0
 40
6.0
 40
6.0
 40
6.0
 40
7.0
 40
7.0
 40
7.0
 40
8.0
 40
8.0
 40
8.0
 40
9.0
 40
9.0
 40
9.0
 40
10.0
 40
10.0
 40
10.0
 40
11.0
 40
11.0
 40
11.0
 40
12.0
 40
12.0
 40
12.0
 40
13.0
 40
13.0
 40
13.0
 40
14.0
 40
14.0
 40
14.0
 40
15.0
 40
15.0
 40
15.0
 40
16.0
 40
16.0
 40
16.0
 40
17.0
 40
17.0
 40
17.0
 40
18.0
 40
18.0
 40
18.0
 40
19.0
 40
19.0
 40
19.0
 40
20.0
 40
20.0
 40
20.0
 40
21.0
 40
21.0
 40
21.0
 40
22.0
 40
22.0
 40
22.0
 40
23.0
 40
23.0
 40
23.0
 40
24.0
 40
24.0
 40
24.0
 40
25.0
 40
25.0
 40
25.0
 40
26.0
 40
26.0
 40
26.0
 40
27.0
 40
27.0
 40
27.0
 40
28.0
 40
28.0
 40
28.0
 40
29.0
 40
29.0
 40
29.0
 40
30.0
 40
30.0
 40
30.0
 40
31.0
 40
31.0
 40
31.0
 40
32.0
 40
32.0
 40
32.0
 40
33.0
 40
33.0
 40
33.0
 40
34.0
 40
34.0
 40
34.0
 40
35.0
 40
35.0
 40
35.0
 40
36.0
 40
36.0
 40
36.0
 40
37.0
 40
37.0
 40
37.0
 40
37.0
 10
361.5830078125
 20
239.091796875
 30
0.0
 10
362.119140625
 20
235.009765625
 30
0.0
 10
362.73828125
 20
229.25
 30
0.0
 10
362.43359375
 20
223.421875
 30
0.0
 10
362.263671875
 20
220.51171875
 30
0.0
 10
361.998046875
 20
217.15234375
 30
0.0
 10
360.6162109375
 20
214.525390625
 30
0.0
 10
359.8798828125
 20
213.2412109375
 30
0.0
 10
358.6318359375
 20
212.0009765625
 30
0.0
 10
357.5361328125
 20
212.265625
 30
0.0
 10
355.68359375
 20
212.234375
 30
0.0
 10
353.9453125
 20
213.744140625
 30
0.0
 10
351.890625
 20
215.365234375
 30
0.0
 10
349.369140625
 20
217.52734375
 30
0.0
 10
347.1650390625
 20
219.986328125
 30
0.0
 10
344.970703125
 20
222.7265625
 30
0.0
 10
347.39453125
 20
225.8662109375
 30
0.0
 10
349.5771484375
 20
229.18359375
 30
0.0
 10
351.5
 20
232.65234375
 30
0.0
 10
355.2265625
 20
239.2734375
 30
0.0
 10
358.201171875
 20
246.26611328125
 30
0.0
 10
360.58984375
 20
253.4091796875
 30
0.0
 10
364.01171875
 20
263.53125
 30
0.0
 10
366.607421875
 20
274.23779296875
 30
0.0
 10
366.654296875
 20
285.26611328125
 30
0.0
 10
366.73046875
 20
288.59619140625
 30
0.0
 10
366.474609375
 20
292.3681640625
 30
0.0
 10
364.89453125
 20
296.0908203125
 30
0.0
 10
363.8515625
 20
298.7900390625
 30
0.0
 10
361.25
 20
301.30712890625
 30
0.0
 10
357.5361328125
 20
301.3671875
 30
0.0
 10
353.556640625
 20
301.43115234375
 30
0.0
 10
350.5927734375
 20
299.2431640625
 30
0.0
 10
348.603515625
 20
297.39794921875
 30
0.0
 10
346.150390625
 20
295.3837890625
 30
0.0
 10
343.8662109375
 20
293.171875
 30
0.0
 10
341.775390625
 20
290.7841796875
 30
0.0
 10
341.220703125
 20
291.3701171875
 30
0.0
 10
340.654296875
 20
291.94287109375
 30
0.0
 10
340.0751953125
 20
292.50390625
 30
0.0
 10
334.8662109375
 20
297.673828125
 30
0.0
 10
327.7529296875
 20
301.68896484375
 30
0.0
 10
319.6650390625
 20
301.85498046875
 30
0.0
 10
319.6650390625
 20
301.85498046875
 30
0.0
 10
319.6650390625
 20
301.85791015625
 30
0.0
 10
319.6650390625
 20
301.85791015625
 30
0.0
 10
311.5771484375
 20
301.6650390625
 30
0.0
 10
304.494140625
 20
297.625
 30
0.0
 10
299.31201171875
 20
292.447265625
 30
0.0
 10
298.60498046875
 20
291.7548828125
 30
0.0
 10
297.9169921875
 20
291.0439453125
 30
0.0
 10
297.248046875
 20
290.31591796875
 30
0.0
 10
295.1611328125
 20
292.73486328125
 30
0.0
 10
292.873046875
 20
294.97607421875
 30
0.0
 10
290.4111328125
 20
297.01318359375
 30
0.0
 10
288.4267578125
 20
298.8271484375
 30
0.0
 10
285.57275390625
 20
300.94384765625
 30
0.0
 10
281.7939453125
 20
300.90185546875
 30
0.0
 10
278.328125
 20
300.85693359375
 30
0.0
 10
275.85595703125
 20
298.48291015625
 30
0.0
 10
274.8359375
 20
295.9130859375
 30
0.0
 10
273.27880859375
 20
292.2998046875
 30
0.0
 10
273.02197265625
 20
288.5810546875
 30
0.0
 10
273.0751953125
 20
285.26611328125
 30
0.0
 10
273.0751953125
 20
275.03515625
 30
0.0
 10
275.30419921875
 20
265.05419921875
 30
0.0
 10
278.33984375
 20
255.537109375
 30
0.0
 10
278.31787109375
 20
255.4990234375
 30
0.0
 10
278.31396484375
 20
255.4609375
 30
0.0
 10
278.3017578125
 20
255.423828125
 30
0.0
 10
274.9111328125
 20
245.26513671875
 30
0.0
 10
272.35302734375
 20
234.5048828125
 30
0.0
 10
272.341796875
 20
223.4228515625
 30
0.0
 10
272.27392578125
 20
220.08203125
 30
0.0
 10
272.55322265625
 20
216.265625
 30
0.0
 10
274.1708984375
 20
212.478515625
 30
0.0
 10
275.2451171875
 20
209.697265625
 30
0.0
 10
277.93603515625
 20
207.111328125
 30
0.0
 10
281.794921875
 20
207.0546875
 30
0.0
 10
285.88818359375
 20
206.9970703125
 30
0.0
 10
288.89306640625
 20
209.240234375
 30
0.0
 10
290.873046875
 20
211.107421875
 30
0.0
 10
293.52978515625
 20
213.314453125
 30
0.0
 10
295.990234375
 20
215.7509765625
 30
0.0
 10
298.22412109375
 20
218.3857421875
 30
0.0
 10
298.7421875
 20
217.8369140625
 30
0.0
 10
299.27099609375
 20
217.296875
 30
0.0
 10
299.81103515625
 20
216.767578125
 30
0.0
 10
304.9248046875
 20
211.685546875
 30
0.0
 10
311.8408203125
 20
207.7119140625
 30
0.0
 10
319.6650390625
 20
207.55859375
 30
0.0
 10
327.48828125
 20
207.685546875
 30
0.0
 10
334.435546875
 20
211.6318359375
 30
0.0
 10
339.5751953125
 20
216.7041015625
 30
0.0
 10
340.44140625
 20
217.53515625
 30
0.0
 10
341.26171875
 20
218.404296875
 30
0.0
 10
342.0625
 20
219.28515625
 30
0.0
 10
344.3720703125
 20
216.75390625
 30
0.0
 10
346.787109375
 20
214.42578125
 30
0.0
 10
349.484375
 20
212.384765625
 30
0.0
 10
351.630859375
 20
210.630859375
 30
0.0
 10
354.349609375
 20
209.025390625
 30
0.0
 10
357.5361328125
 20
209.005859375
 30
0.0
 10
360.416015625
 20
209.2734375
 30
0.0
 10
362.34765625
 20
211.27734375
 30
0.0
 10
363.140625
 20
213.390625
 30
0.0
 10
364.490234375
 20
216.83984375
 30
0.0
 10
364.4521484375
 20
220.45703125
 30
0.0
 10
364.27734375
 20
223.423828125
 30
0.0
 10
363.9638671875
 20
229.4921875
 30
0.0
 10
362.6484375
 20
235.1201171875
 30
0.0
 10
361.5830078125
 20
239.091796875
 30
0.0
  0
SPLINE
  5
3D
330
1F
100
AcDbEntity
  8
Layer 1
370
     0
100
AcDbSpline
210
0.0
220
0.0
230
1.0
 70
    11
 71
     3
 72
    29
 73
    25
 74
     0
 42
0.0000000001
 43
0.0000000001
 40
0.0
 40
0.0
 40
0.0
 40
0.0
 40
1.0
 40
1.0
 40
1.0
 40
2.0
 40
2.0
 40
2.0
 40
3.0
 40
3.0
 40
3.0
 40
4.0
 40
4.0
 40
4.0
 40
5.0
 40
5.0
 40
5.0
 40
6.0
 40
6.0
 40
6.0
 40
7.0
 40
7.0
 40
7.0
 40
8.0
 40
8.0
 40
8.0
 40
8.0
 10
304.5009765625
 20
287.05810546875
 30
0.0
 10
308.97216796875
 20
291.177734375
 30
0.0
 10
314.3427734375
 20
294.48486328125
 30
0.0
 10
319.6650390625
 20
294.2919921875
 30
0.0
 10
324.986328125
 20
294.4580078125
 30
0.0
 10
330.3232421875
 20
291.125
 30
0.0
 10
334.771484375
 20
286.9970703125
 30
0.0
 10
335.4970703125
 20
286.2978515625
 30
0.0
 10
336.193359375
 20
285.56103515625
 30
0.0
 10
336.8740234375
 20
284.80517578125
 30
0.0
 10
336.8740234375
 20
284.80517578125
 30
0.0
 10
336.0380859375
 20
283.72119140625
 30
0.0
 10
336.0380859375
 20
283.72119140625
 30
0.0
 10
330.0517578125
 20
275.96484375
 30
0.0
 10
324.6162109375
 20
267.89599609375
 30
0.0
 10
319.24609375
 20
259.8681640625
 30
0.0
 10
313.9921875
 20
267.7900390625
 30
0.0
 10
308.67822265625
 20
275.73388671875
 30
0.0
 10
302.8388671875
 20
283.369140625
 30
0.0
 10
302.8388671875
 20
283.369140625
 30
0.0
 10
302.0068359375
 20
284.45703125
 30
0.0
 10
302.0068359375
 20
284.45703125
 30
0.0
 10
302.8017578125
 20
285.35791015625
 30
0.0
 10
303.6337890625
 20
286.22607421875
 30
0.0
 10
304.5009765625
 20
287.05810546875
 30
0.0
  0
SPLINE
  5
3E
330
1F
100
AcDbEntity
  8
Layer 1
370
     0
100
AcDbSpline
210
0.0
220
0.0
230
1.0
 70
    11
 71
     3
 72
    29
 73
    25
 74
     0
 42
0.0000000001
 43
0.0000000001
 40
0.0
 40
0.0
 40
0.0
 40
0.0
 40
1.0
 40
1.0
 40
1.0
 40
2.0
 40
2.0
 40
2.0
 40
3.0
 40
3.0
 40
3.0
 40
4.0
 40
4.0
 40
4.0
 40
5.0
 40
5.0
 40
5.0
 40
6.0
 40
6.0
 40
6.0
 40
7.0
 40
7.0
 40
7.0
 40
8.0
 40
8.0
 40
8.0
 40
8.0
 10
280.05078125
 20
293.55908203125
 30
0.0
 10
280.458984375
 20
294.44287109375
 30
0.0
 10
280.9208984375
 20
295.23291015625
 30
0.0
 10
281.6201171875
 20
295.259765625
 30
0.0
 10
281.6201171875
 20
295.259765625
 30
0.0
 10
281.623046875
 20
295.259765625
 30
0.0
 10
281.623046875
 20
295.259765625
 30
0.0
 10
283.740234375
 20
295.3427734375
 30
0.0
 10
285.5009765625
 20
293.5439453125
 30
0.0
 10
286.85791015625
 20
292.5947265625
 30
0.0
 10
289.2841796875
 20
290.6669921875
 30
0.0
 10
291.47705078125
 20
288.384765625
 30
0.0
 10
293.58203125
 20
285.93212890625
 30
0.0
 10
291.27197265625
 20
282.8798828125
 30
0.0
 10
289.18798828125
 20
279.6640625
 30
0.0
 10
287.34619140625
 20
276.30908203125
 30
0.0
 10
285.27392578125
 20
272.5751953125
 30
0.0
 10
283.416015625
 20
268.72607421875
 30
0.0
 10
281.783203125
 20
264.78125
 30
0.0
 10
280.0068359375
 20
271.56201171875
 30
0.0
 10
278.8349609375
 20
278.41796875
 30
0.0
 10
278.8349609375
 20
285.26611328125
 30
0.0
 10
278.89501953125
 20
288.3837890625
 30
0.0
 10
278.962890625
 20
291.31298828125
 30
0.0
 10
280.05078125
 20
293.55908203125
 30
0.0
  0
SPLINE
  5
3F
330
1F
100
AcDbEntity
  8
Layer 1
370
     0
100
AcDbSpline
210
0.0
220
0.0
230
1.0
 70
    11
 71
     3
 72
    26
 73
    22
 74
     0
 42
0.0000000001
 43
0.0000000001
 40
0.0
 40
0.0
 40
0.0
 40
0.0
 40
1.0
 40
1.0
 40
1.0
 40
2.0
 40
2.0
 40
2.0
 40
3.0
 40
3.0
 40
3.0
 40
4.0
 40
4.0
 40
4.0
 40
5.0
 40
5.0
 40
5.0
 40
6.0
 40
6.0
 40
6.0
 40
7.0
 40
7.0
 40
7.0
 40
7.0
 10
286.43505859375
 20
216.619140625
 30
0.0
 10
285.158203125
 20
215.466796875
 30
0.0
 10
283.63818359375
 20
213.845703125
 30
0.0
 10
281.94091796875
 20
214.095703125
 30
0.0
 10
281.3359375
 20
214.181640625
 30
0.0
 10
281.041015625
 20
214.5478515625
 30
0.0
 10
280.6708984375
 20
215.4072265625
 30
0.0
 10
279.77490234375
 20
217.4892578125
 30
0.0
 10
279.5859375
 20
220.328125
 30
0.0
 10
279.51416015625
 20
223.4228515625
 30
0.0
 10
279.51416015625
 20
230.2978515625
 30
0.0
 10
280.7158203125
 20
237.1953125
 30
0.0
 10
282.51904296875
 20
244.033203125
 30
0.0
 10
284.1240234375
 20
240.166015625
 30
0.0
 10
285.94580078125
 20
236.39453125
 30
0.0
 10
287.97705078125
 20
232.732421875
 30
0.0
 10
289.6630859375
 20
229.693359375
 30
0.0
 10
291.541015625
 20
226.7119140625
 30
0.0
 10
293.64599609375
 20
223.8701171875
 30
0.0
 10
291.38623046875
 20
221.177734375
 30
0.0
 10
288.79296875
 20
218.740234375
 30
0.0
 10
286.43505859375
 20
216.619140625
 30
0.0
  0
SPLINE
  5
40
330
1F
100
AcDbEntity
  8
Layer 1
370
     0
100
AcDbSpline
210
0.0
220
0.0
230
1.0
 70
    11
 71
     3
 72
    26
 73
    22
 74
     0
 42
0.0000000001
 43
0.0000000001
 40
0.0
 40
0.0
 40
0.0
 40
0.0
 40
1.0
 40
1.0
 40
1.0
 40
2.0
 40
2.0
 40
2.0
 40
3.0
 40
3.0
 40
3.0
 40
4.0
 40
4.0
 40
4.0
 40
5.0
 40
5.0
 40
5.0
 40
6.0
 40
6.0
 40
6.0
 40
7.0
 40
7.0
 40
7.0
 40
7.0
 10
297.8681640625
 20
229.140625
 30
0.0
 10
297.8681640625
 20
229.140625
 30
0.0
 10
297.56494140625
 20
228.751953125
 30
0.0
 10
297.56494140625
 20
228.751953125
 30
0.0
 10
295.998046875
 20
230.982421875
 30
0.0
 10
294.5419921875
 20
233.291015625
 30
0.0
 10
293.2041015625
 20
235.66796875
 30
0.0
 10
290.0478515625
 20
241.26220703125
 30
0.0
 10
287.458984375
 20
247.19482421875
 30
0.0
 10
285.296875
 20
253.30712890625
 30
0.0
 10
287.56494140625
 20
260.0419921875
 30
0.0
 10
290.3427734375
 20
266.5732421875
 30
0.0
 10
293.796875
 20
272.69189453125
 30
0.0
 10
295.22607421875
 20
275.208984375
 30
0.0
 10
296.7529296875
 20
277.64990234375
 30
0.0
 10
298.408203125
 20
279.9560546875
 30
0.0
 10
304.5908203125
 20
271.94677734375
 30
0.0
 10
310.2529296875
 20
263.4658203125
 30
0.0
 10
315.9521484375
 20
254.94677734375
 30
0.0
 10
310.05712890625
 20
246.14501953125
 30
0.0
 10
304.240234375
 20
237.3837890625
 30
0.0
 10
297.8681640625
 20
229.140625
 30
0.0
  0
SPLINE
  5
41
330
1F
100
AcDbEntity
  8
Layer 1
370
     0
100
AcDbSpline
210
0.0
220
0.0
230
1.0
 70
    11
 71
     3
 72
    32
 73
    28
 74
     0
 42
0.0000000001
 43
0.0000000001
 40
0.0
 40
0.0
 40
0.0
 40
0.0
 40
1.0
 40
1.0
 40
1.0
 40
2.0
 40
2.0
 40
2.0
 40
3.0
 40
3.0
 40
3.0
 40
4.0
 40
4.0
 40
4.0
 40
5.0
 40
5.0
 40
5.0
 40
6.0
 40
6.0
 40
6.0
 40
7.0
 40
7.0
 40
7.0
 40
8.0
 40
8.0
 40
8.0
 40
9.0
 40
9.0
 40
9.0
 40
9.0
 10
335.244140625
 20
221.2001953125
 30
0.0
 10
330.73046875
 20
216.974609375
 30
0.0
 10
325.23828125
 20
213.580078125
 30
0.0
 10
319.6640625
 20
213.712890625
 30
0.0
 10
314.0888671875
 20
213.55078125
 30
0.0
 10
308.56689453125
 20
216.92578125
 30
0.0
 10
304.02392578125
 20
221.140625
 30
0.0
 10
303.35595703125
 20
221.7822265625
 30
0.0
 10
302.7080078125
 20
222.4453125
 30
0.0
 10
302.0810546875
 20
223.126953125
 30
0.0
 10
302.53515625
 20
223.708984375
 30
0.0
 10
302.97705078125
 20
224.291015625
 30
0.0
 10
303.4189453125
 20
224.873046875
 30
0.0
 10
309.36376953125
 20
232.64453125
 30
0.0
 10
314.7578125
 20
240.72509765625
 30
0.0
 10
320.0869140625
 20
248.76416015625
 30
0.0
 10
320.0869140625
 20
248.76416015625
 30
0.0
 10
321.4169921875
 20
246.77587890625
 30
0.0
 10
321.4169921875
 20
246.77587890625
 30
0.0
 10
326.576171875
 20
239.083984375
 30
0.0
 10
331.478515625
 20
232.123046875
 30
0.0
 10
336.7734375
 20
225.53515625
 30
0.0
 10
336.7734375
 20
225.53515625
 30
0.0
 10
337.9599609375
 20
224.068359375
 30
0.0
 10
337.9599609375
 20
224.068359375
 30
0.0
 10
337.09765625
 20
223.0732421875
 30
0.0
 10
336.189453125
 20
222.1162109375
 30
0.0
 10
335.244140625
 20
221.2001953125
 30
0.0
  0
SPLINE
  5
42
330
1F
100
AcDbEntity
  8
Layer 1
370
     0
100
AcDbSpline
210
0.0
220
0.0
230
1.0
 70
    11
 71
     3
 72
    59
 73
    55
 74
     0
 42
0.0000000001
 43
0.0000000001
 40
0.0
 40
0.0
 40
0.0
 40
0.0
 40
1.0
 40
1.0
 40
1.0
 40
2.0
 40
2.0
 40
2.0
 40
3.0
 40
3.0
 40
3.0
 40
4.0
 40
4.0
 40
4.0
 40
5.0
 40
5.0
 40
5.0
 40
6.0
 40
6.0
 40
6.0
 40
7.0
 40
7.0
 40
7.0
 40
8.0
 40
8.0
 40
8.0
 40
9.0
 40
9.0
 40
9.0
 40
10.0
 40
10.0
 40
10.0
 40
11.0
 40
11.0
 40
11.0
 40
12.0
 40
12.0
 40
12.0
 40
13.0
 40
13.0
 40
13.0
 40
14.0
 40
14.0
 40
14.0
 40
15.0
 40
15.0
 40
15.0
 40
16.0
 40
16.0
 40
16.0
 40
17.0
 40
17.0
 40
17.0
 40
18.0
 40
18.0
 40
18.0
 40
18.0
 10
341.015625
 20
227.900390625
 30
0.0
 10
341.015625
 20
227.900390625
 30
0.0
 10
340.587890625
 20
228.466796875
 30
0.0
 10
340.587890625
 20
228.466796875
 30
0.0
 10
335.599609375
 20
235.236328125
 30
0.0
 10
331.078125
 20
242.03515625
 30
0.0
 10
325.83984375
 20
249.919921875
 30
0.0
 10
325.83984375
 20
249.919921875
 30
0.0
 10
323.349609375
 20
253.6767578125
 30
0.0
 10
323.349609375
 20
253.6767578125
 30
0.0
 10
329.1591796875
 20
262.43408203125
 30
0.0
 10
334.892578125
 20
271.14990234375
 30
0.0
 10
341.169921875
 20
279.3662109375
 30
0.0
 10
343.01953125
 20
276.69580078125
 30
0.0
 10
344.7109375
 20
273.919921875
 30
0.0
 10
346.234375
 20
271.05078125
 30
0.0
 10
347.0810546875
 20
269.81494140625
 30
0.0
 10
348.32421875
 20
269.18017578125
 30
0.0
 10
349.529296875
 20
269.2138671875
 30
0.0
 10
351.654296875
 20
269.2099609375
 30
0.0
 10
353.380859375
 20
270.92919921875
 30
0.0
 10
353.3837890625
 20
273.05419921875
 30
0.0
 10
353.3837890625
 20
273.05419921875
 30
0.0
 10
353.3837890625
 20
273.06494140625
 30
0.0
 10
353.3837890625
 20
273.06494140625
 30
0.0
 10
353.353515625
 20
273.64794921875
 30
0.0
 10
353.23046875
 20
274.22119140625
 30
0.0
 10
353.021484375
 20
274.76611328125
 30
0.0
 10
352.76171875
 20
275.322265625
 30
0.0
 10
352.431640625
 20
275.84716796875
 30
0.0
 10
352.1298828125
 20
276.3798828125
 30
0.0
 10
350.3515625
 20
279.5849609375
 30
0.0
 10
348.353515625
 20
282.6640625
 30
0.0
 10
346.150390625
 20
285.59375
 30
0.0
 10
348.23046875
 20
288.0390625
 30
0.0
 10
350.853515625
 20
290.791015625
 30
0.0
 10
352.73828125
 20
292.3740234375
 30
0.0
 10
354.515625
 20
293.87109375
 30
0.0
 10
355.7470703125
 20
295.1220703125
 30
0.0
 10
357.5078125
 20
294.8271484375
 30
0.0
 10
358.166015625
 20
294.712890625
 30
0.0
 10
358.5625
 20
293.8779296875
 30
0.0
 10
358.888671875
 20
293.3828125
 30
0.0
 10
359.9541015625
 20
291.244140625
 30
0.0
 10
360.029296875
 20
288.37109375
 30
0.0
 10
360.10546875
 20
285.26416015625
 30
0.0
 10
360.154296875
 20
275.2861328125
 30
0.0
 10
357.712890625
 20
265.244140625
 30
0.0
 10
354.5009765625
 20
255.43212890625
 30
0.0
 10
352.2451171875
 20
248.59912109375
 30
0.0
 10
349.462890625
 20
241.9619140625
 30
0.0
 10
345.984375
 20
235.7421875
 30
0.0
 10
344.4580078125
 20
233.021484375
 30
0.0
 10
342.818359375
 20
230.380859375
 30
0.0
 10
341.015625
 20
227.900390625
 30
0.0
  0
HATCH
  5
43
330
1F
100
AcDbEntity
  8
Layer 1
 62
     7
420
 16777215
100
AcDbHatch
 10
0.0
 20
0.0
 30
0.0
210
0.0
220
0.0
230
1.0
  2
SOLID
 70
     1
 71
     0
 91
        7
 92
        1
 93
        1
 72
     4
 94
        3
 73
     0
 74
     1
 95
      116
 96
      112
 40
0.0
 40
0.0
 40
0.0
 40
0.0
 40
1.0
 40
1.0
 40
1.0
 40
2.0
 40
2.0
 40
2.0
 40
3.0
 40
3.0
 40
3.0
 40
4.0
 40
4.0
 40
4.0
 40
5.0
 40
5.0
 40
5.0
 40
6.0
 40
6.0
 40
6.0
 40
7.0
 40
7.0
 40
7.0
 40
8.0
 40
8.0
 40
8.0
 40
9.0
 40
9.0
 40
9.0
 40
10.0
 40
10.0
 40
10.0
 40
11.0
 40
11.0
 40
11.0
 40
12.0
 40
12.0
 40
12.0
 40
13.0
 40
13.0
 40
13.0
 40
14.0
 40
14.0
 40
14.0
 40
15.0
 40
15.0
 40
15.0
 40
16.0
 40
16.0
 40
16.0
 40
17.0
 40
17.0
 40
17.0
 40
18.0
 40
18.0
 40
18.0
 40
19.0
 40
19.0
 40
19.0
 40
20.0
 40
20.0
 40
20.0
 40
21.0
 40
21.0
 40
21.0
 40
22.0
 40
22.0
 40
22.0
 40
23.0
 40
23.0
 40
23.0
 40
24.0
 40
24.0
 40
24.0
 40
25.0
 40
25.0
 40
25.0
 40
26.0
 40
26.0
 40
26.0
 40
27.0
 40
27.0
 40
27.0
 40
28.0
 40
28.0
 40
28.0
 40
29.0
 40
29.0
 40
29.0
 40
30.0
 40
30.0
 40
30.0
 40
31.0
 40
31.0
 40
31.0
 40
32.0
 40
32.0
 40
32.0
 40
33.0
 40
33.0
 40
33.0
 40
34.0
 40
34.0
 40
34.0
 40
35.0
 40
35.0
 40
35.0
 40
36.0
 40
36.0
 40
36.0
 40
37.0
 40
37.0
 40
37.0
 40
37.0
 10
361.5830078125
 20
239.091796875
 10
362.119140625
 20
235.009765625
 10
362.73828125
 20
229.25
 10
362.43359375
 20
223.421875
 10
362.263671875
 20
220.51171875
 10
361.998046875
 20
217.15234375
 10
360.6162109375
 20
214.525390625
 10
359.8798828125
 20
213.2412109375
 10
358.6318359375
 20
212.0009765625
 10
357.5361328125
 20
212.265625
 10
355.68359375
 20
212.234375
 10
353.9453125
 20
213.744140625
 10
351.890625
 20
215.365234375
 10
349.369140625
 20
217.52734375
 10
347.1650390625
 20
219.986328125
 10
344.970703125
 20
222.7265625
 10
347.39453125
 20
225.8662109375
 10
349.5771484375
 20
229.18359375
 10
351.5
 20
232.65234375
 10
355.2265625
 20
239.2734375
 10
358.201171875
 20
246.26611328125
 10
360.58984375
 20
253.4091796875
 10
364.01171875
 20
263.53125
 10
366.607421875
 20
274.23779296875
 10
366.654296875
 20
285.26611328125
 10
366.73046875
 20
288.59619140625
 10
366.474609375
 20
292.3681640625
 10
364.89453125
 20
296.0908203125
 10
363.8515625
 20
298.7900390625
 10
361.25
 20
301.30712890625
 10
357.5361328125
 20
301.3671875
 10
353.556640625
 20
301.43115234375
 10
350.5927734375
 20
299.2431640625
 10
348.603515625
 20
297.39794921875
 10
346.150390625
 20
295.3837890625
 10
343.8662109375
 20
293.171875
 10
341.775390625
 20
290.7841796875
 10
341.220703125
 20
291.3701171875
 10
340.654296875
 20
291.94287109375
 10
340.0751953125
 20
292.50390625
 10
334.8662109375
 20
297.673828125
 10
327.7529296875
 20
301.68896484375
 10
319.6650390625
 20
301.85498046875
 10
319.6650390625
 20
301.85498046875
 10
319.6650390625
 20
301.85791015625
 10
319.6650390625
 20
301.85791015625
 10
311.5771484375
 20
301.6650390625
 10
304.494140625
 20
297.625
 10
299.31201171875
 20
292.447265625
 10
298.60498046875
 20
291.7548828125
 10
297.9169921875
 20
291.0439453125
 10
297.248046875
 20
290.31591796875
 10
295.1611328125
 20
292.73486328125
 10
292.873046875
 20
294.97607421875
 10
290.4111328125
 20
297.01318359375
 10
288.4267578125
 20
298.8271484375
 10
285.57275390625
 20
300.94384765625
 10
281.7939453125
 20
300.90185546875
 10
278.328125
 20
300.85693359375
 10
275.85595703125
 20
298.48291015625
 10
274.8359375
 20
295.9130859375
 10
273.27880859375
 20
292.2998046875
 10
273.02197265625
 20
288.5810546875
 10
273.0751953125
 20
285.26611328125
 10
273.0751953125
 20
275.03515625
 10
275.30419921875
 20
265.05419921875
 10
278.33984375
 20
255.537109375
 10
278.31787109375
 20
255.4990234375
 10
278.31396484375
 20
255.4609375
 10
278.3017578125
 20
255.423828125
 10
274.9111328125
 20
245.26513671875
 10
272.35302734375
 20
234.5048828125
 10
272.341796875
 20
223.4228515625
 10
272.27392578125
 20
220.08203125
 10
272.55322265625
 20
216.265625
 10
274.1708984375
 20
212.478515625
 10
275.2451171875
 20
209.697265625
 10
277.93603515625
 20
207.111328125
 10
281.794921875
 20
207.0546875
 10
285.88818359375
 20
206.9970703125
 10
288.89306640625
 20
209.240234375
 10
290.873046875
 20
211.107421875
 10
293.52978515625
 20
213.314453125
 10
295.990234375
 20
215.7509765625
 10
298.22412109375
 20
218.3857421875
 10
298.7421875
 20
217.8369140625
 10
299.27099609375
 20
217.296875
 10
299.81103515625
 20
216.767578125
 10
304.9248046875
 20
211.685546875
 10
311.8408203125
 20
207.7119140625
 10
319.6650390625
 20
207.55859375
 10
327.48828125
 20
207.685546875
 10
334.435546875
 20
211.6318359375
 10
339.5751953125
 20
216.7041015625
 10
340.44140625
 20
217.53515625
 10
341.26171875
 20
218.404296875
 10
342.0625
 20
219.28515625
 10
344.3720703125
 20
216.75390625
 10
346.787109375
 20
214.42578125
 10
349.484375
 20
212.384765625
 10
351.630859375
 20
210.630859375
 10
354.349609375
 20
209.025390625
 10
357.5361328125
 20
209.005859375
 10
360.416015625
 20
209.2734375
 10
362.34765625
 20
211.27734375
 10
363.140625
 20
213.390625
 10
364.490234375
 20
216.83984375
 10
364.4521484375
 20
220.45703125
 10
364.27734375
 20
223.423828125
 10
363.9638671875
 20
229.4921875
 10
362.6484375
 20
235.1201171875
 10
361.5830078125
 20
239.091796875
 97
        0
 92
        1
 93
        1
 72
     4
 94
        3
 73
     0
 74
     1
 95
       29
 96
       25
 40
0.0
 40
0.0
 40
0.0
 40
0.0
 40
1.0
 40
1.0
 40
1.0
 40
2.0
 40
2.0
 40
2.0
 40
3.0
 40
3.0
 40
3.0
 40
4.0
 40
4.0
 40
4.0
 40
5.0
 40
5.0
 40
5.0
 40
6.0
 40
6.0
 40
6.0
 40
7.0
 40
7.0
 40
7.0
 40
8.0
 40
8.0
 40
8.0
 40
8.0
 10
304.5009765625
 20
287.05810546875
 10
308.97216796875
 20
291.177734375
 10
314.3427734375
 20
294.48486328125
 10
319.6650390625
 20
294.2919921875
 10
324.986328125
 20
294.4580078125
 10
330.3232421875
 20
291.125
 10
334.771484375
 20
286.9970703125
 10
335.4970703125
 20
286.2978515625
 10
336.193359375
 20
285.56103515625
 10
336.8740234375
 20
284.80517578125
 10
336.8740234375
 20
284.80517578125
 10
336.0380859375
 20
283.72119140625
 10
336.0380859375
 20
283.72119140625
 10
330.0517578125
 20
275.96484375
 10
324.6162109375
 20
267.89599609375
 10
319.24609375
 20
259.8681640625
 10
313.9921875
 20
267.7900390625
 10
308.67822265625
 20
275.73388671875
 10
302.8388671875
 20
283.369140625
 10
302.8388671875
 20
283.369140625
 10
302.0068359375
 20
284.45703125
 10
302.0068359375
 20
284.45703125
 10
302.8017578125
 20
285.35791015625
 10
303.6337890625
 20
286.22607421875
 10
304.5009765625
 20
287.05810546875
 97
        0
 92
        1
 93
        1
 72
     4
 94
        3
 73
     0
 74
     1
 95
       29
 96
       25
 40
0.0
 40
0.0
 40
0.0
 40
0.0
 40
1.0
 40
1.0
 40
1.0
 40
2.0
 40
2.0
 40
2.0
 40
3.0
 40
3.0
 40
3.0
 40
4.0
 40
4.0
 40
4.0
 40
5.0
 40
5.0
 40
5.0
 40
6.0
 40
6.0
 40
6.0
 40
7.0
 40
7.0
 40
7.0
 40
8.0
 40
8.0
 40
8.0
 40
8.0
 10
280.05078125
 20
293.55908203125
 10
280.458984375
 20
294.44287109375
 10
280.9208984375
 20
295.23291015625
 10
281.6201171875
 20
295.259765625
 10
281.6201171875
 20
295.259765625
 10
281.623046875
 20
295.259765625
 10
281.623046875
 20
295.259765625
 10
283.740234375
 20
295.3427734375
 10
285.5009765625
 20
293.5439453125
 10
286.85791015625
 20
292.5947265625
 10
289.2841796875
 20
290.6669921875
 10
291.47705078125
 20
288.384765625
 10
293.58203125
 20
285.93212890625
 10
291.27197265625
 20
282.8798828125
 10
289.18798828125
 20
279.6640625
 10
287.34619140625
 20
276.30908203125
 10
285.27392578125
 20
272.5751953125
 10
283.416015625
 20
268.72607421875
 10
281.783203125
 20
264.78125
 10
280.0068359375
 20
271.56201171875
 10
278.8349609375
 20
278.41796875
 10
278.8349609375
 20
285.26611328125
 10
278.89501953125
 20
288.3837890625
 10
278.962890625
 20
291.31298828125
 10
280.05078125
 20
293.55908203125
 97
        0
 92
        1
 93
        1
 72
     4
 94
        3
 73
     0
 74
     1
 95
       26
 96
       22
 40
0.0
 40
0.0
 40
0.0
 40
0.0
 40
1.0
 40
1.0
 40
1.0
 40
2.0
 40
2.0
 40
2.0
 40
3.0
 40
3.0
 40
3.0
 40
4.0
 40
4.0
 40
4.0
 40
5.0
 40
5.0
 40
5.0
 40
6.0
 40
6.0
 40
6.0
 40
7.0
 40
7.0
 40
7.0
 40
7.0
 10
286.43505859375
 20
216.619140625
 10
285.158203125
 20
215.466796875
 10
283.63818359375
 20
213.845703125
 10
281.94091796875
 20
214.095703125
 10
281.3359375
 20
214.181640625
 10
281.041015625
 20
214.5478515625
 10
280.6708984375
 20
215.4072265625
 10
279.77490234375
 20
217.4892578125
 10
279.5859375
 20
220.328125
 10
279.51416015625
 20
223.4228515625
 10
279.51416015625
 20
230.2978515625
 10
280.7158203125
 20
237.1953125
 10
282.51904296875
 20
244.033203125
 10
284.1240234375
 20
240.166015625
 10
285.94580078125
 20
236.39453125
 10
287.97705078125
 20
232.732421875
 10
289.6630859375
 20
229.693359375
 10
291.541015625
 20
226.7119140625
 10
293.64599609375
 20
223.8701171875
 10
291.38623046875
 20
221.177734375
 10
288.79296875
 20
218.740234375
 10
286.43505859375
 20
216.619140625
 97
        0
 92
        1
 93
        1
 72
     4
 94
        3
 73
     0
 74
     1
 95
       26
 96
       22
 40
0.0
 40
0.0
 40
0.0
 40
0.0
 40
1.0
 40
1.0
 40
1.0
 40
2.0
 40
2.0
 40
2.0
 40
3.0
 40
3.0
 40
3.0
 40
4.0
 40
4.0
 40
4.0
 40
5.0
 40
5.0
 40
5.0
 40
6.0
 40
6.0
 40
6.0
 40
7.0
 40
7.0
 40
7.0
 40
7.0
 10
297.8681640625
 20
229.140625
 10
297.8681640625
 20
229.140625
 10
297.56494140625
 20
228.751953125
 10
297.56494140625
 20
228.751953125
 10
295.998046875
 20
230.982421875
 10
294.5419921875
 20
233.291015625
 10
293.2041015625
 20
235.66796875
 10
290.0478515625
 20
241.26220703125
 10
287.458984375
 20
247.19482421875
 10
285.296875
 20
253.30712890625
 10
287.56494140625
 20
260.0419921875
 10
290.3427734375
 20
266.5732421875
 10
293.796875
 20
272.69189453125
 10
295.22607421875
 20
275.208984375
 10
296.7529296875
 20
277.64990234375
 10
298.408203125
 20
279.9560546875
 10
304.5908203125
 20
271.94677734375
 10
310.2529296875
 20
263.4658203125
 10
315.9521484375
 20
254.94677734375
 10
310.05712890625
 20
246.14501953125
 10
304.240234375
 20
237.3837890625
 10
297.8681640625
 20
229.140625
 97
        0
 92
        1
 93
        1
 72
     4
 94
        3
 73
     0
 74
     1
 95
       32
 96
       28
 40
0.0
 40
0.0
 40
0.0
 40
0.0
 40
1.0
 40
1.0
 40
1.0
 40
2.0
 40
2.0
 40
2.0
 40
3.0
 40
3.0
 40
3.0
 40
4.0
 40
4.0
 40
4.0
 40
5.0
 40
5.0
 40
5.0
 40
6.0
 40
6.0
 40
6.0
 40
7.0
 40
7.0
 40
7.0
 40
8.0
 40
8.0
 40
8.0
 40
9.0
 40
9.0
 40
9.0
 40
9.0
 10
335.244140625
 20
221.2001953125
 10
330.73046875
 20
216.974609375
 10
325.23828125
 20
213.580078125
 10
319.6640625
 20
213.712890625
 10
314.0888671875
 20
213.55078125
 10
308.56689453125
 20
216.92578125
 10
304.02392578125
 20
221.140625
 10
303.35595703125
 20
221.7822265625
 10
302.7080078125
 20
222.4453125
 10
302.0810546875
 20
223.126953125
 10
302.53515625
 20
223.708984375
 10
302.97705078125
 20
224.291015625
 10
303.4189453125
 20
224.873046875
 10
309.36376953125
 20
232.64453125
 10
314.7578125
 20
240.72509765625
 10
320.0869140625
 20
248.76416015625
 10
320.0869140625
 20
248.76416015625
 10
321.4169921875
 20
246.77587890625
 10
321.4169921875
 20
246.77587890625
 10
326.576171875
 20
239.083984375
 10
331.478515625
 20
232.123046875
 10
336.7734375
 20
225.53515625
 10
336.7734375
 20
225.53515625
 10
337.9599609375
 20
224.068359375
 10
337.9599609375
 20
224.068359375
 10
337.09765625
 20
223.0732421875
 10
336.189453125
 20
222.1162109375
 10
335.244140625
 20
221.2001953125
 97
        0
 92
        1
 93
        1
 72
     4
 94
        3
 73
     0
 74
     1
 95
       59
 96
       55
 40
0.0
 40
0.0
 40
0.0
 40
0.0
 40
1.0
 40
1.0
 40
1.0
 40
2.0
 40
2.0
 40
2.0
 40
3.0
 40
3.0
 40
3.0
 40
4.0
 40
4.0
 40
4.0
 40
5.0
 40
5.0
 40
5.0
 40
6.0
 40
6.0
 40
6.0
 40
7.0
 40
7.0
 40
7.0
 40
8.0
 40
8.0
 40
8.0
 40
9.0
 40
9.0
 40
9.0
 40
10.0
 40
10.0
 40
10.0
 40
11.0
 40
11.0
 40
11.0
 40
12.0
 40
12.0
 40
12.0
 40
13.0
 40
13.0
 40
13.0
 40
14.0
 40
14.0
 40
14.0
 40
15.0
 40
15.0
 40
15.0
 40
16.0
 40
16.0
 40
16.0
 40
17.0
 40
17.0
 40
17.0
 40
18.0
 40
18.0
 40
18.0
 40
18.0
 10
341.015625
 20
227.900390625
 10
341.015625
 20
227.900390625
 10
340.587890625
 20
228.466796875
 10
340.587890625
 20
228.466796875
 10
335.599609375
 20
235.236328125
 10
331.078125
 20
242.03515625
 10
325.83984375
 20
249.919921875
 10
325.83984375
 20
249.919921875
 10
323.349609375
 20
253.6767578125
 10
323.349609375
 20
253.6767578125
 10
329.1591796875
 20
262.43408203125
 10
334.892578125
 20
271.14990234375
 10
341.169921875
 20
279.3662109375
 10
343.01953125
 20
276.69580078125
 10
344.7109375
 20
273.919921875
 10
346.234375
 20
271.05078125
 10
347.0810546875
 20
269.81494140625
 10
348.32421875
 20
269.18017578125
 10
349.529296875
 20
269.2138671875
 10
351.654296875
 20
269.2099609375
 10
353.380859375
 20
270.92919921875
 10
353.3837890625
 20
273.05419921875
 10
353.3837890625
 20
273.05419921875
 10
353.3837890625
 20
273.06494140625
 10
353.3837890625
 20
273.06494140625
 10
353.353515625
 20
273.64794921875
 10
353.23046875
 20
274.22119140625
 10
353.021484375
 20
274.76611328125
 10
352.76171875
 20
275.322265625
 10
352.431640625
 20
275.84716796875
 10
352.1298828125
 20
276.3798828125
 10
350.3515625
 20
279.5849609375
 10
348.353515625
 20
282.6640625
 10
346.150390625
 20
285.59375
 10
348.23046875
 20
288.0390625
 10
350.853515625
 20
290.791015625
 10
352.73828125
 20
292.3740234375
 10
354.515625
 20
293.87109375
 10
355.7470703125
 20
295.1220703125
 10
357.5078125
 20
294.8271484375
 10
358.166015625
 20
294.712890625
 10
358.5625
 20
293.8779296875
 10
358.888671875
 20
293.3828125
 10
359.9541015625
 20
291.244140625
 10
360.029296875
 20
288.37109375
 10
360.10546875
 20
285.26416015625
 10
360.154296875
 20
275.2861328125
 10
357.712890625
 20
265.244140625
 10
354.5009765625
 20
255.43212890625
 10
352.2451171875
 20
248.59912109375
 10
349.462890625
 20
241.9619140625
 10
345.984375
 20
235.7421875
 10
344.4580078125
 20
233.021484375
 10
342.818359375
 20
230.380859375
 10
341.015625
 20
227.900390625
 97
        0
 75
     2
 76
     1
 98
        0
  0
ENDSEC
  0
SECTION
  2
OBJECTS
  0
DICTIONARY
  5
C
330
0
100
AcDbDictionary
281
     1
  3
ACAD_GROUP
350
D
  3
ACAD_LAYOUT
350
1A
  3
ACAD_MLINESTYLE
350
17
  3
ACAD_PLOTSETTINGS
350
19
  3
ACAD_PLOTSTYLENAME
350
E
  3
ACAD_TABLESTYLE
350
44
  3
ACAD_VISUALSTYLE
350
2A
  0
DICTIONARY
  5
D
102
{ACAD_REACTORS
330
C
102
}
330
C
100
AcDbDictionary
281
     1
  0
DICTIONARY
  5
1A
102
{ACAD_REACTORS
330
C
102
}
330
C
100
AcDbDictionary
281
     1
  3
Layout1
350
1E
  3
Layout2
350
26
  3
Model
350
22
  0
DICTIONARY
  5
17
102
{ACAD_REACTORS
330
C
102
}
330
C
100
AcDbDictionary
281
     1
  3
Standard
350
18
  0
DICTIONARY
  5
19
102
{ACAD_REACTORS
330
C
102
}
330
C
100
AcDbDictionary
281
     1
  0
ACDBDICTIONARYWDFLT
  5
E
102
{ACAD_REACTORS
330
C
102
}
330
C
100
AcDbDictionary
281
     1
  3
Normal
350
F
100
AcDbDictionaryWithDefault
340
F
  0
DICTIONARY
  5
44
102
{ACAD_REACTORS
330
C
102
}
330
C
100
AcDbDictionary
281
     1
  0
DICTIONARY
  5
2A
102
{ACAD_REACTORS
330
C
102
}
330
C
100
AcDbDictionary
281
     1
  3
2dWireframe
350
2F
  3
3D Hidden
350
31
  3
3dWireframe
350
30
  3
Basic
350
32
  3
Brighten
350
36
  3
ColorChange
350
3A
  3
Conceptual
350
34
  3
Dim
350
35
  3
Facepattern
350
39
  3
Flat
350
2B
  3
FlatWithEdges
350
2C
  3
Gouraud
350
2D
  3
GouraudWithEdges
350
2E
  3
Linepattern
350
38
  3
Realistic
350
33
  3
Thicken
350
37
  0
LAYOUT
  5
1E
102
{ACAD_REACTORS
330
1A
102
}
330
1A
100
AcDbPlotSettings
  1

  2
none_device
  4

  6

 40
0.0
 41
0.0
 42
0.0
 43
0.0
 44
0.0
 45
0.0
 46
0.0
 47
0.0
 48
0.0
 49
0.0
140
0.0
141
0.0
142
1.0
143
1.0
 70
   688
 72
     0
 73
     0
 74
     5
  7

 75
    16
 76
     0
 77
     2
 78
   300
147
1.0
148
0.0
149
0.0
100
AcDbLayout
  1
Layout1
 70
     1
 71
     1
 10
0.0
 20
0.0
 11
12.0
 21
9.0
 12
0.0
 22
0.0
 32
0.0
 14
1.000000000000000E+20
 24
1.000000000000000E+20
 34
1.000000000000000E+20
 15
-1.000000000000000E+20
 25
-1.000000000000000E+20
 35
-1.000000000000000E+20
146
0.0
 13
0.0
 23
0.0
 33
0.0
 16
1.0
 26
0.0
 36
0.0
 17
0.0
 27
1.0
 37
0.0
 76
     0
330
1B
  0
LAYOUT
  5
26
102
{ACAD_REACTORS
330
1A
102
}
330
1A
100
AcDbPlotSettings
  1

  2
none_device
  4

  6

 40
0.0
 41
0.0
 42
0.0
 43
0.0
 44
0.0
 45
0.0
 46
0.0
 47
0.0
 48
0.0
 49
0.0
140
0.0
141
0.0
142
1.0
143
1.0
 70
   688
 72
     0
 73
     0
 74
     5
  7

 75
    16
 76
     0
 77
     2
 78
   300
147
1.0
148
0.0
149
0.0
100
AcDbLayout
  1
Layout2
 70
     1
 71
     2
 10
0.0
 20
0.0
 11
0.0
 21
0.0
 12
0.0
 22
0.0
 32
0.0
 14
0.0
 24
0.0
 34
0.0
 15
0.0
 25
0.0
 35
0.0
146
0.0
 13
0.0
 23
0.0
 33
0.0
 16
1.0
 26
0.0
 36
0.0
 17
0.0
 27
1.0
 37
0.0
 76
     0
330
23
  0
LAYOUT
  5
22
102
{ACAD_REACTORS
330
1A
102
}
330
1A
100
AcDbPlotSettings
  1

  2
none_device
  4

  6

 40
0.0
 41
0.0
 42
0.0
 43
0.0
 44
0.0
 45
0.0
 46
0.0
 47
0.0
 48
0.0
 49
0.0
140
0.0
141
0.0
142
1.0
143
1.0
 70
  1712
 72
     0
 73
     0
 74
     0
  7

 75
     0
 76
     0
 77
     2
 78
   300
147
1.0
148
0.0
149
0.0
100
AcDbLayout
  1
Model
 70
     1
 71
     0
 10
0.0
 20
0.0
 11
12.0
 21
9.0
 12
0.0
 22
0.0
 32
0.0
 14
1.000000000000000E+20
 24
1.000000000000000E+20
 34
1.000000000000000E+20
 15
-1.000000000000000E+20
 25
-1.000000000000000E+20
 35
-1.000000000000000E+20
146
0.0
 13
0.0
 23
0.0
 33
0.0
 16
1.0
 26
0.0
 36
0.0
 17
0.0
 27
1.0
 37
0.0
 76
     0
330
1F
331
29
  0
MLINESTYLE
  5
18
102
{ACAD_REACTORS
330
17
102
}
330
17
100
AcDbMlineStyle
  2
Standard
 70
     0
  3

 62
   256
 51
90.0
 52
90.0
 71
     2
 49
0.5
 62
   256
  6
BYLAYER
 49
-0.5
 62
   256
  6
BYLAYER
  0
ACDBPLACEHOLDER
  5
F
102
{ACAD_REACTORS
330
E
102
}
330
E
  0
VISUALSTYLE
  5
2F
102
{ACAD_REACTORS
330
2A
102
}
330
2A
100
AcDbVisualStyle
  2
2dWireframe
 70
     4
 71
     0
 72
     2
 73
     0
 90
        0
 40
-0.6
 41
-30.0
 62
     5
 63
     7
421
 16777215
 74
     1
 91
        4
 64
     7
 65
   257
 75
     1
175
     1
 42
1.0
 92
        0
 66
   257
 43
1.0
 76
     1
 77
     6
 78
     2
 67
     7
 79
     5
170
     0
171
     0
290
     0
174
     0
 93
        1
 44
0.0
173
     0
291
     0
 45
0.0
1001
ACAD
1000
AcDbSavedByObjectVersion
1070
     0
  0
VISUALSTYLE
  5
31
102
{ACAD_REACTORS
330
2A
102
}
330
2A
100
AcDbVisualStyle
  2
3D Hidden
 70
     6
 71
     1
 72
     2
 73
     2
 90
        0
 40
-0.6
 41
-30.0
 62
     5
 63
     7
421
 16777215
 74
     2
 91
        2
 64
     7
 65
   257
 75
     2
175
     1
 42
40.0
 92
        0
 66
   257
 43
1.0
 76
     1
 77
     6
 78
     2
 67
     7
 79
     3
170
     0
171
     0
290
     0
174
     0
 93
        1
 44
0.0
173
     0
291
     0
 45
0.0
1001
ACAD
1000
AcDbSavedByObjectVersion
1070
     0
  0
VISUALSTYLE
  5
30
102
{ACAD_REACTORS
330
2A
102
}
330
2A
100
AcDbVisualStyle
  2
3dWireframe
 70
     5
 71
     0
 72
     2
 73
     0
 90
        0
 40
-0.6
 41
-30.0
 62
     5
 63
     7
421
 16777215
 74
     1
 91
        4
 64
     7
 65
   257
 75
     1
175
     1
 42
1.0
 92
        0
 66
   257
 43
1.0
 76
     1
 77
     6
 78
     2
 67
     7
 79
     5
170
     0
171
     0
290
     0
174
     0
 93
        1
 44
0.0
173
     0
291
     0
 45
0.0
1001
ACAD
1000
AcDbSavedByObjectVersion
1070
     0
  0
VISUALSTYLE
  5
32
102
{ACAD_REACTORS
330
2A
102
}
330
2A
100
AcDbVisualStyle
  2
Basic
 70
     7
 71
     1
 72
     0
 73
     1
 90
        0
 40
-0.6
 41
-30.0
 62
     5
 63
     7
421
 16777215
 74
     0
 91
        4
 64
     7
 65
   257
 75
     1
175
     1
 42
1.0
 92
        8
 66
     7
 43
1.0
 76
     1
 77
     6
 78
     2
 67
     7
 79
     5
170
     0
171
     0
290
     0
174
     0
 93
        1
 44
0.0
173
     0
291
     1
 45
0.0
1001
ACAD
1000
AcDbSavedByObjectVersion
1070
     0
  0
VISUALSTYLE
  5
36
102
{ACAD_REACTORS
330
2A
102
}
330
2A
100
AcDbVisualStyle
  2
Brighten
 70
    12
 71
     2
 72
     2
 73
     0
 90
        0
 40
-0.6
 41
-30.0
 62
     5
 63
     7
421
 16777215
 74
     1
 91
        4
 64
     7
 65
   257
 75
     1
175
     1
 42
1.0
 92
        8
 66
     7
 43
1.0
 76
     1
 77
     6
 78
     2
 67
     7
 79
     5
170
     0
171
     0
290
     0
174
     0
 93
        1
 44
50.0
173
     0
291
     1
 45
0.0
1001
ACAD
1000
AcDbSavedByObjectVersion
1070
     0
  0
VISUALSTYLE
  5
3A
102
{ACAD_REACTORS
330
2A
102
}
330
2A
100
AcDbVisualStyle
  2
ColorChange
 70
    16
 71
     2
 72
     2
 73
     3
 90
        0
 40
-0.6
 41
-30.0
 62
     5
 63
     8
421
  8421504
 74
     1
 91
        4
 64
     7
 65
   257
 75
     1
175
     1
 42
1.0
 92
        8
 66
     8
424
  8421504
 43
1.0
 76
     1
 77
     6
 78
     2
 67
     7
 79
     5
170
     0
171
     0
290
     0
174
     0
 93
        1
 44
0.0
173
     0
291
     1
 45
0.0
1001
ACAD
1000
AcDbSavedByObjectVersion
1070
     0
  0
VISUALSTYLE
  5
34
102
{ACAD_REACTORS
330
2A
102
}
330
2A
100
AcDbVisualStyle
  2
Conceptual
 70
     9
 71
     3
 72
     2
 73
     0
 90
        0
 40
-0.6
 41
-30.0
 62
     5
 63
     7
421
 16777215
 74
     2
 91
        2
 64
     7
 65
   257
 75
     1
175
     1
 42
40.0
 92
        8
 66
     7
 43
1.0
 76
     1
 77
     6
 78
     2
 67
     7
 79
     3
170
     0
171
     0
290
     0
174
     0
 93
        1
 44
0.0
173
     0
291
     0
 45
0.0
1001
ACAD
1000
AcDbSavedByObjectVersion
1070
     0
  0
VISUALSTYLE
  5
35
102
{ACAD_REACTORS
330
2A
102
}
330
2A
100
AcDbVisualStyle
  2
Dim
 70
    11
 71
     2
 72
     2
 73
     0
 90
        0
 40
-0.6
 41
-30.0
 62
     5
 63
     7
421
 16777215
 74
     1
 91
        4
 64
     7
 65
   257
 75
     1
175
     1
 42
1.0
 92
        8
 66
     7
 43
1.0
 76
     1
 77
     6
 78
     2
 67
     7
 79
     5
170
     0
171
     0
290
     0
174
     0
 93
        1
 44
-50.0
173
     0
291
     1
 45
0.0
1001
ACAD
1000
AcDbSavedByObjectVersion
1070
     0
  0
VISUALSTYLE
  5
39
102
{ACAD_REACTORS
330
2A
102
}
330
2A
100
AcDbVisualStyle
  2
Facepattern
 70
    15
 71
     2
 72
     2
 73
     0
 90
        0
 40
-0.6
 41
-30.0
 62
     5
 63
     7
421
 16777215
 74
     1
 91
        4
 64
     7
 65
   257
 75
     1
175
     1
 42
1.0
 92
        8
 66
     7
 43
1.0
 76
     1
 77
     6
 78
     2
 67
     7
 79
     5
170
     0
171
     0
290
     0
174
     0
 93
        1
 44
0.0
173
     0
291
     1
 45
0.0
1001
ACAD
1000
AcDbSavedByObjectVersion
1070
     0
  0
VISUALSTYLE
  5
2B
102
{ACAD_REACTORS
330
2A
102
}
330
2A
100
AcDbVisualStyle
  2
Flat
 70
     0
 71
     2
 72
     1
 73
     1
 90
        2
 40
-0.6
 41
30.0
 62
     5
 63
     7
421
 16777215
 74
     0
 91
        4
 64
     7
 65
   257
 75
     1
175
     1
 42
1.0
 92
        8
 66
     7
 43
1.0
 76
     1
 77
     6
 78
     2
 67
     7
 79
     5
170
     0
171
     0
290
     0
174
     0
 93
       13
 44
0.0
173
     0
291
     1
 45
0.0
1001
ACAD
1000
AcDbSavedByObjectVersion
1070
     0
  0
VISUALSTYLE
  5
2C
102
{ACAD_REACTORS
330
2A
102
}
330
2A
100
AcDbVisualStyle
  2
FlatWithEdges
 70
     1
 71
     2
 72
     1
 73
     1
 90
        2
 40
-0.6
 41
30.0
 62
     5
 63
     7
421
 16777215
 74
     1
 91
        4
 64
     7
 65
   257
 75
     1
175
     1
 42
1.0
 92
        0
 66
   257
 43
1.0
 76
     1
 77
     6
 78
     2
 67
     7
 79
     5
170
     0
171
     0
290
     0
174
     0
 93
       13
 44
0.0
173
     0
291
     1
 45
0.0
1001
ACAD
1000
AcDbSavedByObjectVersion
1070
     0
  0
VISUALSTYLE
  5
2D
102
{ACAD_REACTORS
330
2A
102
}
330
2A
100
AcDbVisualStyle
  2
Gouraud
 70
     2
 71
     2
 72
     2
 73
     1
 90
        2
 40
-0.6
 41
30.0
 62
     5
 63
     7
421
 16777215
 74
     0
 91
        4
 64
     7
 65
   257
 75
     1
175
     1
 42
1.0
 92
        0
 66
     7
 43
1.0
 76
     1
 77
     6
 78
     2
 67
     7
 79
     5
170
     0
171
     0
290
     0
174
     0
 93
       13
 44
0.0
173
     0
291
     1
 45
0.0
1001
ACAD
1000
AcDbSavedByObjectVersion
1070
     0
  0
VISUALSTYLE
  5
2E
102
{ACAD_REACTORS
330
2A
102
}
330
2A
100
AcDbVisualStyle
  2
GouraudWithEdges
 70
     3
 71
     2
 72
     2
 73
     1
 90
        2
 40
-0.6
 41
30.0
 62
     5
 63
     7
421
 16777215
 74
     1
 91
        4
 64
     7
 65
   257
 75
     1
175
     1
 42
1.0
 92
        0
 66
   257
 43
1.0
 76
     1
 77
     6
 78
     2
 67
     7
 79
     5
170
     0
171
     0
290
     0
174
     0
 93
       13
 44
0.0
173
     0
291
     1
 45
0.0
1001
ACAD
1000
AcDbSavedByObjectVersion
1070
     0
  0
VISUALSTYLE
  5
38
102
{ACAD_REACTORS
330
2A
102
}
330
2A
100
AcDbVisualStyle
  2
Linepattern
 70
    14
 71
     2
 72
     2
 73
     0
 90
        0
 40
-0.6
 41
-30.0
 62
     5
 63
     7
421
 16777215
 74
     1
 91
        4
 64
     7
 65
   257
 75
     7
175
     7
 42
1.0
 92
        8
 66
     7
 43
1.0
 76
     1
 77
     6
 78
     2
 67
     7
 79
     5
170
     0
171
     0
290
     0
174
     0
 93
        1
 44
0.0
173
     0
291
     1
 45
0.0
1001
ACAD
1000
AcDbSavedByObjectVersion
1070
     0
  0
VISUALSTYLE
  5
33
102
{ACAD_REACTORS
330
2A
102
}
330
2A
100
AcDbVisualStyle
  2
Realistic
 70
     8
 71
     2
 72
     2
 73
     0
 90
        0
 40
-0.6
 41
-30.0
 62
     5
 63
     7
421
 16777215
 74
     1
 91
        0
 64
     7
 65
   257
 75
     1
175
     1
 42
1.0
 92
        8
 66
     8
424
  7895160
 43
1.0
 76
     1
 77
     6
 78
     2
 67
     7
 79
     5
170
     0
171
     0
290
     0
174
     0
 93
       13
 44
0.0
173
     0
291
     0
 45
0.0
1001
ACAD
1000
AcDbSavedByObjectVersion
1070
     0
  0
VISUALSTYLE
  5
37
102
{ACAD_REACTORS
330
2A
102
}
330
2A
100
AcDbVisualStyle
  2
Thicken
 70
    13
 71
     2
 72
     2
 73
     0
 90
        0
 40
-0.6
 41
-30.0
 62
     5
 63
     7
421
 16777215
 74
     1
 91
        4
 64
     7
 65
   257
 75
     1
175
     1
 42
1.0
 92
       12
 66
     7
 43
1.0
 76
     1
 77
     6
 78
     2
 67
     7
 79
     5
170
     0
171
     0
290
     0
174
     0
 93
        1
 44
0.0
173
     0
291
     1
 45
0.0
1001
ACAD
1000
AcDbSavedByObjectVersion
1070
     0
  0
ENDSEC
  0
EOF
