  0
SECTION
  2
HEADER
  9
$ACADVER
  1
AC1018
  9
$ACADMAINTVER
 70
     0
  9
$DWGCODEPAGE
  3
ANSI_1252
  9
$INSBASE
 10
0.0
 20
0.0
 30
0.0
  9
$EXTMIN
 10
1.000000000000000E+20
 20
1.000000000000000E+20
 30
1.000000000000000E+20
  9
$EXTMAX
 10
-1.000000000000000E+20
 20
-1.000000000000000E+20
 30
-1.000000000000000E+20
  9
$LIMMIN
 10
0.0
 20
0.0
  9
$LIMMAX
 10
12.0
 20
9.0
  9
$ORTHOMODE
 70
     0
  9
$REGENMODE
 70
     1
  9
$FILLMODE
 70
     1
  9
$QTEXTMODE
 70
     0
  9
$MIRRTEXT
 70
     1
  9
$LTSCALE
 40
1.0
  9
$ATTMODE
 70
     1
  9
$TEXTSIZE
 40
0.2
  9
$TRACEWID
 40
0.05
  9
$TEXTSTYLE
  7
Standard
  9
$CLAYER
  8
0
  9
$CELTYPE
  6
ByLayer
  9
$CECOLOR
 62
   256
  9
$CELTSCALE
 40
1.0
  9
$DISPSILH
 70
     0
  9
$DIMSCALE
 40
1.0
  9
$DIMASZ
 40
0.18
  9
$DIMEXO
 40
0.0625
  9
$DIMDLI
 40
0.38
  9
$DIMRND
 40
0.0
  9
$DIMDLE
 40
0.0
  9
$DIMEXE
 40
0.18
  9
$DIMTP
 40
0.0
  9
$DIMTM
 40
0.0
  9
$DIMTXT
 40
0.18
  9
$DIMCEN
 40
0.09
  9
$DIMTSZ
 40
0.0
  9
$DIMTOL
 70
     0
  9
$DIMLIM
 70
     0
  9
$DIMTIH
 70
     1
  9
$DIMTOH
 70
     1
  9
$DIMSE1
 70
     0
  9
$DIMSE2
 70
     0
  9
$DIMTAD
 70
     0
  9
$DIMZIN
 70
     0
  9
$DIMBLK
  1

  9
$DIMASO
 70
     1
  9
$DIMSHO
 70
     1
  9
$DIMPOST
  1

  9
$DIMAPOST
  1

  9
$DIMALT
 70
     0
  9
$DIMALTD
 70
     2
  9
$DIMALTF
 40
25.4
  9
$DIMLFAC
 40
1.0
  9
$DIMTOFL
 70
     0
  9
$DIMTVP
 40
0.0
  9
$DIMTIX
 70
     0
  9
$DIMSOXD
 70
     0
  9
$DIMSAH
 70
     0
  9
$DIMBLK1
  1

  9
$DIMBLK2
  1

  9
$DIMSTYLE
  2
Standard
  9
$DIMCLRD
 70
     0
  9
$DIMCLRE
 70
     0
  9
$DIMCLRT
 70
     0
  9
$DIMTFAC
 40
1.0
  9
$DIMGAP
 40
0.09
  9
$DIMJUST
 70
     0
  9
$DIMSD1
 70
     0
  9
$DIMSD2
 70
     0
  9
$DIMTOLJ
 70
     1
  9
$DIMTZIN
 70
     0
  9
$DIMALTZ
 70
     0
  9
$DIMALTTZ
 70
     0
  9
$DIMUPT
 70
     0
  9
$DIMDEC
 70
     4
  9
$DIMTDEC
 70
     4
  9
$DIMALTU
 70
     2
  9
$DIMALTTD
 70
     2
  9
$DIMTXSTY
  7
Standard
  9
$DIMAUNIT
 70
     0
  9
$DIMADEC
 70
     0
  9
$DIMALTRND
 40
0.0
  9
$DIMAZIN
 70
     0
  9
$DIMDSEP
 70
    46
  9
$DIMATFIT
 70
     3
  9
$DIMFRAC
 70
     0
  9
$DIMLDRBLK
  1

  9
$DIMLUNIT
 70
     2
  9
$DIMLWD
 70
    -2
  9
$DIMLWE
 70
    -2
  9
$DIMTMOVE
 70
     0
  9
$LUNITS
 70
     2
  9
$LUPREC
 70
     4
  9
$SKETCHINC
 40
0.1
  9
$FILLETRAD
 40
0.5
  9
$AUNITS
 70
     0
  9
$AUPREC
 70
     0
  9
$MENU
  1
.
  9
$ELEVATION
 40
0.0
  9
$PELEVATION
 40
0.0
  9
$THICKNESS
 40
0.0
  9
$LIMCHECK
 70
     0
  9
$CHAMFERA
 40
0.5
  9
$CHAMFERB
 40
0.5
  9
$CHAMFERC
 40
1.0
  9
$CHAMFERD
 40
0.0
  9
$SKPOLY
 70
     0
  9
$TDCREATE
 40
2458334.922837014
  9
$TDUCREATE
 40
2458334.83950368
  9
$TDUPDATE
 40
2458334.922837025
  9
$TDUUPDATE
 40
2458334.839503692
  9
$TDINDWG
 40
0.0000000116
  9
$TDUSRTIMER
 40
0.0000000116
  9
$USRTIMER
 70
     1
  9
$ANGBASE
 50
0.0
  9
$ANGDIR
 70
     0
  9
$PDMODE
 70
     0
  9
$PDSIZE
 40
0.0
  9
$PLINEWID
 40
0.0
  9
$SPLFRAME
 70
     0
  9
$SPLINETYPE
 70
     6
  9
$SPLINESEGS
 70
     8
  9
$HANDSEED
  5
45
  9
$SURFTAB1
 70
     6
  9
$SURFTAB2
 70
     6
  9
$SURFTYPE
 70
     6
  9
$SURFU
 70
     6
  9
$SURFV
 70
     6
  9
$UCSBASE
  2

  9
$UCSNAME
  2

  9
$UCSORG
 10
0.0
 20
0.0
 30
0.0
  9
$UCSXDIR
 10
1.0
 20
0.0
 30
0.0
  9
$UCSYDIR
 10
0.0
 20
1.0
 30
0.0
  9
$UCSORTHOREF
  2

  9
$UCSORTHOVIEW
 70
     0
  9
$UCSORGTOP
 10
0.0
 20
0.0
 30
0.0
  9
$UCSORGBOTTOM
 10
0.0
 20
0.0
 30
0.0
  9
$UCSORGLEFT
 10
0.0
 20
0.0
 30
0.0
  9
$UCSORGRIGHT
 10
0.0
 20
0.0
 30
0.0
  9
$UCSORGFRONT
 10
0.0
 20
0.0
 30
0.0
  9
$UCSORGBACK
 10
0.0
 20
0.0
 30
0.0
  9
$PUCSBASE
  2

  9
$PUCSNAME
  2

  9
$PUCSORG
 10
0.0
 20
0.0
 30
0.0
  9
$PUCSXDIR
 10
1.0
 20
0.0
 30
0.0
  9
$PUCSYDIR
 10
0.0
 20
1.0
 30
0.0
  9
$PUCSORTHOREF
  2

  9
$PUCSORTHOVIEW
 70
     0
  9
$PUCSORGTOP
 10
0.0
 20
0.0
 30
0.0
  9
$PUCSORGBOTTOM
 10
0.0
 20
0.0
 30
0.0
  9
$PUCSORGLEFT
 10
0.0
 20
0.0
 30
0.0
  9
$PUCSORGRIGHT
 10
0.0
 20
0.0
 30
0.0
  9
$PUCSORGFRONT
 10
0.0
 20
0.0
 30
0.0
  9
$PUCSORGBACK
 10
0.0
 20
0.0
 30
0.0
  9
$USERI1
 70
     0
  9
$USERI2
 70
     0
  9
$USERI3
 70
     0
  9
$USERI4
 70
     0
  9
$USERI5
 70
     0
  9
$USERR1
 40
0.0
  9
$USERR2
 40
0.0
  9
$USERR3
 40
0.0
  9
$USERR4
 40
0.0
  9
$USERR5
 40
0.0
  9
$WORLDVIEW
 70
     1
  9
$SHADEDGE
 70
     3
  9
$SHADEDIF
 70
    70
  9
$TILEMODE
 70
     1
  9
$MAXACTVP
 70
    64
  9
$PINSBASE
 10
0.0
 20
0.0
 30
0.0
  9
$PLIMCHECK
 70
     0
  9
$PEXTMIN
 10
1.000000000000000E+20
 20
1.000000000000000E+20
 30
1.000000000000000E+20
  9
$PEXTMAX
 10
-1.000000000000000E+20
 20
-1.000000000000000E+20
 30
-1.000000000000000E+20
  9
$PLIMMIN
 10
0.0
 20
0.0
  9
$PLIMMAX
 10
12.0
 20
9.0
  9
$UNITMODE
 70
     0
  9
$VISRETAIN
 70
     1
  9
$PLINEGEN
 70
     0
  9
$PSLTSCALE
 70
     1
  9
$TREEDEPTH
 70
  3020
  9
$CMLSTYLE
  2
Standard
  9
$CMLJUST
 70
     0
  9
$CMLSCALE
 40
1.0
  9
$PROXYGRAPHICS
 70
     1
  9
$MEASUREMENT
 70
     0
  9
$CELWEIGHT
370
    -1
  9
$ENDCAPS
280
     0
  9
$JOINSTYLE
280
     0
  9
$LWDISPLAY
290
     1
  9
$INSUNITS
 70
     1
  9
$HYPERLINKBASE
  1

  9
$STYLESHEET
  1

  9
$XEDIT
290
     1
  9
$CEPSNTYPE
380
     0
  9
$PSTYLEMODE
290
     1
  9
$FINGERPRINTGUID
  2
{41853F89-9B6F-4819-A096-B50D65B445E5}
  9
$VERSIONGUID
  2
{FAEB1C32-E019-11D5-929B-00C0DF256EC4}
  9
$EXTNAMES
290
     1
  9
$PSVPSCALE
 40
0.0
  9
$OLESTARTUP
290
     0
  9
$SORTENTS
280
   127
  9
$INDEXCTL
280
     0
  9
$HIDETEXT
280
     1
  9
$XCLIPFRAME
290
     0
  9
$HALOGAP
280
     0
  9
$OBSCOLOR
 70
   257
  9
$OBSLTYPE
280
     0
  9
$INTERSECTIONDISPLAY
280
     0
  9
$INTERSECTIONCOLOR
 70
   257
  9
$DIMASSOC
280
     2
  9
$PROJECTNAME
  1

  0
ENDSEC
  0
SECTION
  2
CLASSES
  0
CLASS
  1
ACDBDICTIONARYWDFLT
  2
AcDbDictionaryWithDefault
  3
ObjectDBX Classes
 90
        0
 91
        3
280
     0
281
     0
  0
CLASS
  1
VISUALSTYLE
  2
AcDbVisualStyle
  3
ObjectDBX Classes
 90
     4095
 91
        3
280
     0
281
     0
  0
ENDSEC
  0
SECTION
  2
TABLES
  0
TABLE
  2
VPORT
  5
8
330
0
100
AcDbSymbolTable
 70
     1
  0
VPORT
  5
29
330
8
100
AcDbSymbolTableRecord
100
AcDbViewportTableRecord
  2
*Active
 70
     0
 10
0.0
 20
0.0
 11
1.0
 21
1.0
 12
0.0
 22
0.0
 13
0.0
 23
0.0
 14
0.5
 24
0.5
 15
0.5
 25
0.5
 16
0.0
 26
0.0
 36
1.0
 17
24.99967989826397
 27
-24.99967989826397
 37
0.0
 40
49.99935979652794
 41
1.0
 42
50.0
 43
0.0
 44
0.0
 50
0.0
 51
0.0
 71
     0
 72
   100
 73
     1
 74
     3
 75
     0
 76
     0
 77
     0
 78
     0
281
     0
 65
     1
110
0.0
120
0.0
130
0.0
111
1.0
121
0.0
131
0.0
112
0.0
122
1.0
132
0.0
 79
     0
146
0.0
  0
ENDTAB
  0
TABLE
  2
LTYPE
  5
5
330
0
100
AcDbSymbolTable
 70
     1
  0
LTYPE
  5
14
330
5
100
AcDbSymbolTableRecord
100
AcDbLinetypeTableRecord
  2
ByBlock
 70
     0
  3

 72
    65
 73
     0
 40
0.0
  0
LTYPE
  5
15
330
5
100
AcDbSymbolTableRecord
100
AcDbLinetypeTableRecord
  2
ByLayer
 70
     0
  3

 72
    65
 73
     0
 40
0.0
  0
LTYPE
  5
16
330
5
100
AcDbSymbolTableRecord
100
AcDbLinetypeTableRecord
  2
Continuous
 70
     0
  3
Solid line
 72
    65
 73
     0
 40
0.0
  0
ENDTAB
  0
TABLE
  2
LAYER
  5
2
330
0
100
AcDbSymbolTable
 70
     2
  0
LAYER
  5
10
330
2
100
AcDbSymbolTableRecord
100
AcDbLayerTableRecord
  2
0
 70
     0
 62
     7
  6
Continuous
370
    -3
390
F
  0
LAYER
  5
3B
330
2
100
AcDbSymbolTableRecord
100
AcDbLayerTableRecord
  2
Layer 1
 70
     0
 62
     7
  6
Continuous
370
    -3
390
F
  0
ENDTAB
  0
TABLE
  2
STYLE
  5
3
330
0
100
AcDbSymbolTable
 70
     1
  0
STYLE
  5
11
330
3
100
AcDbSymbolTableRecord
100
AcDbTextStyleTableRecord
  2
Standard
 70
     0
 40
0.0
 41
1.0
 50
0.0
 71
     0
 42
0.2
  3
txt
  4

  0
ENDTAB
  0
TABLE
  2
VIEW
  5
6
330
0
100
AcDbSymbolTable
 70
     0
  0
ENDTAB
  0
TABLE
  2
UCS
  5
7
330
0
100
AcDbSymbolTable
 70
     0
  0
ENDTAB
  0
TABLE
  2
APPID
  5
9
330
0
100
AcDbSymbolTable
 70
     1
  0
APPID
  5
12
330
9
100
AcDbSymbolTableRecord
100
AcDbRegAppTableRecord
  2
ACAD
 70
     0
  0
ENDTAB
  0
TABLE
  2
DIMSTYLE
  5
A
330
0
100
AcDbSymbolTable
 70
     1
100
AcDbDimStyleTable
  0
DIMSTYLE
105
27
330
A
100
AcDbSymbolTableRecord
100
AcDbDimStyleTableRecord
  2
Standard
 70
     0
340
11
  0
ENDTAB
  0
TABLE
  2
BLOCK_RECORD
  5
1
330
0
100
AcDbSymbolTable
 70
     1
  0
BLOCK_RECORD
  5
1F
330
1
100
AcDbSymbolTableRecord
100
AcDbBlockTableRecord
  2
*Model_Space
340
22
  0
BLOCK_RECORD
  5
1B
330
1
100
AcDbSymbolTableRecord
100
AcDbBlockTableRecord
  2
*Paper_Space
340
1E
  0
BLOCK_RECORD
  5
23
330
1
100
AcDbSymbolTableRecord
100
AcDbBlockTableRecord
  2
*Paper_Space0
340
26
  0
ENDTAB
  0
ENDSEC
  0
SECTION
  2
BLOCKS
  0
BLOCK
  5
20
330
1F
100
AcDbEntity
  8
0
100
AcDbBlockBegin
  2
*Model_Space
 70
     0
 71
     0
 10
0.0
 20
0.0
 30
0.0
  3
*Model_Space
  1

  0
ENDBLK
  5
21
330
1F
100
AcDbEntity
  8
0
100
AcDbBlockEnd
  0
BLOCK
  5
1C
330
1B
100
AcDbEntity
 67
     1
  8
0
100
AcDbBlockBegin
  2
*Paper_Space
 70
     0
 71
     0
 10
0.0
 20
0.0
 30
0.0
  3
*Paper_Space
  1

  0
ENDBLK
  5
1D
330
1B
100
AcDbEntity
 67
     1
  8
0
100
AcDbBlockEnd
  0
BLOCK
  5
24
330
23
100
AcDbEntity
  8
0
100
AcDbBlockBegin
  2
*Paper_Space0
 70
     0
 71
     0
 10
0.0
 20
0.0
 30
0.0
  3
*Paper_Space0
  1

  0
ENDBLK
  5
25
330
23
100
AcDbEntity
  8
0
100
AcDbBlockEnd
  0
ENDSEC
  0
SECTION
  2
ENTITIES
  0
SPLINE
  5
3C
330
1F
100
AcDbEntity
  8
Layer 1
370
     0
100
AcDbSpline
210
0.0
220
0.0
230
1.0
 70
    11
 71
     3
 72
   116
 73
   112
 74
     0
 42
0.0000000001
 43
0.0000000001
 40
0.0
 40
0.0
 40
0.0
 40
0.0
 40
1.0
 40
1.0
 40
1.0
 40
2.0
 40
2.0
 40
2.0
 40
3.0
 40
3.0
 40
3.0
 40
4.0
 40
4.0
 40
4.0
 40
5.0
 40
5.0
 40
5.0
 40
6.0
 40
6.0
 40
6.0
 40
7.0
 40
7.0
 40
7.0
 40
8.0
 40
8.0
 40
8.0
 40
9.0
 40
9.0
 40
9.0
 40
10.0
 40
10.0
 40
10.0
 40
11.0
 40
11.0
 40
11.0
 40
12.0
 40
12.0
 40
12.0
 40
13.0
 40
13.0
 40
13.0
 40
14.0
 40
14.0
 40
14.0
 40
15.0
 40
15.0
 40
15.0
 40
16.0
 40
16.0
 40
16.0
 40
17.0
 40
17.0
 40
17.0
 40
18.0
 40
18.0
 40
18.0
 40
19.0
 40
19.0
 40
19.0
 40
20.0
 40
20.0
 40
20.0
 40
21.0
 40
21.0
 40
21.0
 40
22.0
 40
22.0
 40
22.0
 40
23.0
 40
23.0
 40
23.0
 40
24.0
 40
24.0
 40
24.0
 40
25.0
 40
25.0
 40
25.0
 40
26.0
 40
26.0
 40
26.0
 40
27.0
 40
27.0
 40
27.0
 40
28.0
 40
28.0
 40
28.0
 40
29.0
 40
29.0
 40
29.0
 40
30.0
 40
30.0
 40
30.0
 40
31.0
 40
31.0
 40
31.0
 40
32.0
 40
32.0
 40
32.0
 40
33.0
 40
33.0
 40
33.0
 40
34.0
 40
34.0
 40
34.0
 40
35.0
 40
35.0
 40
35.0
 40
36.0
 40
36.0
 40
36.0
 40
37.0
 40
37.0
 40
37.0
 40
37.0
 10
47.37178546992789
 20
-33.15835502643264
 30
0.0
 10
47.65772839520363
 20
-35.30912813787411
 30
0.0
 10
47.98776854269056
 20
-38.34356824128216
 30
0.0
 10
47.82550454533529
 20
-41.41383733773682
 30
0.0
 10
47.73489853407322
 20
-42.946904828673
 30
0.0
 10
47.59330510962945
 20
-44.71699488899436
 30
0.0
 10
46.85639918533451
 20
-46.1005452358707
 30
0.0
 10
46.46400280956455
 20
-46.77750649872229
 30
0.0
 10
45.79875487136281
 20
-47.43104111227419
 30
0.0
 10
45.21446667706444
 20
-47.29117023557304
 30
0.0
 10
44.22675780144331
 20
-47.30770669390224
 30
0.0
 10
43.30037162545963
 20
-46.51257865590658
 30
0.0
 10
42.20483126115018
 20
-45.65853948511315
 30
0.0
 10
40.8605550028057
 20
-44.51924640814102
 30
0.0
 10
39.68543293278697
 20
-43.22389050568709
 30
0.0
 10
38.51582301554465
 20
-41.7803954973674
 30
0.0
 10
39.80773382251335
 20
-40.12606064535043
 30
0.0
 10
40.97148707743074
 20
-38.37836370568319
 30
0.0
 10
41.99674749384109
 20
-36.55108506030668
 30
0.0
 10
43.98318955063615
 20
-33.06258137194269
 30
0.0
 10
45.56896700249665
 20
-29.37908527911356
 30
0.0
 10
46.84227429384499
 20
-25.61531846147811
 30
0.0
 10
48.66576333418773
 20
-20.28265515985989
 30
0.0
 10
50.05034720970963
 20
-14.64200032186033
 30
0.0
 10
50.07549640675196
 20
-8.832019040760745
 30
0.0
 10
50.11614853347791
 20
-7.077604164897266
 30
0.0
 10
49.97937824271349
 20
-5.090300834230897
 30
0.0
 10
49.13739690611843
 20
-3.129180229252427
 30
0.0
 10
48.5813584947991
 20
-1.707044812941295
 30
0.0
 10
47.19470756198605
 20
-0.3808553058943695
 30
0.0
 10
45.21446667706444
 20
-0.3493326822043335
 30
0.0
 10
43.09297687724759
 20
-0.3155707464488851
 30
0.0
 10
41.51305608771202
 20
-1.468299695813481
 30
0.0
 10
40.45231118780359
 20
-2.440333386976723
 30
0.0
 10
39.14455294160275
 20
-3.501422796433672
 30
0.0
 10
37.92671168756694
 20
-4.666898599093693
 30
0.0
 10
36.81222329808861
 20
-5.92487521553267
 30
0.0
 10
36.51663410545417
 20
-5.616022405280022
 30
0.0
 10
36.21449923139777
 20
-5.314404295546399
 30
0.0
 10
35.9061631854679
 20
-5.018815102911963
 30
0.0
 10
33.12907171480801
 20
-2.295122612273442
 30
0.0
 10
29.33671060464499
 20
-0.1798339843300415
 30
0.0
 10
25.02500135008056
 20
-0.0925008137789581
 30
0.0
 10
25.02500135008056
 20
-0.0925008137789581
 30
0.0
 10
25.02500135008056
 20
-0.0907782660363332
 30
0.0
 10
25.02500135008056
 20
-0.0907782660363332
 30
0.0
 10
20.71329209551612
 20
-0.1924085828512034
 30
0.0
 10
16.9374674436823
 20
-2.320788573638553
 30
0.0
 10
14.17467311928619
 20
-5.0489596884079
 30
0.0
 10
13.79777967319986
 20
-5.413450790747332
 30
0.0
 10
13.43104925879502
 20
-5.788104924768252
 30
0.0
 10
13.0743096212974
 20
-6.171544052276559
 30
0.0
 10
11.96171603433596
 20
-4.897030977508382
 30
0.0
 10
10.74197997778326
 20
-3.716396754713262
 30
0.0
 10
9.42957085267733
 20
-2.643249511057938
 30
0.0
 10
8.371754283931367
 20
-1.687580023449633
 30
0.0
 10
6.850572372419301
 20
-0.5724026148742605
 30
0.0
 10
4.835708277870935
 20
-0.5944512259798594
 30
0.0
 10
2.988103569131447
 20
-0.6180501300538208
 30
0.0
 10
1.670182291249121
 20
-1.868792045973774
 30
0.0
 10
1.126201714128172
 20
-3.22271457167696
 30
0.0
 10
0.2961059569572235
 20
-5.12647433682602
 30
0.0
 10
0.159335666192805
 20
-7.085355629739079
 30
0.0
 10
0.1877577039461161
 20
-8.832019040760745
 30
0.0
 10
0.1877577039461161
 20
-14.22204318220838
 30
0.0
 10
1.375798882034523
 20
-19.48046467611947
 30
0.0
 10
2.994304741004896
 20
-24.49428439057782
 30
0.0
 10
2.982591416355047
 20
-24.51443819916653
 30
0.0
 10
2.980524359063897
 20
-24.53441975298098
 30
0.0
 10
2.973978677641922
 20
-24.5540567972469
 30
0.0
 10
1.166337076531333
 20
-29.90584037880826
 30
0.0
 10
-0.1972317165305532
 20
-35.57474499978687
 30
0.0
 10
-0.2032606336297404
 20
-41.4134928281883
 30
0.0
 10
-0.2396063909991262
 20
-43.17359211160244
 30
0.0
 10
-0.0906060112620707
 20
-45.18380532724571
 30
0.0
 10
0.771873643470226
 20
-47.17920463230242
 30
0.0
 10
1.344448513118749
 20
-48.64440374217918
 30
0.0
 10
2.778986273176781
 20
-50.00693900659549
 30
0.0
 10
4.836052787419459
 20
-50.03691133731716
 30
0.0
 10
7.018348522550968
 20
-50.06722817758736
 30
0.0
 10
8.620317923192143
 20
-48.88521591659814
 30
0.0
 10
9.67572292509843
 20
-47.90164115555931
 30
0.0
 10
11.0921739338589
 20
-46.73892142928749
 30
0.0
 10
12.40389403986778
 20
-45.45493434193488
 30
0.0
 10
13.59469129434438
 20
-44.06690537092772
 30
0.0
 10
13.87081569748716
 20
-44.35629339168871
 30
0.0
 10
14.15279676295486
 20
-44.64051376922182
 30
0.0
 10
14.44063449074748
 20
-44.91956650352706
 30
0.0
 10
17.16691080299994
 20
-47.59709471466323
 30
0.0
 10
20.85385199131431
 20
-49.69033473150103
 30
0.0
 10
25.02500135008056
 20
-49.7712944754044
 30
0.0
 10
29.19580619929827
 20
-49.70445962299056
 30
0.0
 10
32.89928384594185
 20
-47.62534449764227
 30
0.0
 10
35.63951279490957
 20
-44.95298392973397
 30
0.0
 10
36.10115558993304
 20
-44.51511229355872
 30
0.0
 10
36.53799369746272
 20
-44.05725910356902
 30
0.0
 10
36.96553004718223
 20
-43.59320474170587
 30
0.0
 10
38.19680717361052
 20
-44.92645669449755
 30
0.0
 10
39.48423935644838
 20
-46.15325519679502
 30
0.0
 10
40.92187770244314
 20
-47.22881400729002
 30
0.0
 10
42.06633842264314
 20
-48.1524441068855
 30
0.0
 10
43.51569009328774
 20
-48.99821504851434
 30
0.0
 10
45.21446667706444
 20
-49.00855033497009
 30
0.0
 10
46.74960122529177
 20
-48.86764592962337
 30
0.0
 10
47.77968477538147
 20
-47.81206867294282
 30
0.0
 10
48.2020534818731
 20
-46.69861381211007
 30
0.0
 10
48.92173392874179
 20
-44.88132594364078
 30
0.0
 10
48.90140786537881
 20
-42.9758436307491
 30
0.0
 10
48.80839028727707
 20
-41.41280380909124
 30
0.0
 10
48.64095864669393
 20
-38.2157551987794
 30
0.0
 10
47.93988171544559
 20
-35.25056151462486
 30
0.0
 10
47.37178546992789
 20
-33.15835502643264
 30
0.0
  0
SPLINE
  5
3D
330
1F
100
AcDbEntity
  8
Layer 1
370
     0
100
AcDbSpline
210
0.0
220
0.0
230
1.0
 70
    11
 71
     3
 72
    29
 73
    25
 74
     0
 42
0.0000000001
 43
0.0000000001
 40
0.0
 40
0.0
 40
0.0
 40
0.0
 40
1.0
 40
1.0
 40
1.0
 40
2.0
 40
2.0
 40
2.0
 40
3.0
 40
3.0
 40
3.0
 40
4.0
 40
4.0
 40
4.0
 40
5.0
 40
5.0
 40
5.0
 40
6.0
 40
6.0
 40
6.0
 40
7.0
 40
7.0
 40
7.0
 40
8.0
 40
8.0
 40
8.0
 40
8.0
 10
16.94091253916755
 20
-7.887890623028028
 30
0.0
 10
19.32457410541191
 20
-5.717135957772105
 30
0.0
 10
22.18779296320305
 20
-3.975123425655525
 30
0.0
 10
25.02500135008056
 20
-4.076753742470395
 30
0.0
 10
27.86186522740953
 20
-3.989248317145049
 30
0.0
 10
30.70682507912885
 20
-5.745385740751153
 30
0.0
 10
33.07808430162631
 20
-7.920102265815114
 30
0.0
 10
33.4653130341684
 20
-8.288382973188321
 30
0.0
 10
33.83669432747833
 20
-8.676645234375979
 30
0.0
 10
34.19911837252661
 20
-9.07489827247086
 30
0.0
 10
34.19911837252661
 20
-9.07489827247086
 30
0.0
 10
33.75366752628381
 20
-9.64592284915102
 30
0.0
 10
33.75366752628381
 20
-9.64592284915102
 30
0.0
 10
30.56247557829688
 20
-13.73215060420585
 30
0.0
 10
27.66446125610472
 20
-17.98322617822989
 30
0.0
 10
24.80158690786211
 20
-22.21242539592259
 30
0.0
 10
22.00089653312825
 20
-18.03903672509094
 30
0.0
 10
19.16799451560731
 20
-13.85393472960943
 30
0.0
 10
16.05483398036129
 20
-9.831441241031724
 30
0.0
 10
16.05483398036129
 20
-9.831441241031724
 30
0.0
 10
15.61127793663537
 20
-9.25817735228615
 30
0.0
 10
15.61127793663537
 20
-9.25817735228615
 30
0.0
 10
16.03519693609537
 20
-8.783443194418723
 30
0.0
 10
16.47875297982128
 20
-8.32627902352607
 30
0.0
 10
16.94091253916755
 20
-7.887890623028028
 30
0.0
  0
SPLINE
  5
3E
330
1F
100
AcDbEntity
  8
Layer 1
370
     0
100
AcDbSpline
210
0.0
220
0.0
230
1.0
 70
    11
 71
     3
 72
    29
 73
    25
 74
     0
 42
0.0000000001
 43
0.0000000001
 40
0.0
 40
0.0
 40
0.0
 40
0.0
 40
1.0
 40
1.0
 40
1.0
 40
2.0
 40
2.0
 40
2.0
 40
3.0
 40
3.0
 40
3.0
 40
4.0
 40
4.0
 40
4.0
 40
5.0
 40
5.0
 40
5.0
 40
6.0
 40
6.0
 40
6.0
 40
7.0
 40
7.0
 40
7.0
 40
8.0
 40
8.0
 40
8.0
 40
8.0
 10
3.906393770724791
 20
-4.462948946366902
 30
0.0
 10
4.12412380539258
 20
-3.997344291535387
 30
0.0
 10
4.370103623039419
 20
-3.581004502142943
 30
0.0
 10
4.743035209317713
 20
-3.566879610653419
 30
0.0
 10
4.743035209317713
 20
-3.566879610653419
 30
0.0
 10
4.744585502286076
 20
-3.566879610653419
 30
0.0
 10
4.744585502286076
 20
-3.566879610653419
 30
0.0
 10
5.873371038028186
 20
-3.523299152765009
 30
0.0
 10
6.811815048210241
 20
-4.470872665982976
 30
0.0
 10
7.535285100112707
 20
-4.970583766118465
 30
0.0
 10
8.828746200049759
 20
-5.986542424718643
 30
0.0
 10
9.99783935296929
 20
-7.189053003845098
 30
0.0
 10
11.11990695251516
 20
-8.480963810813787
 30
0.0
 10
9.88862982608687
 20
-10.08913438332841
 30
0.0
 10
8.777414277319536
 20
-11.78326008820002
 30
0.0
 10
7.795734318797595
 20
-13.55076632690745
 30
0.0
 10
6.690892196677972
 20
-15.51808810375937
 30
0.0
 10
5.700427244668643
 20
-17.54587130637742
 30
0.0
 10
4.829851615546009
 20
-19.62412515785439
 30
0.0
 10
3.882967121425092
 20
-16.05190564919883
 30
0.0
 10
3.258199055175034
 20
-12.43972303291438
 30
0.0
 10
3.258199055175034
 20
-8.832019040760745
 30
0.0
 10
3.290238443187857
 20
-7.189397513393623
 30
0.0
 10
3.326584200557243
 20
-5.646339245550221
 30
0.0
 10
3.906393770724791
 20
-4.462948946366902
 30
0.0
  0
SPLINE
  5
3F
330
1F
100
AcDbEntity
  8
Layer 1
370
     0
100
AcDbSpline
210
0.0
220
0.0
230
1.0
 70
    11
 71
     3
 72
    26
 73
    22
 74
     0
 42
0.0000000001
 43
0.0000000001
 40
0.0
 40
0.0
 40
0.0
 40
0.0
 40
1.0
 40
1.0
 40
1.0
 40
2.0
 40
2.0
 40
2.0
 40
3.0
 40
3.0
 40
3.0
 40
4.0
 40
4.0
 40
4.0
 40
5.0
 40
5.0
 40
5.0
 40
6.0
 40
6.0
 40
6.0
 40
7.0
 40
7.0
 40
7.0
 40
7.0
 10
7.309803600603105
 20
-44.99777017104223
 30
0.0
 10
6.629224987492
 20
-45.60514050509178
 30
0.0
 10
5.818938529361238
 20
-46.45917967588521
 30
0.0
 10
4.913911945386106
 20
-46.32723251880014
 30
0.0
 10
4.591451007966721
 20
-46.28175725839484
 30
0.0
 10
4.434354653839328
 20
-46.08917642076938
 30
0.0
 10
4.237122937308775
 20
-45.63614636445902
 30
0.0
 10
3.759288193504623
 20
-44.53957247150399
 30
0.0
 10
3.658519150561065
 20
-43.04371201180852
 30
0.0
 10
3.620278590674792
 20
-41.4134928281883
 30
0.0
 10
3.620278590674792
 20
-37.79131943499662
 30
0.0
 10
4.260894096156999
 20
-34.15743271715509
 30
0.0
 10
5.222420246090229
 20
-30.55524087777786
 30
0.0
 10
6.077837455077763
 20
-32.59267034775461
 30
0.0
 10
7.049009872369692
 20
-34.57945691409819
 30
0.0
 10
8.131975638157979
 20
-36.5087103858381
 30
0.0
 10
9.030801050259662
 20
-38.1096462578337
 30
0.0
 10
10.03194579827326
 20
-39.6802652895591
 30
0.0
 10
11.1541856525934
 20
-41.1778482969972
 30
0.0
 10
9.949263506627268
 20
-42.59619410827457
 30
0.0
 10
8.566918943170771
 20
-43.88018119562718
 30
0.0
 10
7.309803600603105
 20
-44.99777017104223
 30
0.0
  0
SPLINE
  5
40
330
1F
100
AcDbEntity
  8
Layer 1
370
     0
100
AcDbSpline
210
0.0
220
0.0
230
1.0
 70
    11
 71
     3
 72
    26
 73
    22
 74
     0
 42
0.0000000001
 43
0.0000000001
 40
0.0
 40
0.0
 40
0.0
 40
0.0
 40
1.0
 40
1.0
 40
1.0
 40
2.0
 40
2.0
 40
2.0
 40
3.0
 40
3.0
 40
3.0
 40
4.0
 40
4.0
 40
4.0
 40
5.0
 40
5.0
 40
5.0
 40
6.0
 40
6.0
 40
6.0
 40
7.0
 40
7.0
 40
7.0
 40
7.0
 10
13.40486653310712
 20
-38.40110133588584
 30
0.0
 10
13.40486653310712
 20
-38.40110133588584
 30
0.0
 10
13.2432915548489
 20
-38.60574000770968
 30
0.0
 10
13.2432915548489
 20
-38.60574000770968
 30
0.0
 10
12.40802815445008
 20
-37.43061793769096
 30
0.0
 10
11.63184814162329
 20
-36.21449923139777
 30
0.0
 10
10.91854112140231
 20
-34.96220702250945
 30
0.0
 10
9.23595648640629
 20
-32.01527234442674
 30
0.0
 10
7.855678980240942
 20
-28.88919270111104
 30
0.0
 10
6.703122285650609
 20
-25.66940646059654
 30
0.0
 10
7.912178546199039
 20
-22.12113036556347
 30
0.0
 10
9.393225095307944
 20
-18.68016899489593
 30
0.0
 10
11.23462863217398
 20
-15.45659314934766
 30
0.0
 10
11.99633924396272
 20
-14.13040364230073
 30
0.0
 10
12.81041530712726
 20
-12.84452175243123
 30
0.0
 10
13.692876515674
 20
-11.62960882955788
 30
0.0
 10
16.98897162118678
 20
-15.84898952511761
 30
0.0
 10
20.00739203058843
 20
-20.31710611471239
 30
0.0
 10
23.04579399380453
 20
-24.80537651289588
 30
0.0
 10
19.90300563738536
 20
-29.44247503604216
 30
0.0
 10
16.80207519111198
 20
-34.0582139671799
 30
0.0
 10
13.40486653310712
 20
-38.40110133588584
 30
0.0
  0
SPLINE
  5
41
330
1F
100
AcDbEntity
  8
Layer 1
370
     0
100
AcDbSpline
210
0.0
220
0.0
230
1.0
 70
    11
 71
     3
 72
    32
 73
    28
 74
     0
 42
0.0000000001
 43
0.0000000001
 40
0.0
 40
0.0
 40
0.0
 40
0.0
 40
1.0
 40
1.0
 40
1.0
 40
2.0
 40
2.0
 40
2.0
 40
3.0
 40
3.0
 40
3.0
 40
4.0
 40
4.0
 40
4.0
 40
5.0
 40
5.0
 40
5.0
 40
6.0
 40
6.0
 40
6.0
 40
7.0
 40
7.0
 40
7.0
 40
8.0
 40
8.0
 40
8.0
 40
9.0
 40
9.0
 40
9.0
 40
9.0
 10
33.3302652911466
 20
-42.58413627407619
 30
0.0
 10
30.92421060424812
 20
-44.81070148619316
 30
0.0
 10
27.9965684608828
 20
-46.59870604303782
 30
0.0
 10
25.02448458575777
 20
-46.52877060468725
 30
0.0
 10
22.05240071063274
 20
-46.61420897272145
 30
0.0
 10
19.10856661848675
 20
-44.83619519278401
 30
0.0
 10
16.68649223758185
 20
-42.61583115254049
 30
0.0
 10
16.33061387395554
 20
-42.27752277588895
 30
0.0
 10
15.98507079678498
 20
-41.92819009368462
 30
0.0
 10
15.65089653471575
 20
-41.56921114412159
 30
0.0
 10
15.89291449255455
 20
-41.26259764593435
 30
0.0
 10
16.12855902374564
 20
-40.95598414774712
 30
0.0
 10
16.36403130016247
 20
-40.64937064955988
 30
0.0
 10
19.53369140136658
 20
-36.55487466534045
 30
0.0
 10
22.40896809335609
 20
-32.29811468376575
 30
0.0
 10
25.24996608526737
 20
-28.0627142941996
 30
0.0
 10
25.24996608526737
 20
-28.0627142941996
 30
0.0
 10
25.95913899090605
 20
-29.11036783126407
 30
0.0
 10
25.95913899090605
 20
-29.11036783126407
 30
0.0
 10
28.70935871678099
 20
-33.16248914101494
 30
0.0
 10
31.32280815189152
 20
-36.82944877551486
 30
0.0
 10
34.14571939250524
 20
-40.30038247690408
 30
0.0
 10
34.14571939250524
 20
-40.30038247690408
 30
0.0
 10
34.77789441404858
 20
-41.07311739424561
 30
0.0
 10
34.77789441404858
 20
-41.07311739424561
 30
0.0
 10
34.31831867631625
 20
-41.59746092710063
 30
0.0
 10
33.83462727018718
 20
-42.10182290614122
 30
0.0
 10
33.3302652911466
 20
-42.58413627407619
 30
0.0
  0
SPLINE
  5
42
330
1F
100
AcDbEntity
  8
Layer 1
370
     0
100
AcDbSpline
210
0.0
220
0.0
230
1.0
 70
    11
 71
     3
 72
    59
 73
    55
 74
     0
 42
0.0000000001
 43
0.0000000001
 40
0.0
 40
0.0
 40
0.0
 40
0.0
 40
1.0
 40
1.0
 40
1.0
 40
2.0
 40
2.0
 40
2.0
 40
3.0
 40
3.0
 40
3.0
 40
4.0
 40
4.0
 40
4.0
 40
5.0
 40
5.0
 40
5.0
 40
6.0
 40
6.0
 40
6.0
 40
7.0
 40
7.0
 40
7.0
 40
8.0
 40
8.0
 40
8.0
 40
9.0
 40
9.0
 40
9.0
 40
10.0
 40
10.0
 40
10.0
 40
11.0
 40
11.0
 40
11.0
 40
12.0
 40
12.0
 40
12.0
 40
13.0
 40
13.0
 40
13.0
 40
14.0
 40
14.0
 40
14.0
 40
15.0
 40
15.0
 40
15.0
 40
16.0
 40
16.0
 40
16.0
 40
17.0
 40
17.0
 40
17.0
 40
18.0
 40
18.0
 40
18.0
 40
18.0
 10
36.40742457857176
 20
-39.05429143988921
 30
0.0
 10
36.40742457857176
 20
-39.05429143988921
 30
0.0
 10
36.17935925744822
 20
-38.75594617086657
 30
0.0
 10
36.17935925744822
 20
-38.75594617086657
 30
0.0
 10
33.51974554283535
 20
-35.18958332453594
 30
0.0
 10
31.10921223180603
 20
-31.60737303897316
 30
0.0
 10
28.31696234101104
 20
-27.45362141240743
 30
0.0
 10
28.31696234101104
 20
-27.45362141240743
 30
0.0
 10
26.98956705054428
 20
-25.4744140561314
 30
0.0
 10
26.98956705054428
 20
-25.4744140561314
 30
0.0
 10
30.08636338223535
 20
-20.86056992751055
 30
0.0
 10
33.14319660629754
 20
-16.26877440999531
 30
0.0
 10
36.48941785112071
 20
-11.94018418755315
 30
0.0
 10
37.47540417899921
 20
-13.34716118372918
 30
0.0
 10
38.37733017703761
 20
-14.80960421721774
 30
0.0
 10
39.189339182911
 20
-16.32131211614537
 30
0.0
 10
39.64064669147873
 20
-16.97226290808332
 30
0.0
 10
40.3034830628408
 20
-17.30678167970108
 30
0.0
 10
40.94599337083989
 20
-17.28886718317779
 30
0.0
 10
42.07908527593857
 20
-17.29093424046894
 30
0.0
 10
42.9992702800488
 20
-16.38521863739675
 30
0.0
 10
43.00099282779142
 20
-15.26573485946482
 30
0.0
 10
43.00099282779142
 20
-15.26573485946482
 30
0.0
 10
43.00099282779142
 20
-15.25987819713989
 30
0.0
 10
43.00099282779142
 20
-15.25987819713989
 30
0.0
 10
42.98480087901075
 20
-14.95274793462987
 30
0.0
 10
42.91899955524247
 20
-14.65095757012198
 30
0.0
 10
42.80772297106891
 20
-14.36380886142641
 30
0.0
 10
42.66923013256186
 20
-14.07097574518017
 30
0.0
 10
42.49353026281412
 20
-13.79433457771461
 30
0.0
 10
42.33229979410443
 20
-13.51355929566675
 30
0.0
 10
41.38420951656367
 20
-11.82494574357154
 30
0.0
 10
40.31898599252442
 20
-10.20282253434166
 30
0.0
 10
39.14455294160275
 20
-8.65941975694973
 30
0.0
 10
40.2538736878532
 20
-7.371126300240552
 30
0.0
 10
41.65189343576758
 20
-5.921257865273158
 30
0.0
 10
42.65648327926644
 20
-5.087200248294172
 30
0.0
 10
43.60422904725867
 20
-4.298617891720484
 30
0.0
 10
44.26051973719876
 20
-3.639398870617928
 30
0.0
 10
45.19930825692934
 20
-3.794944931776958
 30
0.0
 10
45.5503634868763
 20
-3.855061847994568
 30
0.0
 10
45.76189234967064
 20
-4.29482828668671
 30
0.0
 10
45.93552516212723
 20
-4.555794269694385
 30
0.0
 10
46.50362140764493
 20
-5.682512748145344
 30
0.0
 10
46.5432400057253
 20
-7.19611544958986
 30
0.0
 10
46.58389213245125
 20
-8.83305256940632
 30
0.0
 10
46.61007485813915
 20
-14.08975151557478
 30
0.0
 10
45.30851778381176
 20
-19.38038465227296
 30
0.0
 10
43.59630532764259
 20
-24.54957817311608
 30
0.0
 10
42.39362249374187
 20
-28.14918619087937
 30
0.0
 10
40.91085339689035
 20
-31.64630261795648
 30
0.0
 10
39.05601398763183
 20
-34.92327744352612
 30
0.0
 10
38.24228243401582
 20
-36.35643716539006
 30
0.0
 10
37.36826170940794
 20
-37.74756672233394
 30
0.0
 10
36.40742457857176
 20
-39.05429143988921
 30
0.0
  0
HATCH
  5
43
330
1F
100
AcDbEntity
  8
Layer 1
 62
     7
420
 16777215
100
AcDbHatch
 10
0.0
 20
0.0
 30
0.0
210
0.0
220
0.0
230
1.0
  2
SOLID
 70
     1
 71
     0
 91
        7
 92
        1
 93
        1
 72
     4
 94
        3
 73
     0
 74
     1
 95
      116
 96
      112
 40
0.0
 40
0.0
 40
0.0
 40
0.0
 40
1.0
 40
1.0
 40
1.0
 40
2.0
 40
2.0
 40
2.0
 40
3.0
 40
3.0
 40
3.0
 40
4.0
 40
4.0
 40
4.0
 40
5.0
 40
5.0
 40
5.0
 40
6.0
 40
6.0
 40
6.0
 40
7.0
 40
7.0
 40
7.0
 40
8.0
 40
8.0
 40
8.0
 40
9.0
 40
9.0
 40
9.0
 40
10.0
 40
10.0
 40
10.0
 40
11.0
 40
11.0
 40
11.0
 40
12.0
 40
12.0
 40
12.0
 40
13.0
 40
13.0
 40
13.0
 40
14.0
 40
14.0
 40
14.0
 40
15.0
 40
15.0
 40
15.0
 40
16.0
 40
16.0
 40
16.0
 40
17.0
 40
17.0
 40
17.0
 40
18.0
 40
18.0
 40
18.0
 40
19.0
 40
19.0
 40
19.0
 40
20.0
 40
20.0
 40
20.0
 40
21.0
 40
21.0
 40
21.0
 40
22.0
 40
22.0
 40
22.0
 40
23.0
 40
23.0
 40
23.0
 40
24.0
 40
24.0
 40
24.0
 40
25.0
 40
25.0
 40
25.0
 40
26.0
 40
26.0
 40
26.0
 40
27.0
 40
27.0
 40
27.0
 40
28.0
 40
28.0
 40
28.0
 40
29.0
 40
29.0
 40
29.0
 40
30.0
 40
30.0
 40
30.0
 40
31.0
 40
31.0
 40
31.0
 40
32.0
 40
32.0
 40
32.0
 40
33.0
 40
33.0
 40
33.0
 40
34.0
 40
34.0
 40
34.0
 40
35.0
 40
35.0
 40
35.0
 40
36.0
 40
36.0
 40
36.0
 40
37.0
 40
37.0
 40
37.0
 40
37.0
 10
47.37178546992789
 20
-33.15835502643264
 10
47.65772839520363
 20
-35.30912813787411
 10
47.98776854269056
 20
-38.34356824128216
 10
47.82550454533529
 20
-41.41383733773682
 10
47.73489853407322
 20
-42.946904828673
 10
47.59330510962945
 20
-44.71699488899436
 10
46.85639918533451
 20
-46.1005452358707
 10
46.46400280956455
 20
-46.77750649872229
 10
45.79875487136281
 20
-47.43104111227419
 10
45.21446667706444
 20
-47.29117023557304
 10
44.22675780144331
 20
-47.30770669390224
 10
43.30037162545963
 20
-46.51257865590658
 10
42.20483126115018
 20
-45.65853948511315
 10
40.8605550028057
 20
-44.51924640814102
 10
39.68543293278697
 20
-43.22389050568709
 10
38.51582301554465
 20
-41.7803954973674
 10
39.80773382251335
 20
-40.12606064535043
 10
40.97148707743074
 20
-38.37836370568319
 10
41.99674749384109
 20
-36.55108506030668
 10
43.98318955063615
 20
-33.06258137194269
 10
45.56896700249665
 20
-29.37908527911356
 10
46.84227429384499
 20
-25.61531846147811
 10
48.66576333418773
 20
-20.28265515985989
 10
50.05034720970963
 20
-14.64200032186033
 10
50.07549640675196
 20
-8.832019040760745
 10
50.11614853347791
 20
-7.077604164897266
 10
49.97937824271349
 20
-5.090300834230897
 10
49.13739690611843
 20
-3.129180229252427
 10
48.5813584947991
 20
-1.707044812941295
 10
47.19470756198605
 20
-0.3808553058943695
 10
45.21446667706444
 20
-0.3493326822043335
 10
43.09297687724759
 20
-0.3155707464488851
 10
41.51305608771202
 20
-1.468299695813481
 10
40.45231118780359
 20
-2.440333386976723
 10
39.14455294160275
 20
-3.501422796433672
 10
37.92671168756694
 20
-4.666898599093693
 10
36.81222329808861
 20
-5.92487521553267
 10
36.51663410545417
 20
-5.616022405280022
 10
36.21449923139777
 20
-5.314404295546399
 10
35.9061631854679
 20
-5.018815102911963
 10
33.12907171480801
 20
-2.295122612273442
 10
29.33671060464499
 20
-0.1798339843300415
 10
25.02500135008056
 20
-0.0925008137789581
 10
25.02500135008056
 20
-0.0925008137789581
 10
25.02500135008056
 20
-0.0907782660363332
 10
25.02500135008056
 20
-0.0907782660363332
 10
20.71329209551612
 20
-0.1924085828512034
 10
16.9374674436823
 20
-2.320788573638553
 10
14.17467311928619
 20
-5.0489596884079
 10
13.79777967319986
 20
-5.413450790747332
 10
13.43104925879502
 20
-5.788104924768252
 10
13.0743096212974
 20
-6.171544052276559
 10
11.96171603433596
 20
-4.897030977508382
 10
10.74197997778326
 20
-3.716396754713262
 10
9.42957085267733
 20
-2.643249511057938
 10
8.371754283931367
 20
-1.687580023449633
 10
6.850572372419301
 20
-0.5724026148742605
 10
4.835708277870935
 20
-0.5944512259798594
 10
2.988103569131447
 20
-0.6180501300538208
 10
1.670182291249121
 20
-1.868792045973774
 10
1.126201714128172
 20
-3.22271457167696
 10
0.2961059569572235
 20
-5.12647433682602
 10
0.159335666192805
 20
-7.085355629739079
 10
0.1877577039461161
 20
-8.832019040760745
 10
0.1877577039461161
 20
-14.22204318220838
 10
1.375798882034523
 20
-19.48046467611947
 10
2.994304741004896
 20
-24.49428439057782
 10
2.982591416355047
 20
-24.51443819916653
 10
2.980524359063897
 20
-24.53441975298098
 10
2.973978677641922
 20
-24.5540567972469
 10
1.166337076531333
 20
-29.90584037880826
 10
-0.1972317165305532
 20
-35.57474499978687
 10
-0.2032606336297404
 20
-41.4134928281883
 10
-0.2396063909991262
 20
-43.17359211160244
 10
-0.0906060112620707
 20
-45.18380532724571
 10
0.771873643470226
 20
-47.17920463230242
 10
1.344448513118749
 20
-48.64440374217918
 10
2.778986273176781
 20
-50.00693900659549
 10
4.836052787419459
 20
-50.03691133731716
 10
7.018348522550968
 20
-50.06722817758736
 10
8.620317923192143
 20
-48.88521591659814
 10
9.67572292509843
 20
-47.90164115555931
 10
11.0921739338589
 20
-46.73892142928749
 10
12.40389403986778
 20
-45.45493434193488
 10
13.59469129434438
 20
-44.06690537092772
 10
13.87081569748716
 20
-44.35629339168871
 10
14.15279676295486
 20
-44.64051376922182
 10
14.44063449074748
 20
-44.91956650352706
 10
17.16691080299994
 20
-47.59709471466323
 10
20.85385199131431
 20
-49.69033473150103
 10
25.02500135008056
 20
-49.7712944754044
 10
29.19580619929827
 20
-49.70445962299056
 10
32.89928384594185
 20
-47.62534449764227
 10
35.63951279490957
 20
-44.95298392973397
 10
36.10115558993304
 20
-44.51511229355872
 10
36.53799369746272
 20
-44.05725910356902
 10
36.96553004718223
 20
-43.59320474170587
 10
38.19680717361052
 20
-44.92645669449755
 10
39.48423935644838
 20
-46.15325519679502
 10
40.92187770244314
 20
-47.22881400729002
 10
42.06633842264314
 20
-48.1524441068855
 10
43.51569009328774
 20
-48.99821504851434
 10
45.21446667706444
 20
-49.00855033497009
 10
46.74960122529177
 20
-48.86764592962337
 10
47.77968477538147
 20
-47.81206867294282
 10
48.2020534818731
 20
-46.69861381211007
 10
48.92173392874179
 20
-44.88132594364078
 10
48.90140786537881
 20
-42.9758436307491
 10
48.80839028727707
 20
-41.41280380909124
 10
48.64095864669393
 20
-38.2157551987794
 10
47.93988171544559
 20
-35.25056151462486
 10
47.37178546992789
 20
-33.15835502643264
 97
        0
 92
        1
 93
        1
 72
     4
 94
        3
 73
     0
 74
     1
 95
       29
 96
       25
 40
0.0
 40
0.0
 40
0.0
 40
0.0
 40
1.0
 40
1.0
 40
1.0
 40
2.0
 40
2.0
 40
2.0
 40
3.0
 40
3.0
 40
3.0
 40
4.0
 40
4.0
 40
4.0
 40
5.0
 40
5.0
 40
5.0
 40
6.0
 40
6.0
 40
6.0
 40
7.0
 40
7.0
 40
7.0
 40
8.0
 40
8.0
 40
8.0
 40
8.0
 10
16.94091253916755
 20
-7.887890623028028
 10
19.32457410541191
 20
-5.717135957772105
 10
22.18779296320305
 20
-3.975123425655525
 10
25.02500135008056
 20
-4.076753742470395
 10
27.86186522740953
 20
-3.989248317145049
 10
30.70682507912885
 20
-5.745385740751153
 10
33.07808430162631
 20
-7.920102265815114
 10
33.4653130341684
 20
-8.288382973188321
 10
33.83669432747833
 20
-8.676645234375979
 10
34.19911837252661
 20
-9.07489827247086
 10
34.19911837252661
 20
-9.07489827247086
 10
33.75366752628381
 20
-9.64592284915102
 10
33.75366752628381
 20
-9.64592284915102
 10
30.56247557829688
 20
-13.73215060420585
 10
27.66446125610472
 20
-17.98322617822989
 10
24.80158690786211
 20
-22.21242539592259
 10
22.00089653312825
 20
-18.03903672509094
 10
19.16799451560731
 20
-13.85393472960943
 10
16.05483398036129
 20
-9.831441241031724
 10
16.05483398036129
 20
-9.831441241031724
 10
15.61127793663537
 20
-9.25817735228615
 10
15.61127793663537
 20
-9.25817735228615
 10
16.03519693609537
 20
-8.783443194418723
 10
16.47875297982128
 20
-8.32627902352607
 10
16.94091253916755
 20
-7.887890623028028
 97
        0
 92
        1
 93
        1
 72
     4
 94
        3
 73
     0
 74
     1
 95
       29
 96
       25
 40
0.0
 40
0.0
 40
0.0
 40
0.0
 40
1.0
 40
1.0
 40
1.0
 40
2.0
 40
2.0
 40
2.0
 40
3.0
 40
3.0
 40
3.0
 40
4.0
 40
4.0
 40
4.0
 40
5.0
 40
5.0
 40
5.0
 40
6.0
 40
6.0
 40
6.0
 40
7.0
 40
7.0
 40
7.0
 40
8.0
 40
8.0
 40
8.0
 40
8.0
 10
3.906393770724791
 20
-4.462948946366902
 10
4.12412380539258
 20
-3.997344291535387
 10
4.370103623039419
 20
-3.581004502142943
 10
4.743035209317713
 20
-3.566879610653419
 10
4.743035209317713
 20
-3.566879610653419
 10
4.744585502286076
 20
-3.566879610653419
 10
4.744585502286076
 20
-3.566879610653419
 10
5.873371038028186
 20
-3.523299152765009
 10
6.811815048210241
 20
-4.470872665982976
 10
7.535285100112707
 20
-4.970583766118465
 10
8.828746200049759
 20
-5.986542424718643
 10
9.99783935296929
 20
-7.189053003845098
 10
11.11990695251516
 20
-8.480963810813787
 10
9.88862982608687
 20
-10.08913438332841
 10
8.777414277319536
 20
-11.78326008820002
 10
7.795734318797595
 20
-13.55076632690745
 10
6.690892196677972
 20
-15.51808810375937
 10
5.700427244668643
 20
-17.54587130637742
 10
4.829851615546009
 20
-19.62412515785439
 10
3.882967121425092
 20
-16.05190564919883
 10
3.258199055175034
 20
-12.43972303291438
 10
3.258199055175034
 20
-8.832019040760745
 10
3.290238443187857
 20
-7.189397513393623
 10
3.326584200557243
 20
-5.646339245550221
 10
3.906393770724791
 20
-4.462948946366902
 97
        0
 92
        1
 93
        1
 72
     4
 94
        3
 73
     0
 74
     1
 95
       26
 96
       22
 40
0.0
 40
0.0
 40
0.0
 40
0.0
 40
1.0
 40
1.0
 40
1.0
 40
2.0
 40
2.0
 40
2.0
 40
3.0
 40
3.0
 40
3.0
 40
4.0
 40
4.0
 40
4.0
 40
5.0
 40
5.0
 40
5.0
 40
6.0
 40
6.0
 40
6.0
 40
7.0
 40
7.0
 40
7.0
 40
7.0
 10
7.309803600603105
 20
-44.99777017104223
 10
6.629224987492
 20
-45.60514050509178
 10
5.818938529361238
 20
-46.45917967588521
 10
4.913911945386106
 20
-46.32723251880014
 10
4.591451007966721
 20
-46.28175725839484
 10
4.434354653839328
 20
-46.08917642076938
 10
4.237122937308775
 20
-45.63614636445902
 10
3.759288193504623
 20
-44.53957247150399
 10
3.658519150561065
 20
-43.04371201180852
 10
3.620278590674792
 20
-41.4134928281883
 10
3.620278590674792
 20
-37.79131943499662
 10
4.260894096156999
 20
-34.15743271715509
 10
5.222420246090229
 20
-30.55524087777786
 10
6.077837455077763
 20
-32.59267034775461
 10
7.049009872369692
 20
-34.57945691409819
 10
8.131975638157979
 20
-36.5087103858381
 10
9.030801050259662
 20
-38.1096462578337
 10
10.03194579827326
 20
-39.6802652895591
 10
11.1541856525934
 20
-41.1778482969972
 10
9.949263506627268
 20
-42.59619410827457
 10
8.566918943170771
 20
-43.88018119562718
 10
7.309803600603105
 20
-44.99777017104223
 97
        0
 92
        1
 93
        1
 72
     4
 94
        3
 73
     0
 74
     1
 95
       26
 96
       22
 40
0.0
 40
0.0
 40
0.0
 40
0.0
 40
1.0
 40
1.0
 40
1.0
 40
2.0
 40
2.0
 40
2.0
 40
3.0
 40
3.0
 40
3.0
 40
4.0
 40
4.0
 40
4.0
 40
5.0
 40
5.0
 40
5.0
 40
6.0
 40
6.0
 40
6.0
 40
7.0
 40
7.0
 40
7.0
 40
7.0
 10
13.40486653310712
 20
-38.40110133588584
 10
13.40486653310712
 20
-38.40110133588584
 10
13.2432915548489
 20
-38.60574000770968
 10
13.2432915548489
 20
-38.60574000770968
 10
12.40802815445008
 20
-37.43061793769096
 10
11.63184814162329
 20
-36.21449923139777
 10
10.91854112140231
 20
-34.96220702250945
 10
9.23595648640629
 20
-32.01527234442674
 10
7.855678980240942
 20
-28.88919270111104
 10
6.703122285650609
 20
-25.66940646059654
 10
7.912178546199039
 20
-22.12113036556347
 10
9.393225095307944
 20
-18.68016899489593
 10
11.23462863217398
 20
-15.45659314934766
 10
11.99633924396272
 20
-14.13040364230073
 10
12.81041530712726
 20
-12.84452175243123
 10
13.692876515674
 20
-11.62960882955788
 10
16.98897162118678
 20
-15.84898952511761
 10
20.00739203058843
 20
-20.31710611471239
 10
23.04579399380453
 20
-24.80537651289588
 10
19.90300563738536
 20
-29.44247503604216
 10
16.80207519111198
 20
-34.0582139671799
 10
13.40486653310712
 20
-38.40110133588584
 97
        0
 92
        1
 93
        1
 72
     4
 94
        3
 73
     0
 74
     1
 95
       32
 96
       28
 40
0.0
 40
0.0
 40
0.0
 40
0.0
 40
1.0
 40
1.0
 40
1.0
 40
2.0
 40
2.0
 40
2.0
 40
3.0
 40
3.0
 40
3.0
 40
4.0
 40
4.0
 40
4.0
 40
5.0
 40
5.0
 40
5.0
 40
6.0
 40
6.0
 40
6.0
 40
7.0
 40
7.0
 40
7.0
 40
8.0
 40
8.0
 40
8.0
 40
9.0
 40
9.0
 40
9.0
 40
9.0
 10
33.3302652911466
 20
-42.58413627407619
 10
30.92421060424812
 20
-44.81070148619316
 10
27.9965684608828
 20
-46.59870604303782
 10
25.02448458575777
 20
-46.52877060468725
 10
22.05240071063274
 20
-46.61420897272145
 10
19.10856661848675
 20
-44.83619519278401
 10
16.68649223758185
 20
-42.61583115254049
 10
16.33061387395554
 20
-42.27752277588895
 10
15.98507079678498
 20
-41.92819009368462
 10
15.65089653471575
 20
-41.56921114412159
 10
15.89291449255455
 20
-41.26259764593435
 10
16.12855902374564
 20
-40.95598414774712
 10
16.36403130016247
 20
-40.64937064955988
 10
19.53369140136658
 20
-36.55487466534045
 10
22.40896809335609
 20
-32.29811468376575
 10
25.24996608526737
 20
-28.0627142941996
 10
25.24996608526737
 20
-28.0627142941996
 10
25.95913899090605
 20
-29.11036783126407
 10
25.95913899090605
 20
-29.11036783126407
 10
28.70935871678099
 20
-33.16248914101494
 10
31.32280815189152
 20
-36.82944877551486
 10
34.14571939250524
 20
-40.30038247690408
 10
34.14571939250524
 20
-40.30038247690408
 10
34.77789441404858
 20
-41.07311739424561
 10
34.77789441404858
 20
-41.07311739424561
 10
34.31831867631625
 20
-41.59746092710063
 10
33.83462727018718
 20
-42.10182290614122
 10
33.3302652911466
 20
-42.58413627407619
 97
        0
 92
        1
 93
        1
 72
     4
 94
        3
 73
     0
 74
     1
 95
       59
 96
       55
 40
0.0
 40
0.0
 40
0.0
 40
0.0
 40
1.0
 40
1.0
 40
1.0
 40
2.0
 40
2.0
 40
2.0
 40
3.0
 40
3.0
 40
3.0
 40
4.0
 40
4.0
 40
4.0
 40
5.0
 40
5.0
 40
5.0
 40
6.0
 40
6.0
 40
6.0
 40
7.0
 40
7.0
 40
7.0
 40
8.0
 40
8.0
 40
8.0
 40
9.0
 40
9.0
 40
9.0
 40
10.0
 40
10.0
 40
10.0
 40
11.0
 40
11.0
 40
11.0
 40
12.0
 40
12.0
 40
12.0
 40
13.0
 40
13.0
 40
13.0
 40
14.0
 40
14.0
 40
14.0
 40
15.0
 40
15.0
 40
15.0
 40
16.0
 40
16.0
 40
16.0
 40
17.0
 40
17.0
 40
17.0
 40
18.0
 40
18.0
 40
18.0
 40
18.0
 10
36.40742457857176
 20
-39.05429143988921
 10
36.40742457857176
 20
-39.05429143988921
 10
36.17935925744822
 20
-38.75594617086657
 10
36.17935925744822
 20
-38.75594617086657
 10
33.51974554283535
 20
-35.18958332453594
 10
31.10921223180603
 20
-31.60737303897316
 10
28.31696234101104
 20
-27.45362141240743
 10
28.31696234101104
 20
-27.45362141240743
 10
26.98956705054428
 20
-25.4744140561314
 10
26.98956705054428
 20
-25.4744140561314
 10
30.08636338223535
 20
-20.86056992751055
 10
33.14319660629754
 20
-16.26877440999531
 10
36.48941785112071
 20
-11.94018418755315
 10
37.47540417899921
 20
-13.34716118372918
 10
38.37733017703761
 20
-14.80960421721774
 10
39.189339182911
 20
-16.32131211614537
 10
39.64064669147873
 20
-16.97226290808332
 10
40.3034830628408
 20
-17.30678167970108
 10
40.94599337083989
 20
-17.28886718317779
 10
42.07908527593857
 20
-17.29093424046894
 10
42.9992702800488
 20
-16.38521863739675
 10
43.00099282779142
 20
-15.26573485946482
 10
43.00099282779142
 20
-15.26573485946482
 10
43.00099282779142
 20
-15.25987819713989
 10
43.00099282779142
 20
-15.25987819713989
 10
42.98480087901075
 20
-14.95274793462987
 10
42.91899955524247
 20
-14.65095757012198
 10
42.80772297106891
 20
-14.36380886142641
 10
42.66923013256186
 20
-14.07097574518017
 10
42.49353026281412
 20
-13.79433457771461
 10
42.33229979410443
 20
-13.51355929566675
 10
41.38420951656367
 20
-11.82494574357154
 10
40.31898599252442
 20
-10.20282253434166
 10
39.14455294160275
 20
-8.65941975694973
 10
40.2538736878532
 20
-7.371126300240552
 10
41.65189343576758
 20
-5.921257865273158
 10
42.65648327926644
 20
-5.087200248294172
 10
43.60422904725867
 20
-4.298617891720484
 10
44.26051973719876
 20
-3.639398870617928
 10
45.19930825692934
 20
-3.794944931776958
 10
45.5503634868763
 20
-3.855061847994568
 10
45.76189234967064
 20
-4.29482828668671
 10
45.93552516212723
 20
-4.555794269694385
 10
46.50362140764493
 20
-5.682512748145344
 10
46.5432400057253
 20
-7.19611544958986
 10
46.58389213245125
 20
-8.83305256940632
 10
46.61007485813915
 20
-14.08975151557478
 10
45.30851778381176
 20
-19.38038465227296
 10
43.59630532764259
 20
-24.54957817311608
 10
42.39362249374187
 20
-28.14918619087937
 10
40.91085339689035
 20
-31.64630261795648
 10
39.05601398763183
 20
-34.92327744352612
 10
38.24228243401582
 20
-36.35643716539006
 10
37.36826170940794
 20
-37.74756672233394
 10
36.40742457857176
 20
-39.05429143988921
 97
        0
 75
     2
 76
     1
 98
        0
  0
ENDSEC
  0
SECTION
  2
OBJECTS
  0
DICTIONARY
  5
C
330
0
100
AcDbDictionary
281
     1
  3
ACAD_GROUP
350
D
  3
ACAD_LAYOUT
350
1A
  3
ACAD_MLINESTYLE
350
17
  3
ACAD_PLOTSETTINGS
350
19
  3
ACAD_PLOTSTYLENAME
350
E
  3
ACAD_TABLESTYLE
350
44
  3
ACAD_VISUALSTYLE
350
2A
  0
DICTIONARY
  5
D
102
{ACAD_REACTORS
330
C
102
}
330
C
100
AcDbDictionary
281
     1
  0
DICTIONARY
  5
1A
102
{ACAD_REACTORS
330
C
102
}
330
C
100
AcDbDictionary
281
     1
  3
Layout1
350
1E
  3
Layout2
350
26
  3
Model
350
22
  0
DICTIONARY
  5
17
102
{ACAD_REACTORS
330
C
102
}
330
C
100
AcDbDictionary
281
     1
  3
Standard
350
18
  0
DICTIONARY
  5
19
102
{ACAD_REACTORS
330
C
102
}
330
C
100
AcDbDictionary
281
     1
  0
ACDBDICTIONARYWDFLT
  5
E
102
{ACAD_REACTORS
330
C
102
}
330
C
100
AcDbDictionary
281
     1
  3
Normal
350
F
100
AcDbDictionaryWithDefault
340
F
  0
DICTIONARY
  5
44
102
{ACAD_REACTORS
330
C
102
}
330
C
100
AcDbDictionary
281
     1
  0
DICTIONARY
  5
2A
102
{ACAD_REACTORS
330
C
102
}
330
C
100
AcDbDictionary
281
     1
  3
2dWireframe
350
2F
  3
3D Hidden
350
31
  3
3dWireframe
350
30
  3
Basic
350
32
  3
Brighten
350
36
  3
ColorChange
350
3A
  3
Conceptual
350
34
  3
Dim
350
35
  3
Facepattern
350
39
  3
Flat
350
2B
  3
FlatWithEdges
350
2C
  3
Gouraud
350
2D
  3
GouraudWithEdges
350
2E
  3
Linepattern
350
38
  3
Realistic
350
33
  3
Thicken
350
37
  0
LAYOUT
  5
1E
102
{ACAD_REACTORS
330
1A
102
}
330
1A
100
AcDbPlotSettings
  1

  2
none_device
  4

  6

 40
0.0
 41
0.0
 42
0.0
 43
0.0
 44
0.0
 45
0.0
 46
0.0
 47
0.0
 48
0.0
 49
0.0
140
0.0
141
0.0
142
1.0
143
1.0
 70
   688
 72
     0
 73
     0
 74
     5
  7

 75
    16
 76
     0
 77
     2
 78
   300
147
1.0
148
0.0
149
0.0
100
AcDbLayout
  1
Layout1
 70
     1
 71
     1
 10
0.0
 20
0.0
 11
12.0
 21
9.0
 12
0.0
 22
0.0
 32
0.0
 14
1.000000000000000E+20
 24
1.000000000000000E+20
 34
1.000000000000000E+20
 15
-1.000000000000000E+20
 25
-1.000000000000000E+20
 35
-1.000000000000000E+20
146
0.0
 13
0.0
 23
0.0
 33
0.0
 16
1.0
 26
0.0
 36
0.0
 17
0.0
 27
1.0
 37
0.0
 76
     0
330
1B
  0
LAYOUT
  5
26
102
{ACAD_REACTORS
330
1A
102
}
330
1A
100
AcDbPlotSettings
  1

  2
none_device
  4

  6

 40
0.0
 41
0.0
 42
0.0
 43
0.0
 44
0.0
 45
0.0
 46
0.0
 47
0.0
 48
0.0
 49
0.0
140
0.0
141
0.0
142
1.0
143
1.0
 70
   688
 72
     0
 73
     0
 74
     5
  7

 75
    16
 76
     0
 77
     2
 78
   300
147
1.0
148
0.0
149
0.0
100
AcDbLayout
  1
Layout2
 70
     1
 71
     2
 10
0.0
 20
0.0
 11
0.0
 21
0.0
 12
0.0
 22
0.0
 32
0.0
 14
0.0
 24
0.0
 34
0.0
 15
0.0
 25
0.0
 35
0.0
146
0.0
 13
0.0
 23
0.0
 33
0.0
 16
1.0
 26
0.0
 36
0.0
 17
0.0
 27
1.0
 37
0.0
 76
     0
330
23
  0
LAYOUT
  5
22
102
{ACAD_REACTORS
330
1A
102
}
330
1A
100
AcDbPlotSettings
  1

  2
none_device
  4

  6

 40
0.0
 41
0.0
 42
0.0
 43
0.0
 44
0.0
 45
0.0
 46
0.0
 47
0.0
 48
0.0
 49
0.0
140
0.0
141
0.0
142
1.0
143
1.0
 70
  1712
 72
     0
 73
     0
 74
     0
  7

 75
     0
 76
     0
 77
     2
 78
   300
147
1.0
148
0.0
149
0.0
100
AcDbLayout
  1
Model
 70
     1
 71
     0
 10
0.0
 20
0.0
 11
12.0
 21
9.0
 12
0.0
 22
0.0
 32
0.0
 14
1.000000000000000E+20
 24
1.000000000000000E+20
 34
1.000000000000000E+20
 15
-1.000000000000000E+20
 25
-1.000000000000000E+20
 35
-1.000000000000000E+20
146
0.0
 13
0.0
 23
0.0
 33
0.0
 16
1.0
 26
0.0
 36
0.0
 17
0.0
 27
1.0
 37
0.0
 76
     0
330
1F
331
29
  0
MLINESTYLE
  5
18
102
{ACAD_REACTORS
330
17
102
}
330
17
100
AcDbMlineStyle
  2
Standard
 70
     0
  3

 62
   256
 51
90.0
 52
90.0
 71
     2
 49
0.5
 62
   256
  6
BYLAYER
 49
-0.5
 62
   256
  6
BYLAYER
  0
ACDBPLACEHOLDER
  5
F
102
{ACAD_REACTORS
330
E
102
}
330
E
  0
VISUALSTYLE
  5
2F
102
{ACAD_REACTORS
330
2A
102
}
330
2A
100
AcDbVisualStyle
  2
2dWireframe
 70
     4
 71
     0
 72
     2
 73
     0
 90
        0
 40
-0.6
 41
-30.0
 62
     5
 63
     7
421
 16777215
 74
     1
 91
        4
 64
     7
 65
   257
 75
     1
175
     1
 42
1.0
 92
        0
 66
   257
 43
1.0
 76
     1
 77
     6
 78
     2
 67
     7
 79
     5
170
     0
171
     0
290
     0
174
     0
 93
        1
 44
0.0
173
     0
291
     0
 45
0.0
1001
ACAD
1000
AcDbSavedByObjectVersion
1070
     0
  0
VISUALSTYLE
  5
31
102
{ACAD_REACTORS
330
2A
102
}
330
2A
100
AcDbVisualStyle
  2
3D Hidden
 70
     6
 71
     1
 72
     2
 73
     2
 90
        0
 40
-0.6
 41
-30.0
 62
     5
 63
     7
421
 16777215
 74
     2
 91
        2
 64
     7
 65
   257
 75
     2
175
     1
 42
40.0
 92
        0
 66
   257
 43
1.0
 76
     1
 77
     6
 78
     2
 67
     7
 79
     3
170
     0
171
     0
290
     0
174
     0
 93
        1
 44
0.0
173
     0
291
     0
 45
0.0
1001
ACAD
1000
AcDbSavedByObjectVersion
1070
     0
  0
VISUALSTYLE
  5
30
102
{ACAD_REACTORS
330
2A
102
}
330
2A
100
AcDbVisualStyle
  2
3dWireframe
 70
     5
 71
     0
 72
     2
 73
     0
 90
        0
 40
-0.6
 41
-30.0
 62
     5
 63
     7
421
 16777215
 74
     1
 91
        4
 64
     7
 65
   257
 75
     1
175
     1
 42
1.0
 92
        0
 66
   257
 43
1.0
 76
     1
 77
     6
 78
     2
 67
     7
 79
     5
170
     0
171
     0
290
     0
174
     0
 93
        1
 44
0.0
173
     0
291
     0
 45
0.0
1001
ACAD
1000
AcDbSavedByObjectVersion
1070
     0
  0
VISUALSTYLE
  5
32
102
{ACAD_REACTORS
330
2A
102
}
330
2A
100
AcDbVisualStyle
  2
Basic
 70
     7
 71
     1
 72
     0
 73
     1
 90
        0
 40
-0.6
 41
-30.0
 62
     5
 63
     7
421
 16777215
 74
     0
 91
        4
 64
     7
 65
   257
 75
     1
175
     1
 42
1.0
 92
        8
 66
     7
 43
1.0
 76
     1
 77
     6
 78
     2
 67
     7
 79
     5
170
     0
171
     0
290
     0
174
     0
 93
        1
 44
0.0
173
     0
291
     1
 45
0.0
1001
ACAD
1000
AcDbSavedByObjectVersion
1070
     0
  0
VISUALSTYLE
  5
36
102
{ACAD_REACTORS
330
2A
102
}
330
2A
100
AcDbVisualStyle
  2
Brighten
 70
    12
 71
     2
 72
     2
 73
     0
 90
        0
 40
-0.6
 41
-30.0
 62
     5
 63
     7
421
 16777215
 74
     1
 91
        4
 64
     7
 65
   257
 75
     1
175
     1
 42
1.0
 92
        8
 66
     7
 43
1.0
 76
     1
 77
     6
 78
     2
 67
     7
 79
     5
170
     0
171
     0
290
     0
174
     0
 93
        1
 44
50.0
173
     0
291
     1
 45
0.0
1001
ACAD
1000
AcDbSavedByObjectVersion
1070
     0
  0
VISUALSTYLE
  5
3A
102
{ACAD_REACTORS
330
2A
102
}
330
2A
100
AcDbVisualStyle
  2
ColorChange
 70
    16
 71
     2
 72
     2
 73
     3
 90
        0
 40
-0.6
 41
-30.0
 62
     5
 63
     8
421
  8421504
 74
     1
 91
        4
 64
     7
 65
   257
 75
     1
175
     1
 42
1.0
 92
        8
 66
     8
424
  8421504
 43
1.0
 76
     1
 77
     6
 78
     2
 67
     7
 79
     5
170
     0
171
     0
290
     0
174
     0
 93
        1
 44
0.0
173
     0
291
     1
 45
0.0
1001
ACAD
1000
AcDbSavedByObjectVersion
1070
     0
  0
VISUALSTYLE
  5
34
102
{ACAD_REACTORS
330
2A
102
}
330
2A
100
AcDbVisualStyle
  2
Conceptual
 70
     9
 71
     3
 72
     2
 73
     0
 90
        0
 40
-0.6
 41
-30.0
 62
     5
 63
     7
421
 16777215
 74
     2
 91
        2
 64
     7
 65
   257
 75
     1
175
     1
 42
40.0
 92
        8
 66
     7
 43
1.0
 76
     1
 77
     6
 78
     2
 67
     7
 79
     3
170
     0
171
     0
290
     0
174
     0
 93
        1
 44
0.0
173
     0
291
     0
 45
0.0
1001
ACAD
1000
AcDbSavedByObjectVersion
1070
     0
  0
VISUALSTYLE
  5
35
102
{ACAD_REACTORS
330
2A
102
}
330
2A
100
AcDbVisualStyle
  2
Dim
 70
    11
 71
     2
 72
     2
 73
     0
 90
        0
 40
-0.6
 41
-30.0
 62
     5
 63
     7
421
 16777215
 74
     1
 91
        4
 64
     7
 65
   257
 75
     1
175
     1
 42
1.0
 92
        8
 66
     7
 43
1.0
 76
     1
 77
     6
 78
     2
 67
     7
 79
     5
170
     0
171
     0
290
     0
174
     0
 93
        1
 44
-50.0
173
     0
291
     1
 45
0.0
1001
ACAD
1000
AcDbSavedByObjectVersion
1070
     0
  0
VISUALSTYLE
  5
39
102
{ACAD_REACTORS
330
2A
102
}
330
2A
100
AcDbVisualStyle
  2
Facepattern
 70
    15
 71
     2
 72
     2
 73
     0
 90
        0
 40
-0.6
 41
-30.0
 62
     5
 63
     7
421
 16777215
 74
     1
 91
        4
 64
     7
 65
   257
 75
     1
175
     1
 42
1.0
 92
        8
 66
     7
 43
1.0
 76
     1
 77
     6
 78
     2
 67
     7
 79
     5
170
     0
171
     0
290
     0
174
     0
 93
        1
 44
0.0
173
     0
291
     1
 45
0.0
1001
ACAD
1000
AcDbSavedByObjectVersion
1070
     0
  0
VISUALSTYLE
  5
2B
102
{ACAD_REACTORS
330
2A
102
}
330
2A
100
AcDbVisualStyle
  2
Flat
 70
     0
 71
     2
 72
     1
 73
     1
 90
        2
 40
-0.6
 41
30.0
 62
     5
 63
     7
421
 16777215
 74
     0
 91
        4
 64
     7
 65
   257
 75
     1
175
     1
 42
1.0
 92
        8
 66
     7
 43
1.0
 76
     1
 77
     6
 78
     2
 67
     7
 79
     5
170
     0
171
     0
290
     0
174
     0
 93
       13
 44
0.0
173
     0
291
     1
 45
0.0
1001
ACAD
1000
AcDbSavedByObjectVersion
1070
     0
  0
VISUALSTYLE
  5
2C
102
{ACAD_REACTORS
330
2A
102
}
330
2A
100
AcDbVisualStyle
  2
FlatWithEdges
 70
     1
 71
     2
 72
     1
 73
     1
 90
        2
 40
-0.6
 41
30.0
 62
     5
 63
     7
421
 16777215
 74
     1
 91
        4
 64
     7
 65
   257
 75
     1
175
     1
 42
1.0
 92
        0
 66
   257
 43
1.0
 76
     1
 77
     6
 78
     2
 67
     7
 79
     5
170
     0
171
     0
290
     0
174
     0
 93
       13
 44
0.0
173
     0
291
     1
 45
0.0
1001
ACAD
1000
AcDbSavedByObjectVersion
1070
     0
  0
VISUALSTYLE
  5
2D
102
{ACAD_REACTORS
330
2A
102
}
330
2A
100
AcDbVisualStyle
  2
Gouraud
 70
     2
 71
     2
 72
     2
 73
     1
 90
        2
 40
-0.6
 41
30.0
 62
     5
 63
     7
421
 16777215
 74
     0
 91
        4
 64
     7
 65
   257
 75
     1
175
     1
 42
1.0
 92
        0
 66
     7
 43
1.0
 76
     1
 77
     6
 78
     2
 67
     7
 79
     5
170
     0
171
     0
290
     0
174
     0
 93
       13
 44
0.0
173
     0
291
     1
 45
0.0
1001
ACAD
1000
AcDbSavedByObjectVersion
1070
     0
  0
VISUALSTYLE
  5
2E
102
{ACAD_REACTORS
330
2A
102
}
330
2A
100
AcDbVisualStyle
  2
GouraudWithEdges
 70
     3
 71
     2
 72
     2
 73
     1
 90
        2
 40
-0.6
 41
30.0
 62
     5
 63
     7
421
 16777215
 74
     1
 91
        4
 64
     7
 65
   257
 75
     1
175
     1
 42
1.0
 92
        0
 66
   257
 43
1.0
 76
     1
 77
     6
 78
     2
 67
     7
 79
     5
170
     0
171
     0
290
     0
174
     0
 93
       13
 44
0.0
173
     0
291
     1
 45
0.0
1001
ACAD
1000
AcDbSavedByObjectVersion
1070
     0
  0
VISUALSTYLE
  5
38
102
{ACAD_REACTORS
330
2A
102
}
330
2A
100
AcDbVisualStyle
  2
Linepattern
 70
    14
 71
     2
 72
     2
 73
     0
 90
        0
 40
-0.6
 41
-30.0
 62
     5
 63
     7
421
 16777215
 74
     1
 91
        4
 64
     7
 65
   257
 75
     7
175
     7
 42
1.0
 92
        8
 66
     7
 43
1.0
 76
     1
 77
     6
 78
     2
 67
     7
 79
     5
170
     0
171
     0
290
     0
174
     0
 93
        1
 44
0.0
173
     0
291
     1
 45
0.0
1001
ACAD
1000
AcDbSavedByObjectVersion
1070
     0
  0
VISUALSTYLE
  5
33
102
{ACAD_REACTORS
330
2A
102
}
330
2A
100
AcDbVisualStyle
  2
Realistic
 70
     8
 71
     2
 72
     2
 73
     0
 90
        0
 40
-0.6
 41
-30.0
 62
     5
 63
     7
421
 16777215
 74
     1
 91
        0
 64
     7
 65
   257
 75
     1
175
     1
 42
1.0
 92
        8
 66
     8
424
  7895160
 43
1.0
 76
     1
 77
     6
 78
     2
 67
     7
 79
     5
170
     0
171
     0
290
     0
174
     0
 93
       13
 44
0.0
173
     0
291
     0
 45
0.0
1001
ACAD
1000
AcDbSavedByObjectVersion
1070
     0
  0
VISUALSTYLE
  5
37
102
{ACAD_REACTORS
330
2A
102
}
330
2A
100
AcDbVisualStyle
  2
Thicken
 70
    13
 71
     2
 72
     2
 73
     0
 90
        0
 40
-0.6
 41
-30.0
 62
     5
 63
     7
421
 16777215
 74
     1
 91
        4
 64
     7
 65
   257
 75
     1
175
     1
 42
1.0
 92
       12
 66
     7
 43
1.0
 76
     1
 77
     6
 78
     2
 67
     7
 79
     5
170
     0
171
     0
290
     0
174
     0
 93
        1
 44
0.0
173
     0
291
     1
 45
0.0
1001
ACAD
1000
AcDbSavedByObjectVersion
1070
     0
  0
ENDSEC
  0
EOF
