<?xml version="1.0" encoding="utf-8"?>
<!-- Generator: Adobe Illustrator 16.0.0, SVG Export Plug-In . SVG Version: 6.00 Build 0)  -->
<!DOCTYPE svg PUBLIC "-//W3C//DTD SVG 1.1//EN" "http://www.w3.org/Graphics/SVG/1.1/DTD/svg11.dtd">
<svg version="1.1" id="Layer_1" xmlns="http://www.w3.org/2000/svg" xmlns:xlink="http://www.w3.org/1999/xlink" x="0px" y="0px"
	 width="135px" height="135px" viewBox="0 0 135 135" enable-background="new 0 0 135 135" xml:space="preserve">
<path d="M109.583,68.908c0.536,4.082,1.156,9.842,0.851,15.67c-0.17,2.91-0.436,6.27-1.818,8.896
	c-0.736,1.285-1.984,2.525-3.08,2.26c-1.852,0.031-3.591-1.478-5.646-3.099c-2.521-2.162-4.725-4.622-6.92-7.362
	c2.425-3.139,4.607-6.456,6.53-9.926c3.727-6.621,6.701-13.613,9.09-20.756c3.421-10.122,6.017-20.829,6.065-31.857
	c0.076-3.33-0.181-7.102-1.761-10.825c-1.043-2.699-3.644-5.216-7.358-5.276c-3.98-0.064-6.943,2.124-8.932,3.969
	c-2.453,2.014-4.738,4.226-6.829,6.614c-0.554-0.586-1.121-1.159-1.7-1.72c-5.209-5.17-12.322-9.185-20.41-9.351V6.142
	c-8.088,0.193-15.171,4.233-20.353,9.411c-0.707,0.692-1.395,1.403-2.064,2.131c-2.087-2.419-4.375-4.66-6.837-6.697
	c-1.984-1.814-4.838-3.931-8.617-3.889c-3.466,0.045-5.938,2.419-6.958,4.989c-1.557,3.613-1.814,7.332-1.761,10.647
	c0,10.231,2.229,20.212,5.265,29.729c-0.022,0.038-0.026,0.076-0.038,0.113c-3.391,10.159-5.949,20.919-5.96,32.001
	c-0.068,3.341,0.211,7.158,1.829,10.945c1.074,2.781,3.765,5.367,7.624,5.424c4.093,0.057,7.098-2.186,9.078-4.053
	c2.657-2.208,5.117-4.644,7.351-7.279c0.518,0.549,1.047,1.089,1.587,1.618c5.114,5.083,12.03,9.056,19.854,9.21
	c7.824-0.128,14.77-4.074,19.91-9.146c0.866-0.831,1.686-1.701,2.487-2.581c2.31,2.531,4.725,4.859,7.423,6.9
	c2.146,1.754,4.865,3.36,8.051,3.379c2.88-0.268,4.811-2.271,5.605-4.384c1.349-3.45,1.311-7.067,1.137-10.034
	C111.964,78.508,110.648,72.88,109.583,68.908z M52.501,20.942c4.471-4.12,9.842-7.427,15.164-7.234
	c5.322-0.166,10.658,3.167,15.107,7.295c0.725,0.699,1.421,1.436,2.102,2.192l-0.836,1.084
	c-5.986,7.756-11.422,15.825-16.792,23.853c-5.254-7.922-10.568-15.866-16.407-23.501l-0.832-1.088
	C50.802,22.642,51.634,21.774,52.501,20.942z M28.051,14.441c0.408-0.884,0.87-1.674,1.569-1.701h0.003
	c2.117-0.083,3.878,1.716,5.235,2.665c2.426,1.928,4.619,4.21,6.724,6.663c-2.31,3.052-4.394,6.268-6.236,9.623
	c-2.072,3.734-3.93,7.583-5.563,11.528c-1.776-6.781-2.948-13.637-2.948-20.485C26.895,19.616,26.963,16.687,28.051,14.441z
	 M34.435,91.381c-1.277,1.152-2.797,2.773-4.494,2.524c-0.605-0.087-0.9-0.453-1.27-1.312c-0.896-2.082-1.085-4.921-1.157-8.016
	c0-6.875,1.202-13.773,3.005-20.61c1.605,3.867,3.427,7.639,5.458,11.3c1.686,3.039,3.564,6.021,5.669,8.863
	C39.386,86.822,36.793,89.26,34.435,91.381z M45.868,78.859l-0.303,0.389c-1.567-2.231-3.023-4.539-4.361-6.916
	c-3.156-5.594-5.745-11.527-7.907-17.639c2.268-6.735,5.046-13.266,8.5-19.385c1.429-2.517,2.956-4.958,4.611-7.264
	c6.183,8.009,11.845,16.49,17.544,25.009C58.057,61.855,52.24,70.616,45.868,78.859z M83.244,86.8
	c-4.514,4.226-10.005,7.62-15.58,7.487c-5.575,0.162-11.097-3.213-15.64-7.427c-0.668-0.642-1.316-1.306-1.943-1.987
	c0.454-0.582,0.896-1.164,1.338-1.746c5.945-7.771,11.339-15.852,16.668-23.891l1.33,1.988c5.159,7.692,10.061,14.653,15.356,21.241
	l1.187,1.467C85.098,84.927,84.19,85.884,83.244,86.8z M89.015,80.1l-0.427-0.567c-4.989-6.77-9.51-13.568-14.748-21.453
	l-2.49-3.757c5.809-8.757,11.543-17.473,17.82-25.689c1.85,2.67,3.541,5.446,5.064,8.315c0.847,1.236,2.09,1.871,3.295,1.837
	c2.125,0.004,3.852-1.715,3.855-3.84v-0.011c-0.031-0.583-0.154-1.156-0.362-1.701c-0.261-0.556-0.59-1.081-0.892-1.614
	c-1.779-3.205-3.777-6.284-5.979-9.214c2.079-2.445,4.702-5.197,6.587-6.78c1.777-1.497,3.009-2.748,4.77-2.453
	c0.658,0.114,1.055,0.949,1.381,1.444c1.065,2.139,1.141,5.012,1.217,8.119c0.049,9.978-2.393,20.02-5.605,29.832
	c-2.256,6.833-5.038,13.47-8.516,19.69C92.458,74.978,90.818,77.619,89.015,80.1z"/>
</svg>
