  0
SECTION
  2
HEADER
  9
$ACADVER
  1
AC1009
  9
$EXTMIN
 10
0.0
 20
0.0
 30
0.0
  9
$EXTMAX
 10
1000.0
 20
1000.0
 30
0.0
  9
$FILLMODE
 70
 0
  9
$SPLFRAME
 70
 1
  0
ENDSEC
  0
SECTION
  2
TABLES
  0
TABLE
  2
LAYER
 70
1
  0
LAYER
  2
0
 70
     0
 62
     7
  6
CONTINUOUS
  0
ENDTAB
  0
ENDSEC
  0
SECTION
  2
ENTITIES
  0
POLYLINE
  8
0
 62
     0
 66
     1
 10
0
 20
0
 30
0.0
 70
     1
 40
0
 41
0
  0
VERTEX
  8
0
 10
1.14149
 20
0.698893
 30
0.0
 40
0
 41
0
  0
VERTEX
  8
0
 10
1.14285
 20
0.68826
 30
0.0
 40
0
 41
0
  0
VERTEX
  8
0
 10
1.1492
 20
0.624132
 30
0.0
 40
0
 41
0
  0
VERTEX
  8
0
 10
1.1511
 20
0.550836
 30
0.0
 40
0
 41
0
  0
VERTEX
  8
0
 10
1.15034
 20
0.535644
 30
0.0
 40
0
 41
0
  0
VERTEX
  8
0
 10
1.1499
 20
0.528103
 30
0.0
 40
0
 41
0
  0
VERTEX
  8
0
 10
1.14562
 20
0.488226
 30
0.0
 40
0
 41
0
  0
VERTEX
  8
0
 10
1.13498
 20
0.449815
 30
0.0
 40
0
 41
0
  0
VERTEX
  8
0
 10
1.1314
 20
0.442979
 30
0.0
 40
0
 41
0
  0
VERTEX
  8
0
 10
1.12945
 20
0.439671
 30
0.0
 40
0
 41
0
  0
VERTEX
  8
0
 10
1.11675
 20
0.425185
 30
0.0
 40
0
 41
0
  0
VERTEX
  8
0
 10
1.10216
 20
0.418782
 30
0.0
 40
0
 41
0
  0
VERTEX
  8
0
 10
1.09934
 20
0.419433
 30
0.0
 40
0
 41
0
  0
VERTEX
  8
0
 10
1.09451
 20
0.419379
 30
0.0
 40
0
 41
0
  0
VERTEX
  8
0
 10
1.07069
 20
0.429144
 30
0.0
 40
0
 41
0
  0
VERTEX
  8
0
 10
1.04584
 20
0.447537
 30
0.0
 40
0
 41
0
  0
VERTEX
  8
0
 10
1.04053
 20
0.451714
 30
0.0
 40
0
 41
0
  0
VERTEX
  8
0
 10
1.03396
 20
0.457357
 30
0.0
 40
0
 41
0
  0
VERTEX
  8
0
 10
0.974121
 20
0.521322
 30
0.0
 40
0
 41
0
  0
VERTEX
  8
0
 10
0.968425
 20
0.528429
 30
0.0
 40
0
 41
0
  0
VERTEX
  8
0
 10
0.974718
 20
0.536621
 30
0.0
 40
0
 41
0
  0
VERTEX
  8
0
 10
1.03141
 20
0.622775
 30
0.0
 40
0
 41
0
  0
VERTEX
  8
0
 10
1.03646
 20
0.631782
 30
0.0
 40
0
 41
0
  0
VERTEX
  8
0
 10
1.04617
 20
0.649035
 30
0.0
 40
0
 41
0
  0
VERTEX
  8
0
 10
1.08903
 20
0.737901
 30
0.0
 40
0
 41
0
  0
VERTEX
  8
0
 10
1.12489
 20
0.829428
 30
0.0
 40
0
 41
0
  0
VERTEX
  8
0
 10
1.13113
 20
0.848036
 30
0.0
 40
0
 41
0
  0
VERTEX
  8
0
 10
1.14003
 20
0.874403
 30
0.0
 40
0
 41
0
  0
VERTEX
  8
0
 10
1.17589
 20
1.01042
 30
0.0
 40
0
 41
0
  0
VERTEX
  8
0
 10
1.19417
 20
1.15115
 30
0.0
 40
0
 41
0
  0
VERTEX
  8
0
 10
1.19434
 20
1.17985
 30
0.0
 40
0
 41
0
  0
VERTEX
  8
0
 10
1.1945
 20
1.18853
 30
0.0
 40
0
 41
0
  0
VERTEX
  8
0
 10
1.19157
 20
1.2347
 30
0.0
 40
0
 41
0
  0
VERTEX
  8
0
 10
1.18007
 20
1.28293
 30
0.0
 40
0
 41
0
  0
VERTEX
  8
0
 10
1.176
 20
1.29259
 30
0.0
 40
0
 41
0
  0
VERTEX
  8
0
 10
1.17388
 20
1.29796
 30
0.0
 40
0
 41
0
  0
VERTEX
  8
0
 10
1.16482
 20
1.31299
 30
0.0
 40
0
 41
0
  0
VERTEX
  8
0
 10
1.14806
 20
1.3304
 30
0.0
 40
0
 41
0
  0
VERTEX
  8
0
 10
1.12608
 20
1.34272
 30
0.0
 40
0
 41
0
  0
VERTEX
  8
0
 10
1.10601
 20
1.34749
 30
0.0
 40
0
 41
0
  0
VERTEX
  8
0
 10
1.09934
 20
1.34755
 30
0.0
 40
0
 41
0
  0
VERTEX
  8
0
 10
1.08898
 20
1.34777
 30
0.0
 40
0
 41
0
  0
VERTEX
  8
0
 10
1.04503
 20
1.33436
 30
0.0
 40
0
 41
0
  0
VERTEX
  8
0
 10
1.01145
 20
1.31103
 30
0.0
 40
0
 41
0
  0
VERTEX
  8
0
 10
1.00629
 20
1.30621
 30
0.0
 40
0
 41
0
  0
VERTEX
  8
0
 10
0.999892
 20
1.301
 30
0.0
 40
0
 41
0
  0
VERTEX
  8
0
 10
0.940593
 20
1.2436
 30
0.0
 40
0
 41
0
  0
VERTEX
  8
0
 10
0.935167
 20
1.23736
 30
0.0
 40
0
 41
0
  0
VERTEX
  8
0
 10
0.933703
 20
1.23888
 30
0.0
 40
0
 41
0
  0
VERTEX
  8
0
 10
0.918946
 20
1.2538
 30
0.0
 40
0
 41
0
  0
VERTEX
  8
0
 10
0.917426
 20
1.25526
 30
0.0
 40
0
 41
0
  0
VERTEX
  8
0
 10
0.907118
 20
1.26546
 30
0.0
 40
0
 41
0
  0
VERTEX
  8
0
 10
0.873156
 20
1.29297
 30
0.0
 40
0
 41
0
  0
VERTEX
  8
0
 10
0.822374
 20
1.32351
 30
0.0
 40
0
 41
0
  0
VERTEX
  8
0
 10
0.76595
 20
1.34429
 30
0.0
 40
0
 41
0
  0
VERTEX
  8
0
 10
0.720161
 20
1.35238
 30
0.0
 40
0
 41
0
  0
VERTEX
  8
0
 10
0.704861
 20
1.35265
 30
0.0
 40
0
 41
0
  0
VERTEX
  8
0
 10
0.704861
 20
1.3527
 30
0.0
 40
0
 41
0
  0
VERTEX
  8
0
 10
0.689507
 20
1.35238
 30
0.0
 40
0
 41
0
  0
VERTEX
  8
0
 10
0.643772
 20
1.34413
 30
0.0
 40
0
 41
0
  0
VERTEX
  8
0
 10
0.587457
 20
1.32319
 30
0.0
 40
0
 41
0
  0
VERTEX
  8
0
 10
0.536893
 20
1.29248
 30
0.0
 40
0
 41
0
  0
VERTEX
  8
0
 10
0.503039
 20
1.26492
 30
0.0
 40
0
 41
0
  0
VERTEX
  8
0
 10
0.492839
 20
1.25467
 30
0.0
 40
0
 41
0
  0
VERTEX
  8
0
 10
0.490994
 20
1.25288
 30
0.0
 40
0
 41
0
  0
VERTEX
  8
0
 10
0.47309
 20
1.23438
 30
0.0
 40
0
 41
0
  0
VERTEX
  8
0
 10
0.471354
 20
1.23248
 30
0.0
 40
0
 41
0
  0
VERTEX
  8
0
 10
0.465875
 20
1.23877
 30
0.0
 40
0
 41
0
  0
VERTEX
  8
0
 10
0.406521
 20
1.29693
 30
0.0
 40
0
 41
0
  0
VERTEX
  8
0
 10
0.400119
 20
1.30219
 30
0.0
 40
0
 41
0
  0
VERTEX
  8
0
 10
0.394911
 20
1.30697
 30
0.0
 40
0
 41
0
  0
VERTEX
  8
0
 10
0.362196
 20
1.32975
 30
0.0
 40
0
 41
0
  0
VERTEX
  8
0
 10
0.32015
 20
1.34283
 30
0.0
 40
0
 41
0
  0
VERTEX
  8
0
 10
0.310331
 20
1.34272
 30
0.0
 40
0
 41
0
  0
VERTEX
  8
0
 10
0.304036
 20
1.34267
 30
0.0
 40
0
 41
0
  0
VERTEX
  8
0
 10
0.285265
 20
1.33822
 30
0.0
 40
0
 41
0
  0
VERTEX
  8
0
 10
0.26454
 20
1.32666
 30
0.0
 40
0
 41
0
  0
VERTEX
  8
0
 10
0.248589
 20
1.31011
 30
0.0
 40
0
 41
0
  0
VERTEX
  8
0
 10
0.239908
 20
1.29584
 30
0.0
 40
0
 41
0
  0
VERTEX
  8
0
 10
0.237901
 20
1.29074
 30
0.0
 40
0
 41
0
  0
VERTEX
  8
0
 10
0.233832
 20
1.28136
 30
0.0
 40
0
 41
0
  0
VERTEX
  8
0
 10
0.222385
 20
1.23416
 30
0.0
 40
0
 41
0
  0
VERTEX
  8
0
 10
0.219347
 20
1.18853
 30
0.0
 40
0
 41
0
  0
VERTEX
  8
0
 10
0.21951
 20
1.17985
 30
0.0
 40
0
 41
0
  0
VERTEX
  8
0
 10
0.21951
 20
1.14046
 30
0.0
 40
0
 41
0
  0
VERTEX
  8
0
 10
0.235026
 20
1.02224
 30
0.0
 40
0
 41
0
  0
VERTEX
  8
0
 10
0.266439
 20
0.894965
 30
0.0
 40
0
 41
0
  0
VERTEX
  8
0
 10
0.27436
 20
0.870171
 30
0.0
 40
0
 41
0
  0
VERTEX
  8
0
 10
0.274306
 20
0.870117
 30
0.0
 40
0
 41
0
  0
VERTEX
  8
0
 10
0.273981
 20
0.869086
 30
0.0
 40
0
 41
0
  0
VERTEX
  8
0
 10
0.273981
 20
0.868978
 30
0.0
 40
0
 41
0
  0
VERTEX
  8
0
 10
0.265136
 20
0.842557
 30
0.0
 40
0
 41
0
  0
VERTEX
  8
0
 10
0.22971
 20
0.705946
 30
0.0
 40
0
 41
0
  0
VERTEX
  8
0
 10
0.211914
 20
0.564507
 30
0.0
 40
0
 41
0
  0
VERTEX
  8
0
 10
0.211914
 20
0.535644
 30
0.0
 40
0
 41
0
  0
VERTEX
  8
0
 10
0.211697
 20
0.526964
 30
0.0
 40
0
 41
0
  0
VERTEX
  8
0
 10
0.214844
 20
0.480414
 30
0.0
 40
0
 41
0
  0
VERTEX
  8
0
 10
0.226725
 20
0.431532
 30
0.0
 40
0
 41
0
  0
VERTEX
  8
0
 10
0.230957
 20
0.421658
 30
0.0
 40
0
 41
0
  0
VERTEX
  8
0
 10
0.233074
 20
0.416178
 30
0.0
 40
0
 41
0
  0
VERTEX
  8
0
 10
0.242404
 20
0.400717
 30
0.0
 40
0
 41
0
  0
VERTEX
  8
0
 10
0.259765
 20
0.382758
 30
0.0
 40
0
 41
0
  0
VERTEX
  8
0
 10
0.282553
 20
0.370171
 30
0.0
 40
0
 41
0
  0
VERTEX
  8
0
 10
0.303386
 20
0.365235
 30
0.0
 40
0
 41
0
  0
VERTEX
  8
0
 10
0.310385
 20
0.365126
 30
0.0
 40
0
 41
0
  0
VERTEX
  8
0
 10
0.321018
 20
0.365018
 30
0.0
 40
0
 41
0
  0
VERTEX
  8
0
 10
0.365886
 20
0.378743
 30
0.0
 40
0
 41
0
  0
VERTEX
  8
0
 10
0.39974
 20
0.402561
 30
0.0
 40
0
 41
0
  0
VERTEX
  8
0
 10
0.404949
 20
0.407389
 30
0.0
 40
0
 41
0
  0
VERTEX
  8
0
 10
0.411838
 20
0.41314
 30
0.0
 40
0
 41
0
  0
VERTEX
  8
0
 10
0.47564
 20
0.476346
 30
0.0
 40
0
 41
0
  0
VERTEX
  8
0
 10
0.4815
 20
0.483182
 30
0.0
 40
0
 41
0
  0
VERTEX
  8
0
 10
0.482801
 20
0.481771
 30
0.0
 40
0
 41
0
  0
VERTEX
  8
0
 10
0.496636
 20
0.467719
 30
0.0
 40
0
 41
0
  0
VERTEX
  8
0
 10
0.498047
 20
0.466308
 30
0.0
 40
0
 41
0
  0
VERTEX
  8
0
 10
0.508083
 20
0.456326
 30
0.0
 40
0
 41
0
  0
VERTEX
  8
0
 10
0.541342
 20
0.429254
 30
0.0
 40
0
 41
0
  0
VERTEX
  8
0
 10
0.590821
 20
0.399143
 30
0.0
 40
0
 41
0
  0
VERTEX
  8
0
 10
0.645617
 20
0.378635
 30
0.0
 40
0
 41
0
  0
VERTEX
  8
0
 10
0.689996
 20
0.370714
 30
0.0
 40
0
 41
0
  0
VERTEX
  8
0
 10
0.704861
 20
0.370389
 30
0.0
 40
0
 41
0
  0
VERTEX
  8
0
 10
0.719672
 20
0.37066
 30
0.0
 40
0
 41
0
  0
VERTEX
  8
0
 10
0.764106
 20
0.378418
 30
0.0
 40
0
 41
0
  0
VERTEX
  8
0
 10
0.819011
 20
0.398762
 30
0.0
 40
0
 41
0
  0
VERTEX
  8
0
 10
0.868707
 20
0.428711
 30
0.0
 40
0
 41
0
  0
VERTEX
  8
0
 10
0.902072
 20
0.455675
 30
0.0
 40
0
 41
0
  0
VERTEX
  8
0
 10
0.912218
 20
0.465657
 30
0.0
 40
0
 41
0
  0
VERTEX
  8
0
 10
0.914442
 20
0.467828
 30
0.0
 40
0
 41
0
  0
VERTEX
  8
0
 10
0.936035
 20
0.490289
 30
0.0
 40
0
 41
0
  0
VERTEX
  8
0
 10
0.938151
 20
0.492567
 30
0.0
 40
0
 41
0
  0
VERTEX
  8
0
 10
0.944119
 20
0.486003
 30
0.0
 40
0
 41
0
  0
VERTEX
  8
0
 10
1.00841
 20
0.425999
 30
0.0
 40
0
 41
0
  0
VERTEX
  8
0
 10
1.01546
 20
0.420682
 30
0.0
 40
0
 41
0
  0
VERTEX
  8
0
 10
1.02105
 20
0.416124
 30
0.0
 40
0
 41
0
  0
VERTEX
  8
0
 10
1.05333
 20
0.396322
 30
0.0
 40
0
 41
0
  0
VERTEX
  8
0
 10
1.09104
 20
0.385525
 30
0.0
 40
0
 41
0
  0
VERTEX
  8
0
 10
1.09934
 20
0.385471
 30
0.0
 40
0
 41
0
  0
VERTEX
  8
0
 10
1.10682
 20
0.386176
 30
0.0
 40
0
 41
0
  0
VERTEX
  8
0
 10
1.13666
 20
0.40115
 30
0.0
 40
0
 41
0
  0
VERTEX
  8
0
 10
1.15565
 20
0.425672
 30
0.0
 40
0
 41
0
  0
VERTEX
  8
0
 10
1.15772
 20
0.431153
 30
0.0
 40
0
 41
0
  0
VERTEX
  8
0
 10
1.16119
 20
0.440158
 30
0.0
 40
0
 41
0
  0
VERTEX
  8
0
 10
1.16954
 20
0.485297
 30
0.0
 40
0
 41
0
  0
VERTEX
  8
0
 10
1.16998
 20
0.52794
 30
0.0
 40
0
 41
0
  0
VERTEX
  8
0
 10
1.16954
 20
0.535644
 30
0.0
 40
0
 41
0
  0
VERTEX
  8
0
 10
1.16873
 20
0.551486
 30
0.0
 40
0
 41
0
  0
VERTEX
  8
0
 10
1.15842
 20
0.625489
 30
0.0
 40
0
 41
0
  0
VERTEX
  8
0
 10
1.14426
 20
0.688585
 30
0.0
 40
0
 41
0
  0
VERTEX
  8
0
 10
1.14149
 20
0.698893
 30
0.0
 40
0
 41
0
  0
SEQEND
 8
0
  0
POLYLINE
  8
0
 62
     0
 66
     1
 10
0
 20
0
 30
0.0
 70
     1
 40
0
 41
0
  0
VERTEX
  8
0
 10
0.546875
 20
1.19851
 30
0.0
 40
0
 41
0
  0
VERTEX
  8
0
 10
0.555556
 20
1.20654
 30
0.0
 40
0
 41
0
  0
VERTEX
  8
0
 10
0.583387
 20
1.22868
 30
0.0
 40
0
 41
0
  0
VERTEX
  8
0
 10
0.622504
 20
1.25304
 30
0.0
 40
0
 41
0
  0
VERTEX
  8
0
 10
0.663303
 20
1.26899
 30
0.0
 40
0
 41
0
  0
VERTEX
  8
0
 10
0.694499
 20
1.27425
 30
0.0
 40
0
 41
0
  0
VERTEX
  8
0
 10
0.704861
 20
1.27387
 30
0.0
 40
0
 41
0
  0
VERTEX
  8
0
 10
0.715169
 20
1.2742
 30
0.0
 40
0
 41
0
  0
VERTEX
  8
0
 10
0.746311
 20
1.26883
 30
0.0
 40
0
 41
0
  0
VERTEX
  8
0
 10
0.786947
 20
1.25266
 30
0.0
 40
0
 41
0
  0
VERTEX
  8
0
 10
0.825846
 20
1.22814
 30
0.0
 40
0
 41
0
  0
VERTEX
  8
0
 10
0.853515
 20
1.20589
 30
0.0
 40
0
 41
0
  0
VERTEX
  8
0
 10
0.862196
 20
1.19786
 30
0.0
 40
0
 41
0
  0
VERTEX
  8
0
 10
0.86404
 20
1.19607
 30
0.0
 40
0
 41
0
  0
VERTEX
  8
0
 10
0.882324
 20
1.17708
 30
0.0
 40
0
 41
0
  0
VERTEX
  8
0
 10
0.884115
 20
1.17508
 30
0.0
 40
0
 41
0
  0
VERTEX
  8
0
 10
0.875379
 20
1.16374
 30
0.0
 40
0
 41
0
  0
VERTEX
  8
0
 10
0.859754
 20
1.14355
 30
0.0
 40
0
 41
0
  0
VERTEX
  8
0
 10
0.71441
 20
0.936253
 30
0.0
 40
0
 41
0
  0
VERTEX
  8
0
 10
0.700467
 20
0.91531
 30
0.0
 40
0
 41
0
  0
VERTEX
  8
0
 10
0.68674
 20
0.935981
 30
0.0
 40
0
 41
0
  0
VERTEX
  8
0
 10
0.54476
 20
1.14025
 30
0.0
 40
0
 41
0
  0
VERTEX
  8
0
 10
0.529568
 20
1.1601
 30
0.0
 40
0
 41
0
  0
VERTEX
  8
0
 10
0.520887
 20
1.17144
 30
0.0
 40
0
 41
0
  0
VERTEX
  8
0
 10
0.522949
 20
1.17383
 30
0.0
 40
0
 41
0
  0
VERTEX
  8
0
 10
0.544596
 20
1.19634
 30
0.0
 40
0
 41
0
  0
VERTEX
  8
0
 10
0.546875
 20
1.19851
 30
0.0
 40
0
 41
0
  0
SEQEND
 8
0
  0
POLYLINE
  8
0
 62
     0
 66
     1
 10
0
 20
0
 30
0.0
 70
     1
 40
0
 41
0
  0
VERTEX
  8
0
 10
0.29221
 20
1.26622
 30
0.0
 40
0
 41
0
  0
VERTEX
  8
0
 10
0.29324
 20
1.26855
 30
0.0
 40
0
 41
0
  0
VERTEX
  8
0
 10
0.299208
 20
1.27848
 30
0.0
 40
0
 41
0
  0
VERTEX
  8
0
 10
0.306694
 20
1.28391
 30
0.0
 40
0
 41
0
  0
VERTEX
  8
0
 10
0.308539
 20
1.28396
 30
0.0
 40
0
 41
0
  0
VERTEX
  8
0
 10
0.308594
 20
1.28396
 30
0.0
 40
0
 41
0
  0
VERTEX
  8
0
 10
0.314074
 20
1.28418
 30
0.0
 40
0
 41
0
  0
VERTEX
  8
0
 10
0.338758
 20
1.27414
 30
0.0
 40
0
 41
0
  0
VERTEX
  8
0
 10
0.359537
 20
1.25868
 30
0.0
 40
0
 41
0
  0
VERTEX
  8
0
 10
0.363118
 20
1.25618
 30
0.0
 40
0
 41
0
  0
VERTEX
  8
0
 10
0.369413
 20
1.25119
 30
0.0
 40
0
 41
0
  0
VERTEX
  8
0
 10
0.427681
 20
1.1932
 30
0.0
 40
0
 41
0
  0
VERTEX
  8
0
 10
0.43316
 20
1.18679
 30
0.0
 40
0
 41
0
  0
VERTEX
  8
0
 10
0.427138
 20
1.17887
 30
0.0
 40
0
 41
0
  0
VERTEX
  8
0
 10
0.372939
 20
1.09527
 30
0.0
 40
0
 41
0
  0
VERTEX
  8
0
 10
0.368164
 20
1.08653
 30
0.0
 40
0
 41
0
  0
VERTEX
  8
0
 10
0.362739
 20
1.07682
 30
0.0
 40
0
 41
0
  0
VERTEX
  8
0
 10
0.314453
 20
0.976779
 30
0.0
 40
0
 41
0
  0
VERTEX
  8
0
 10
0.310221
 20
0.966471
 30
0.0
 40
0
 41
0
  0
VERTEX
  8
0
 10
0.305556
 20
0.984158
 30
0.0
 40
0
 41
0
  0
VERTEX
  8
0
 10
0.287924
 20
1.07292
 30
0.0
 40
0
 41
0
  0
VERTEX
  8
0
 10
0.279514
 20
1.15316
 30
0.0
 40
0
 41
0
  0
VERTEX
  8
0
 10
0.279514
 20
1.17985
 30
0.0
 40
0
 41
0
  0
VERTEX
  8
0
 10
0.279676
 20
1.18799
 30
0.0
 40
0
 41
0
  0
VERTEX
  8
0
 10
0.281847
 20
1.22645
 30
0.0
 40
0
 41
0
  0
VERTEX
  8
0
 10
0.289333
 20
1.26042
 30
0.0
 40
0
 41
0
  0
VERTEX
  8
0
 10
0.29221
 20
1.26622
 30
0.0
 40
0
 41
0
  0
SEQEND
 8
0
  0
POLYLINE
  8
0
 62
     0
 66
     1
 10
0
 20
0
 30
0.0
 70
     1
 40
0
 41
0
  0
VERTEX
  8
0
 10
0.358724
 20
0.464789
 30
0.0
 40
0
 41
0
  0
VERTEX
  8
0
 10
0.35536
 20
0.461806
 30
0.0
 40
0
 41
0
  0
VERTEX
  8
0
 10
0.336914
 20
0.446181
 30
0.0
 40
0
 41
0
  0
VERTEX
  8
0
 10
0.316297
 20
0.437825
 30
0.0
 40
0
 41
0
  0
VERTEX
  8
0
 10
0.311903
 20
0.438476
 30
0.0
 40
0
 41
0
  0
VERTEX
  8
0
 10
0.310331
 20
0.438747
 30
0.0
 40
0
 41
0
  0
VERTEX
  8
0
 10
0.299587
 20
0.449924
 30
0.0
 40
0
 41
0
  0
VERTEX
  8
0
 10
0.298665
 20
0.452149
 30
0.0
 40
0
 41
0
  0
VERTEX
  8
0
 10
0.296332
 20
0.457574
 30
0.0
 40
0
 41
0
  0
VERTEX
  8
0
 10
0.289387
 20
0.489963
 30
0.0
 40
0
 41
0
  0
VERTEX
  8
0
 10
0.286783
 20
0.527615
 30
0.0
 40
0
 41
0
  0
VERTEX
  8
0
 10
0.286621
 20
0.535644
 30
0.0
 40
0
 41
0
  0
VERTEX
  8
0
 10
0.286621
 20
0.562554
 30
0.0
 40
0
 41
0
  0
VERTEX
  8
0
 10
0.295193
 20
0.643175
 30
0.0
 40
0
 41
0
  0
VERTEX
  8
0
 10
0.313206
 20
0.732531
 30
0.0
 40
0
 41
0
  0
VERTEX
  8
0
 10
0.317925
 20
0.750325
 30
0.0
 40
0
 41
0
  0
VERTEX
  8
0
 10
0.322103
 20
0.740289
 30
0.0
 40
0
 41
0
  0
VERTEX
  8
0
 10
0.369467
 20
0.642199
 30
0.0
 40
0
 41
0
  0
VERTEX
  8
0
 10
0.374783
 20
0.63265
 30
0.0
 40
0
 41
0
  0
VERTEX
  8
0
 10
0.379124
 20
0.624729
 30
0.0
 40
0
 41
0
  0
VERTEX
  8
0
 10
0.428331
 20
0.547743
 30
0.0
 40
0
 41
0
  0
VERTEX
  8
0
 10
0.433811
 20
0.54031
 30
0.0
 40
0
 41
0
  0
VERTEX
  8
0
 10
0.427897
 20
0.533311
 30
0.0
 40
0
 41
0
  0
VERTEX
  8
0
 10
0.364854
 20
0.470324
 30
0.0
 40
0
 41
0
  0
VERTEX
  8
0
 10
0.358724
 20
0.464789
 30
0.0
 40
0
 41
0
  0
SEQEND
 8
0
  0
POLYLINE
  8
0
 62
     0
 66
     1
 10
0
 20
0
 30
0.0
 70
     1
 40
0
 41
0
  0
VERTEX
  8
0
 10
0.47781
 20
0.595215
 30
0.0
 40
0
 41
0
  0
VERTEX
  8
0
 10
0.47461
 20
0.591146
 30
0.0
 40
0
 41
0
  0
VERTEX
  8
0
 10
0.47054
 20
0.597006
 30
0.0
 40
0
 41
0
  0
VERTEX
  8
0
 10
0.432671
 20
0.65701
 30
0.0
 40
0
 41
0
  0
VERTEX
  8
0
 10
0.429199
 20
0.663194
 30
0.0
 40
0
 41
0
  0
VERTEX
  8
0
 10
0.420953
 20
0.677789
 30
0.0
 40
0
 41
0
  0
VERTEX
  8
0
 10
0.384115
 20
0.753039
 30
0.0
 40
0
 41
0
  0
VERTEX
  8
0
 10
0.352431
 20
0.831054
 30
0.0
 40
0
 41
0
  0
VERTEX
  8
0
 10
0.346843
 20
0.846951
 30
0.0
 40
0
 41
0
  0
VERTEX
  8
0
 10
0.352701
 20
0.864529
 30
0.0
 40
0
 41
0
  0
VERTEX
  8
0
 10
0.386447
 20
0.950358
 30
0.0
 40
0
 41
0
  0
VERTEX
  8
0
 10
0.426378
 20
1.03299
 30
0.0
 40
0
 41
0
  0
VERTEX
  8
0
 10
0.435385
 20
1.04888
 30
0.0
 40
0
 41
0
  0
VERTEX
  8
0
 10
0.439074
 20
1.05545
 30
0.0
 40
0
 41
0
  0
VERTEX
  8
0
 10
0.479058
 20
1.1186
 30
0.0
 40
0
 41
0
  0
VERTEX
  8
0
 10
0.483399
 20
1.12457
 30
0.0
 40
0
 41
0
  0
VERTEX
  8
0
 10
0.499457
 20
1.10373
 30
0.0
 40
0
 41
0
  0
VERTEX
  8
0
 10
0.651313
 20
0.886231
 30
0.0
 40
0
 41
0
  0
VERTEX
  8
0
 10
0.666178
 20
0.86404
 30
0.0
 40
0
 41
0
  0
VERTEX
  8
0
 10
0.650825
 20
0.841146
 30
0.0
 40
0
 41
0
  0
VERTEX
  8
0
 10
0.494358
 20
0.616699
 30
0.0
 40
0
 41
0
  0
VERTEX
  8
0
 10
0.47781
 20
0.595215
 30
0.0
 40
0
 41
0
  0
SEQEND
 8
0
  0
POLYLINE
  8
0
 62
     0
 66
     1
 10
0
 20
0
 30
0.0
 70
     1
 40
0
 41
0
  0
VERTEX
  8
0
 10
0.867133
 20
0.512478
 30
0.0
 40
0
 41
0
  0
VERTEX
  8
0
 10
0.858344
 20
0.504286
 30
0.0
 40
0
 41
0
  0
VERTEX
  8
0
 10
0.830078
 20
0.481554
 30
0.0
 40
0
 41
0
  0
VERTEX
  8
0
 10
0.790093
 20
0.456489
 30
0.0
 40
0
 41
0
  0
VERTEX
  8
0
 10
0.748047
 20
0.439942
 30
0.0
 40
0
 41
0
  0
VERTEX
  8
0
 10
0.715549
 20
0.434299
 30
0.0
 40
0
 41
0
  0
VERTEX
  8
0
 10
0.704807
 20
0.434517
 30
0.0
 40
0
 41
0
  0
VERTEX
  8
0
 10
0.694011
 20
0.434244
 30
0.0
 40
0
 41
0
  0
VERTEX
  8
0
 10
0.661512
 20
0.439725
 30
0.0
 40
0
 41
0
  0
VERTEX
  8
0
 10
0.619303
 20
0.456108
 30
0.0
 40
0
 41
0
  0
VERTEX
  8
0
 10
0.579156
 20
0.481065
 30
0.0
 40
0
 41
0
  0
VERTEX
  8
0
 10
0.550726
 20
0.503689
 30
0.0
 40
0
 41
0
  0
VERTEX
  8
0
 10
0.541938
 20
0.511882
 30
0.0
 40
0
 41
0
  0
VERTEX
  8
0
 10
0.540147
 20
0.513564
 30
0.0
 40
0
 41
0
  0
VERTEX
  8
0
 10
0.523329
 20
0.530817
 30
0.0
 40
0
 41
0
  0
VERTEX
  8
0
 10
0.521701
 20
0.532553
 30
0.0
 40
0
 41
0
  0
VERTEX
  8
0
 10
0.52284
 20
0.534071
 30
0.0
 40
0
 41
0
  0
VERTEX
  8
0
 10
0.534451
 20
0.549263
 30
0.0
 40
0
 41
0
  0
VERTEX
  8
0
 10
0.53559
 20
0.550782
 30
0.0
 40
0
 41
0
  0
VERTEX
  8
0
 10
0.551053
 20
0.571018
 30
0.0
 40
0
 41
0
  0
VERTEX
  8
0
 10
0.695367
 20
0.7787
 30
0.0
 40
0
 41
0
  0
VERTEX
  8
0
 10
0.709256
 20
0.799642
 30
0.0
 40
0
 41
0
  0
VERTEX
  8
0
 10
0.72309
 20
0.778917
 30
0.0
 40
0
 41
0
  0
VERTEX
  8
0
 10
0.73649
 20
0.758897
 30
0.0
 40
0
 41
0
  0
VERTEX
  8
0
 10
0.802518
 20
0.664008
 30
0.0
 40
0
 41
0
  0
VERTEX
  8
0
 10
0.869249
 20
0.574869
 30
0.0
 40
0
 41
0
  0
VERTEX
  8
0
 10
0.883029
 20
0.557671
 30
0.0
 40
0
 41
0
  0
VERTEX
  8
0
 10
0.8954
 20
0.542372
 30
0.0
 40
0
 41
0
  0
VERTEX
  8
0
 10
0.893121
 20
0.539822
 30
0.0
 40
0
 41
0
  0
VERTEX
  8
0
 10
0.869575
 20
0.514865
 30
0.0
 40
0
 41
0
  0
VERTEX
  8
0
 10
0.867133
 20
0.512478
 30
0.0
 40
0
 41
0
  0
SEQEND
 8
0
  0
POLYLINE
  8
0
 62
     0
 66
     1
 10
0
 20
0
 30
0.0
 70
     1
 40
0
 41
0
  0
VERTEX
  8
0
 10
0.927246
 20
0.582303
 30
0.0
 40
0
 41
0
  0
VERTEX
  8
0
 10
0.922797
 20
0.588217
 30
0.0
 40
0
 41
0
  0
VERTEX
  8
0
 10
0.909776
 20
0.605849
 30
0.0
 40
0
 41
0
  0
VERTEX
  8
0
 10
0.846951
 20
0.695637
 30
0.0
 40
0
 41
0
  0
VERTEX
  8
0
 10
0.782769
 20
0.791178
 30
0.0
 40
0
 41
0
  0
VERTEX
  8
0
 10
0.769151
 20
0.811686
 30
0.0
 40
0
 41
0
  0
VERTEX
  8
0
 10
0.743218
 20
0.850803
 30
0.0
 40
0
 41
0
  0
VERTEX
  8
0
 10
0.758356
 20
0.873643
 30
0.0
 40
0
 41
0
  0
VERTEX
  8
0
 10
0.912489
 20
1.09701
 30
0.0
 40
0
 41
0
  0
VERTEX
  8
0
 10
0.928874
 20
1.11838
 30
0.0
 40
0
 41
0
  0
VERTEX
  8
0
 10
0.933649
 20
1.11144
 30
0.0
 40
0
 41
0
  0
VERTEX
  8
0
 10
0.977647
 20
1.03928
 30
0.0
 40
0
 41
0
  0
VERTEX
  8
0
 10
0.981608
 20
1.03179
 30
0.0
 40
0
 41
0
  0
VERTEX
  8
0
 10
0.983778
 20
1.02859
 30
0.0
 40
0
 41
0
  0
VERTEX
  8
0
 10
0.997342
 20
1.01725
 30
0.0
 40
0
 41
0
  0
VERTEX
  8
0
 10
1.0128
 20
1.01259
 30
0.0
 40
0
 41
0
  0
VERTEX
  8
0
 10
1.01595
 20
1.01264
 30
0.0
 40
0
 41
0
  0
VERTEX
  8
0
 10
1.02148
 20
1.01264
 30
0.0
 40
0
 41
0
  0
VERTEX
  8
0
 10
1.04427
 20
1.02436
 30
0.0
 40
0
 41
0
  0
VERTEX
  8
0
 10
1.05604
 20
1.04709
 30
0.0
 40
0
 41
0
  0
VERTEX
  8
0
 10
1.0561
 20
1.05263
 30
0.0
 40
0
 41
0
  0
VERTEX
  8
0
 10
1.0561
 20
1.05273
 30
0.0
 40
0
 41
0
  0
VERTEX
  8
0
 10
1.05599
 20
1.05425
 30
0.0
 40
0
 41
0
  0
VERTEX
  8
0
 10
1.05284
 20
1.06907
 30
0.0
 40
0
 41
0
  0
VERTEX
  8
0
 10
1.0523
 20
1.07048
 30
0.0
 40
0
 41
0
  0
VERTEX
  8
0
 10
1.05159
 20
1.07194
 30
0.0
 40
0
 41
0
  0
VERTEX
  8
0
 10
1.04378
 20
1.08594
 30
0.0
 40
0
 41
0
  0
VERTEX
  8
0
 10
1.04302
 20
1.08729
 30
0.0
 40
0
 41
0
  0
VERTEX
  8
0
 10
1.03836
 20
1.09565
 30
0.0
 40
0
 41
0
  0
VERTEX
  8
0
 10
0.986436
 20
1.17567
 30
0.0
 40
0
 41
0
  0
VERTEX
  8
0
 10
0.98074
 20
1.18327
 30
0.0
 40
0
 41
0
  0
VERTEX
  8
0
 10
0.986111
 20
1.18967
 30
0.0
 40
0
 41
0
  0
VERTEX
  8
0
 10
1.01579
 20
1.22195
 30
0.0
 40
0
 41
0
  0
VERTEX
  8
0
 10
1.04443
 20
1.24978
 30
0.0
 40
0
 41
0
  0
VERTEX
  8
0
 10
1.04937
 20
1.25391
 30
0.0
 40
0
 41
0
  0
VERTEX
  8
0
 10
1.05398
 20
1.25781
 30
0.0
 40
0
 41
0
  0
VERTEX
  8
0
 10
1.07422
 20
1.27371
 30
0.0
 40
0
 41
0
  0
VERTEX
  8
0
 10
1.09446
 20
1.28022
 30
0.0
 40
0
 41
0
  0
VERTEX
  8
0
 10
1.09907
 20
1.27946
 30
0.0
 40
0
 41
0
  0
VERTEX
  8
0
 10
1.10075
 20
1.27919
 30
0.0
 40
0
 41
0
  0
VERTEX
  8
0
 10
1.10753
 20
1.27344
 30
0.0
 40
0
 41
0
  0
VERTEX
  8
0
 10
1.11258
 20
1.26573
 30
0.0
 40
0
 41
0
  0
VERTEX
  8
0
 10
1.11344
 20
1.26443
 30
0.0
 40
0
 41
0
  0
VERTEX
  8
0
 10
1.11621
 20
1.2589
 30
0.0
 40
0
 41
0
  0
VERTEX
  8
0
 10
1.12359
 20
1.22591
 30
0.0
 40
0
 41
0
  0
VERTEX
  8
0
 10
1.12587
 20
1.18793
 30
0.0
 40
0
 41
0
  0
VERTEX
  8
0
 10
1.12608
 20
1.17985
 30
0.0
 40
0
 41
0
  0
VERTEX
  8
0
 10
1.12619
 20
1.15386
 30
0.0
 40
0
 41
0
  0
VERTEX
  8
0
 10
1.10965
 20
1.02382
 30
0.0
 40
0
 41
0
  0
VERTEX
  8
0
 10
1.07606
 20
0.89464
 30
0.0
 40
0
 41
0
  0
VERTEX
  8
0
 10
1.06771
 20
0.869086
 30
0.0
 40
0
 41
0
  0
VERTEX
  8
0
 10
1.06179
 20
0.851292
 30
0.0
 40
0
 41
0
  0
VERTEX
  8
0
 10
1.0281
 20
0.76416
 30
0.0
 40
0
 41
0
  0
VERTEX
  8
0
 10
0.988064
 20
0.680176
 30
0.0
 40
0
 41
0
  0
VERTEX
  8
0
 10
0.979004
 20
0.663954
 30
0.0
 40
0
 41
0
  0
VERTEX
  8
0
 10
0.974989
 20
0.656901
 30
0.0
 40
0
 41
0
  0
VERTEX
  8
0
 10
0.931913
 20
0.588758
 30
0.0
 40
0
 41
0
  0
VERTEX
  8
0
 10
0.927246
 20
0.582303
 30
0.0
 40
0
 41
0
  0
SEQEND
 8
0
  0
ENDSEC
  0
EOF
